<?xml version="1.0" encoding="utf-8"?>
<!-- Generator: Adobe Illustrator 24.1.3, SVG Export Plug-In . SVG Version: 6.00 Build 0)  -->
<svg version="1.1" id="Layer_1" xmlns="http://www.w3.org/2000/svg" xmlns:xlink="http://www.w3.org/1999/xlink" x="0px" y="0px"
	 viewBox="0 0 69.2 65.9" style="enable-background:new 0 0 69.2 65.9;" xml:space="preserve">
<style type="text/css">
	.st0{display:none;}
	.st1{display:inline;opacity:0.4;}
	.st2{fill:#92F7FF;}
	.st3{display:inline;}
	.st4{fill:#003136;}
	.st5{fill:#EBF5F4;}
	.st6{fill:#1D3557;}
</style>
<g id="BGD">
</g>
<g id="Hero">
</g>
<g id="Slogan">
</g>
<g id="Services">
</g>
<g id="Clients">
</g>
<g id="Proposal">
</g>
<g id="Diver_Shop">
</g>
<g id="Guides_1_" class="st0">
	<g id="Grid" class="st1">
		<rect x="650.1" y="-2053.6" class="st2" width="76" height="6963"/>
		<rect x="552.6" y="-2053.6" class="st2" width="76" height="6963"/>
		<rect x="747.5" y="-2053.6" class="st2" width="76" height="6963"/>
		<rect x="1039.9" y="-2053.6" class="st2" width="76" height="6963"/>
		<rect x="845" y="-2053.6" class="st2" width="76" height="6963"/>
		<rect x="942.4" y="-2053.6" class="st2" width="76" height="6963"/>
		<rect x="1137.3" y="-2053.6" class="st2" width="76" height="6963"/>
		<rect x="1234.8" y="-2053.6" class="st2" width="76" height="6963"/>
		<rect x="1332.2" y="-2053.6" class="st2" width="76" height="6963"/>
		<rect x="1429.7" y="-2053.6" class="st2" width="76" height="6963"/>
		<rect x="1527.1" y="-2053.6" class="st2" width="76" height="6963"/>
		<rect x="1624.6" y="-2053.6" class="st2" width="76" height="6963"/>
	</g>
	<g id="Guides" class="st3">
	</g>
</g>
<g>
	<g>
		<path class="st4" d="M27.3,42.5c-2.1,0.3-4.2-0.7-5.3-2.7c0,0,0,0,0,0l-7.9-14c-2.9-5.2-1.4-11.8,3.5-15.1l10.8-7.2
			c6.7-4.4,15.7-1,17.9,6.9l3.8,13.6c1,3.6-0.6,7.4-3.8,9.1l-15.5,8.2C29.7,41.9,28.5,42.3,27.3,42.5L27.3,42.5z"/>
		<path class="st4" d="M16.4,50.4c-0.1,0-0.2,0-0.2-0.1C16,50.2,16,50,16,49.8l3.2-7.5c0.2-1.1,0.2-2.2-0.1-3.3l-3.9-15
			c-1.5-5.7,1.9-11.5,7.7-13.2l12.5-3.7c3.8-1.1,7.9-0.4,11.1,2c3.1,2.3,4.8,5.7,4.8,9.4l0.1,13.5c0,3.7-2.7,6.9-6.4,7.6l-19.2,3.7
			l-9.2,6.9C16.6,50.3,16.5,50.4,16.4,50.4z M23,11.1l0.1,0.2c-5.5,1.6-8.8,7.2-7.3,12.6l3.9,15c0.3,1.1,0.3,2.4,0.1,3.5l0,0
			l-3.1,7.2l9-6.8l0.1,0L45,39.2c3.5-0.7,6-3.7,6-7.1l-0.1-13.5c0-3.6-1.7-6.9-4.6-9.1c-3.1-2.3-7-3-10.7-1.9l-12.5,3.7L23,11.1z"/>
		<path class="st5" d="M48.4,33.3c-0.4,0.1-0.9,0.1-1.3,0.1c-8.1,0.8-16.2,1.6-24.4,2.3c-1.1,0.1-2.3,0.2-3.4,0
			c-1.1-0.2-2.2-0.8-2.6-1.7c-0.2-0.5-0.3-1.1-0.3-1.6c-0.2-1.7-0.4-3.4-0.8-5.1c-0.4-1.5-0.8-3.1,0-4.5c1.2-2.2,4.9-2.9,7.2-3.4
			c1-0.2,2.1-0.5,3.1-0.7c2-0.4,4.1-0.9,6.1-1.3c4.1-0.9,8.1-1.8,12.2-2.7c1.1-0.2,2.2-0.5,3.3-0.4c1.1,0,2.2,0.4,2.9,1.2
			c0.7,0.7,0.8,1.8,1,2.7c0.5,3.3,1,6.6,1.5,10c0.1,1,0.3,2-0.1,2.9c-0.4,0.9-1.4,1.6-2.4,2C49.7,33.1,49,33.2,48.4,33.3z"/>
		<g>
			<g>
				<path class="st4" d="M26.4,21.8c0.5,0,0.8,0.2,1,0.6c0,0.1,0,0.2,0,0.3v0.7c0,1.5,0,3.9-0.1,7.4c0,0.3-0.2,0.5-0.6,0.5
					c-0.4,0-0.6-0.2-0.6-0.5c0-0.1-0.1-1.2-0.2-3.2c-2-0.1-3.1-0.1-3.4-0.1c0,0,0,0,0,0c0.1,1.6,0.1,2.6,0.1,3
					c0,0.4-0.2,0.6-0.7,0.6c-0.5,0-0.7-0.4-0.7-1.1c-0.1-1.4-0.2-3.8-0.3-7.5c0-0.2,0.1-0.3,0.4-0.3c0.6,0.1,1,0.3,1,0.7
					c0,0.6,0.1,1.3,0.1,2V26c2.1,0.1,3.3,0.1,3.6,0.1l0-0.1v-3.8C26,21.9,26.1,21.8,26.4,21.8z"/>
				<path class="st4" d="M31.7,24.5h0.2c1.4,0,2.4,0.5,3,1.6c0.2,0.4,0.3,0.9,0.3,1.3v0.3c0,0.4,0,0.6-0.1,0.6L30.2,28l0,0.1
					c0,0.6,0.4,1.1,1.1,1.5c0.3,0.1,0.6,0.1,1.1,0.1c0.4,0,1.1-0.1,2.1-0.3c0.4,0,0.6,0.3,0.7,0.8c0,0.5-0.6,0.8-1.7,0.9h-0.6
					c-1.9,0-3.2-0.6-3.7-1.8c-0.2-0.4-0.3-1-0.3-1.7c0-1.7,0.7-2.8,2.2-3.1C31.3,24.5,31.5,24.5,31.7,24.5z M30.7,26.6L30.7,26.6
					c0.9,0.2,1.9,0.3,3,0.3h0.2v0c-0.1-0.3-0.3-0.6-0.6-0.8c-0.3-0.2-0.7-0.3-1.2-0.3H32C31.3,25.8,30.9,26.1,30.7,26.6z"/>
				<path class="st4" d="M36.4,21.8c0.7,0,1.1,0.3,1.2,0.7c0.1,0.6,0.1,1.7,0.1,3.2v2.5c0,2,0,2.9-0.1,2.9l-0.2,0H37
					c-0.4,0-0.6-0.1-0.6-0.4c-0.2-2.2-0.3-4.7-0.3-7.5C36.2,22.3,36.2,21.8,36.4,21.8L36.4,21.8z"/>
				<path class="st4" d="M39,21.8c0.7,0,1.1,0.3,1.2,0.7c0.1,0.6,0.1,1.7,0.1,3.2v2.5c0,2,0,2.9-0.1,2.9l-0.2,0h-0.3
					c-0.4,0-0.6-0.1-0.6-0.4c-0.2-2.2-0.3-4.7-0.3-7.5C38.7,22.3,38.8,21.8,39,21.8L39,21.8z"/>
				<path class="st4" d="M44.6,24.5c0.9,0,1.7,0.6,2.5,1.9c0.3,0.6,0.5,1.1,0.5,1.6v0.4c0,1.3-0.8,2.1-2.3,2.6
					c-0.4,0.1-0.8,0.2-1.1,0.2h-0.6c-1,0-1.7-0.8-2.1-2.5c-0.1-0.4-0.1-0.8-0.1-1.2c0-0.9,0.7-1.8,2.1-2.7
					C43.9,24.6,44.3,24.5,44.6,24.5z M42.6,27.8c0,0.8,0.4,1.4,1.1,1.8c0.2,0.1,0.3,0.1,0.5,0.1h0.1c0.7,0,1.2-0.3,1.7-0.9
					c0.1-0.2,0.1-0.3,0.1-0.4v-0.2c0-0.7-0.3-1.3-0.8-1.8c-0.2-0.2-0.5-0.2-0.7-0.2h-0.3c-0.7,0-1.2,0.4-1.6,1.1
					C42.7,27.4,42.6,27.6,42.6,27.8z"/>
			</g>
		</g>
		<g>
			<polygon class="st6" points="54.3,3.2 56.3,4.5 52.1,7.9 			"/>
			<polygon class="st6" points="51.1,2.4 53,2.9 50.7,6.5 			"/>
			<polygon class="st6" points="56.7,5.5 57.1,6.2 55.5,6.8 			"/>
		</g>
	</g>
	<g>
		<g>
			<path class="st4" d="M3.5,57.5c0.6,0,1.1,0.3,1.6,0.9c0.4,0.5,0.6,1.1,0.6,1.7v0.4c0,1-0.5,1.7-1.6,2.1c-0.3,0.1-0.5,0.1-0.7,0.1
				H3.2c-0.5,0-1-0.3-1.6-1c-0.3-0.4-0.4-0.9-0.4-1.6c0-0.9,0.3-1.7,1-2.3C2.6,57.6,3,57.5,3.5,57.5z M2,60.3c0,0.7,0.3,1.2,0.9,1.5
				c0.1,0.1,0.3,0.1,0.5,0.1c0.5,0,0.9-0.2,1.2-0.5c0.1-0.2,0.2-0.4,0.2-0.7v-0.2c0-0.8-0.3-1.5-0.8-1.9c-0.2-0.1-0.4-0.2-0.6-0.2
				c-0.7,0-1.2,0.4-1.4,1.2C2,59.8,2,60,2,60.3z"/>
			<path class="st4" d="M6.6,58.6C7,58.6,7.2,58.8,7.2,59c0,0.1,0,0.1,0,0.1c0.4,0,0.6,0,0.7,0c0.6,0,1.1,0.2,1.6,0.7
				c0.2,0.3,0.3,0.9,0.3,1.8V62c0,0.4-0.1,0.6-0.3,0.7c0,0-0.1,0.1-0.2,0.1c-0.3,0-0.4-0.1-0.4-0.2C8.9,62,9,61.5,9,61.1
				c0-0.5-0.1-0.8-0.3-0.9C8.4,60,8,59.9,7.6,59.9H7.6c-0.1,0-0.2,0-0.3,0c0,0.3,0,0.8,0,1.6c0,0.7-0.1,1-0.2,1l-0.2,0H6.9
				c-0.2,0-0.4-0.2-0.4-0.6c-0.1-0.5-0.1-1.1-0.1-1.9v-0.6C6.4,58.9,6.5,58.6,6.6,58.6L6.6,58.6z"/>
			<path class="st4" d="M10.6,57.5c0.4,0,0.6,0.2,0.7,0.4c0,0.3,0,0.9,0,1.8v1.4c0,1.1,0,1.7-0.1,1.7l-0.1,0h-0.2
				c-0.2,0-0.3-0.1-0.3-0.2c-0.1-1.2-0.1-2.6-0.1-4.2C10.4,57.8,10.5,57.5,10.6,57.5L10.6,57.5z"/>
			<path class="st4" d="M12.2,58.2L12.2,58.2c0.4,0,0.6,0.1,0.7,0.4l0,0.1c0,0.2-0.1,0.3-0.3,0.3c-0.5,0-0.7-0.2-0.7-0.5
				C11.9,58.3,12,58.2,12.2,58.2z M12.3,59.5c0.2,0,0.4,0.1,0.5,0.2c0.1,0.5,0.1,1.2,0.1,2.2v0.7c0,0.1-0.1,0.2-0.2,0.2h-0.1
				c-0.3-0.1-0.5-0.1-0.5-0.2c-0.1-0.6-0.1-1.3-0.1-2.1v-0.4C12.1,59.7,12.1,59.5,12.3,59.5L12.3,59.5z"/>
			<path class="st4" d="M13.8,58.6c0.4,0.1,0.6,0.2,0.6,0.4c0,0.1,0,0.1,0,0.1c0.4,0,0.6,0,0.7,0c0.6,0,1.1,0.2,1.6,0.7
				c0.2,0.3,0.3,0.9,0.3,1.8V62c0,0.4-0.1,0.6-0.3,0.7c0,0-0.1,0.1-0.2,0.1c-0.3,0-0.4-0.1-0.4-0.2c0.1-0.5,0.2-1,0.2-1.5
				c0-0.5-0.1-0.8-0.3-0.9c-0.4-0.2-0.7-0.3-1.1-0.3h-0.1c-0.1,0-0.2,0-0.3,0c0,0.3,0,0.8,0,1.6c0,0.7-0.1,1-0.2,1l-0.2,0h-0.1
				c-0.2,0-0.4-0.2-0.4-0.6c-0.1-0.5-0.1-1.1-0.1-1.9v-0.6C13.6,58.9,13.6,58.6,13.8,58.6L13.8,58.6z"/>
			<path class="st4" d="M19.2,59h0.1c0.8,0,1.4,0.3,1.7,0.9c0.1,0.2,0.2,0.5,0.2,0.7v0.2c0,0.2,0,0.3-0.1,0.3L18.3,61l0,0
				c0,0.4,0.2,0.6,0.6,0.8c0.2,0.1,0.4,0.1,0.6,0.1c0.2,0,0.6,0,1.2-0.1c0.2,0,0.4,0.2,0.4,0.5c0,0.3-0.3,0.5-0.9,0.5h-0.4
				c-1.1,0-1.8-0.3-2.1-1c-0.1-0.3-0.2-0.6-0.2-1c0-1,0.4-1.6,1.3-1.7C19,59,19.1,59,19.2,59z M18.6,60.2L18.6,60.2
				c0.5,0.1,1.1,0.2,1.7,0.2h0.1v0c-0.1-0.2-0.2-0.3-0.4-0.4c-0.2-0.1-0.4-0.2-0.7-0.2h-0.1C19,59.7,18.7,59.9,18.6,60.2z"/>
			<path class="st4" d="M25.4,59h0.1c0.8,0,1.4,0.3,1.7,0.9c0.1,0.2,0.2,0.5,0.2,0.7v0.2c0,0.2,0,0.3-0.1,0.3L24.5,61l0,0
				c0,0.4,0.2,0.6,0.6,0.8c0.2,0.1,0.4,0.1,0.6,0.1c0.2,0,0.6,0,1.2-0.1c0.2,0,0.4,0.2,0.4,0.5c0,0.3-0.3,0.5-0.9,0.5H26
				c-1.1,0-1.8-0.3-2.1-1c-0.1-0.3-0.2-0.6-0.2-1c0-1,0.4-1.6,1.3-1.7C25.2,59,25.3,59,25.4,59z M24.8,60.2L24.8,60.2
				c0.5,0.1,1.1,0.2,1.7,0.2h0.1v0c-0.1-0.2-0.2-0.3-0.4-0.4c-0.2-0.1-0.4-0.2-0.7-0.2h-0.1C25.2,59.7,25,59.9,24.8,60.2z"/>
			<path class="st4" d="M28.1,58.6c0.4,0.1,0.6,0.2,0.6,0.4c0,0.1,0,0.1,0,0.1c0.4,0,0.6,0,0.7,0c0.6,0,1.1,0.2,1.6,0.7
				c0.2,0.3,0.3,0.9,0.3,1.8V62c0,0.4-0.1,0.6-0.3,0.7c0,0-0.1,0.1-0.2,0.1c-0.3,0-0.4-0.1-0.4-0.2c0.1-0.5,0.2-1,0.2-1.5
				c0-0.5-0.1-0.8-0.3-0.9c-0.4-0.2-0.7-0.3-1.1-0.3H29c-0.1,0-0.2,0-0.3,0c0,0.3,0,0.8,0,1.6c0,0.7-0.1,1-0.2,1l-0.2,0h-0.1
				c-0.2,0-0.4-0.2-0.4-0.6c-0.1-0.5-0.1-1.1-0.1-1.9v-0.6C27.9,58.9,27.9,58.6,28.1,58.6L28.1,58.6z"/>
			<path class="st4" d="M34.3,58.9L34.3,58.9c0.3,0,0.4,0.2,0.4,0.5c0.1,1.3,0.1,2.4,0.1,3.2V63c0,0.5-0.3,0.9-0.9,1.1
				c-0.2,0-0.3,0.1-0.4,0.1c-0.4,0-0.9-0.2-1.6-0.6l-0.1-0.1v0c0-0.2,0.1-0.4,0.2-0.5h0l0.7,0.4c0.1,0,0.3,0.1,0.4,0.1h0.2
				c0.5-0.1,0.7-0.3,0.7-0.7v-0.5c0,0,0,0,0,0c-0.1,0-0.2,0-0.4,0h-0.2c-0.7,0-1.2-0.4-1.4-1.1c0-0.2-0.1-0.3-0.1-0.4v0
				c0-0.5,0.4-1,1.2-1.4c0.2-0.1,0.5-0.1,0.8-0.1C34,59,34.1,58.9,34.3,58.9z M32.7,60.8v0.3c0.1,0.3,0.4,0.4,0.9,0.4
				c0.3,0,0.5-0.1,0.5-0.1c0-0.1,0-0.6-0.1-1.4h-0.2c-0.6,0-1,0.2-1.1,0.6C32.7,60.7,32.7,60.7,32.7,60.8z"/>
			<path class="st4" d="M35.6,57.5c0.4,0,0.6,0.2,0.7,0.4c0,0.3,0,0.9,0,1.8v1.4c0,1.1,0,1.7-0.1,1.7l-0.1,0h-0.2
				c-0.2,0-0.3-0.1-0.3-0.2c-0.1-1.2-0.1-2.6-0.1-4.2C35.4,57.8,35.5,57.5,35.6,57.5L35.6,57.5z"/>
			<path class="st4" d="M37.2,58.2L37.2,58.2c0.4,0,0.6,0.1,0.7,0.4l0,0.1c0,0.2-0.1,0.3-0.3,0.3c-0.5,0-0.7-0.2-0.7-0.5
				C36.9,58.3,37,58.2,37.2,58.2z M37.3,59.5c0.2,0,0.4,0.1,0.5,0.2c0.1,0.5,0.1,1.2,0.1,2.2v0.7c0,0.1-0.1,0.2-0.2,0.2h-0.1
				c-0.3-0.1-0.5-0.1-0.5-0.2c-0.1-0.6-0.1-1.3-0.1-2.1v-0.4C37.1,59.7,37.2,59.5,37.3,59.5L37.3,59.5z"/>
			<path class="st4" d="M40.2,58.9c0.3,0,0.6,0.1,1,0.2c0.1,0,0.1,0.2,0.2,0.5c0,0.1,0,0.1-0.1,0.1c-0.5-0.1-0.8-0.2-1-0.2h-0.1
				c-0.2,0-0.4,0.2-0.5,0.5v0.1c0,0.2,0.2,0.3,0.7,0.3c0.2,0,0.5,0.1,0.8,0.4c0.2,0.2,0.3,0.5,0.3,0.8v0c0,0.5-0.3,0.8-0.8,1
				c-0.3,0.1-0.5,0.1-0.6,0.1c-0.9-0.1-1.3-0.2-1.3-0.4c0,0,0-0.1,0-0.2c0-0.3,0.1-0.4,0.2-0.4c0.7,0.1,1.1,0.2,1.2,0.2h0.2
				c0.4,0,0.6-0.2,0.6-0.4c0-0.3-0.3-0.4-0.8-0.4c-0.5,0-0.9-0.2-1.2-0.6c0-0.2-0.1-0.3-0.1-0.3c0-0.6,0.3-1.1,1-1.3
				C39.9,58.9,40,58.9,40.2,58.9z"/>
			<path class="st4" d="M42.3,57.5L42.3,57.5c0.3,0,0.5,0.2,0.5,0.4l0.1,2.1c0.1,0,0.2,0,0.3,0h0c0.7,0,1.2,0.3,1.5,0.9
				c0.3,0.6,0.4,1.1,0.4,1.6v0.1c0,0.1-0.1,0.2-0.2,0.2h-0.1c-0.3,0-0.4-0.1-0.4-0.4c-0.1-0.6-0.1-1-0.2-1.1
				c-0.1-0.3-0.3-0.4-0.8-0.4c-0.3,0-0.4,0.1-0.4,0.4v0.1c0,0.1,0,0.4,0,1c0,0.3-0.1,0.5-0.3,0.5c-0.3,0-0.4-0.2-0.4-0.4
				c-0.1-1.6-0.2-3-0.2-4.2c0-0.5,0-0.7,0.1-0.7L42.3,57.5z"/>
			<path class="st4" d="M49.3,58.9c0.3,0,0.6,0.1,1,0.2c0.1,0,0.1,0.2,0.2,0.5c0,0.1,0,0.1-0.1,0.1c-0.5-0.1-0.8-0.2-1-0.2h-0.1
				c-0.2,0-0.4,0.2-0.5,0.5v0.1c0,0.2,0.2,0.3,0.7,0.3c0.2,0,0.5,0.1,0.8,0.4c0.2,0.2,0.3,0.5,0.3,0.8v0c0,0.5-0.3,0.8-0.8,1
				c-0.3,0.1-0.5,0.1-0.6,0.1c-0.9-0.1-1.3-0.2-1.3-0.4c0,0,0-0.1,0-0.2c0-0.3,0.1-0.4,0.2-0.4c0.7,0.1,1.1,0.2,1.2,0.2h0.2
				c0.4,0,0.6-0.2,0.6-0.4c0-0.3-0.3-0.4-0.8-0.4c-0.5,0-0.9-0.2-1.2-0.6c0-0.2-0.1-0.3-0.1-0.3c0-0.6,0.3-1.1,1-1.3
				C49,58.9,49.1,58.9,49.3,58.9z"/>
			<path class="st4" d="M53.7,59c0.4,0,0.6,0.1,0.6,0.2c0.1,0.1,0.2,0.3,0.2,0.4c0,0.1,0,0.2-0.1,0.2c-0.4,0-0.6,0-0.8,0
				c-0.6,0-1.1,0.3-1.4,0.8C52,60.7,52,60.9,52,61v0.1c0,0.3,0.2,0.5,0.7,0.7c0.1,0,0.2,0,0.3,0h0.1c0.2,0,0.6-0.1,1.1-0.3h0
				c0.2,0,0.3,0.2,0.4,0.6c0,0.2-0.4,0.4-1.1,0.6c-0.1,0-0.2,0-0.3,0H53c-0.4,0-0.9-0.1-1.3-0.4c-0.3-0.3-0.4-0.6-0.5-0.9
				c0-0.1,0-0.3,0-0.4c0-0.6,0.4-1.2,1.1-1.7C52.6,59.1,53.1,59,53.7,59z"/>
			<path class="st4" d="M55.5,57.5L55.5,57.5c0.3,0,0.5,0.2,0.5,0.4l0.1,2.1c0.1,0,0.2,0,0.3,0h0c0.7,0,1.2,0.3,1.5,0.9
				c0.3,0.6,0.4,1.1,0.4,1.6v0.1c0,0.1-0.1,0.2-0.2,0.2H58c-0.3,0-0.4-0.1-0.4-0.4c-0.1-0.6-0.1-1-0.2-1.1c-0.1-0.3-0.3-0.4-0.8-0.4
				c-0.3,0-0.4,0.1-0.4,0.4v0.1c0,0.1,0,0.4,0,1c0,0.3-0.1,0.5-0.3,0.5c-0.3,0-0.4-0.2-0.4-0.4c-0.1-1.6-0.2-3-0.2-4.2
				c0-0.5,0-0.7,0.1-0.7L55.5,57.5z"/>
			<path class="st4" d="M60.7,59c0.5,0,0.9,0.3,1.4,1c0.2,0.3,0.3,0.6,0.3,0.9v0.2c0,0.7-0.4,1.2-1.3,1.5c-0.2,0.1-0.4,0.1-0.6,0.1
				h-0.4c-0.6,0-1-0.5-1.2-1.4c0-0.2-0.1-0.5-0.1-0.7c0-0.5,0.4-1,1.2-1.5C60.3,59,60.5,59,60.7,59z M59.6,60.9c0,0.5,0.2,0.8,0.6,1
				c0.1,0,0.2,0.1,0.3,0.1h0c0.4,0,0.7-0.2,1-0.5c0-0.1,0.1-0.2,0.1-0.2V61c0-0.4-0.1-0.7-0.4-1c-0.1-0.1-0.3-0.1-0.4-0.1h-0.2
				c-0.4,0-0.7,0.2-0.9,0.6C59.6,60.6,59.6,60.8,59.6,60.9z"/>
			<path class="st4" d="M64.8,59c0.5,0,0.9,0.3,1.4,1c0.2,0.3,0.3,0.6,0.3,0.9v0.2c0,0.7-0.4,1.2-1.3,1.5c-0.2,0.1-0.4,0.1-0.6,0.1
				h-0.4c-0.6,0-1-0.5-1.2-1.4c0-0.2-0.1-0.5-0.1-0.7c0-0.5,0.4-1,1.2-1.5C64.5,59,64.7,59,64.8,59z M63.7,60.9c0,0.5,0.2,0.8,0.6,1
				c0.1,0,0.2,0.1,0.3,0.1h0c0.4,0,0.7-0.2,1-0.5c0-0.1,0.1-0.2,0.1-0.2V61c0-0.4-0.1-0.7-0.4-1c-0.1-0.1-0.3-0.1-0.4-0.1h-0.2
				c-0.4,0-0.7,0.2-0.9,0.6C63.8,60.6,63.7,60.8,63.7,60.9z"/>
			<path class="st4" d="M67.3,57.5c0.4,0,0.6,0.2,0.7,0.4c0,0.3,0,0.9,0,1.8v1.4c0,1.1,0,1.7-0.1,1.7l-0.1,0h-0.2
				c-0.2,0-0.3-0.1-0.3-0.2c-0.1-1.2-0.1-2.6-0.1-4.2C67.2,57.8,67.2,57.5,67.3,57.5L67.3,57.5z"/>
		</g>
	</g>
</g>
</svg>
