<?xml version="1.0" encoding="utf-8"?>
<!-- Generator: Adobe Illustrator 24.1.3, SVG Export Plug-In . SVG Version: 6.00 Build 0)  -->
<svg version="1.1" id="Layer_1" xmlns="http://www.w3.org/2000/svg" xmlns:xlink="http://www.w3.org/1999/xlink" x="0px" y="0px"
	 viewBox="0 0 468.5 37" style="enable-background:new 0 0 468.5 37;" xml:space="preserve">
<style type="text/css">
	.st0{display:none;}
	.st1{display:inline;opacity:0.4;}
	.st2{fill:#92F7FF;}
	.st3{display:inline;}
	.st4{fill:#222630;}
</style>
<g id="BGD">
</g>
<g id="Hero">
</g>
<g id="Slogan">
</g>
<g id="Services">
</g>
<g id="Clients">
</g>
<g id="Proposal">
</g>
<g id="Diver_Shop">
</g>
<g id="Guides_1_" class="st0">
	<g id="Grid" class="st1">
		<rect x="849.7" y="-2068" class="st2" width="76" height="6963"/>
		<rect x="752.2" y="-2068" class="st2" width="76" height="6963"/>
		<rect x="947.1" y="-2068" class="st2" width="76" height="6963"/>
		<rect x="1239.5" y="-2068" class="st2" width="76" height="6963"/>
		<rect x="1044.6" y="-2068" class="st2" width="76" height="6963"/>
		<rect x="1142" y="-2068" class="st2" width="76" height="6963"/>
		<rect x="1336.9" y="-2068" class="st2" width="76" height="6963"/>
		<rect x="1434.4" y="-2068" class="st2" width="76" height="6963"/>
		<rect x="1531.8" y="-2068" class="st2" width="76" height="6963"/>
		<rect x="1629.3" y="-2068" class="st2" width="76" height="6963"/>
		<rect x="1726.7" y="-2068" class="st2" width="76" height="6963"/>
		<rect x="1824.2" y="-2068" class="st2" width="76" height="6963"/>
	</g>
	<g id="Guides" class="st3">
	</g>
</g>
<g>
	<g>
		<path class="st4" d="M10.9,9.1c-3.7-0.8-4.3-1.6-4.3-3v0c0-1.5,1.4-2.5,3.3-2.5c1.7,0,3.2,0.6,4.7,1.8l0.2,0.1L16,3.7l-0.2-0.1
			c-1.8-1.5-3.6-2.1-6-2.1c-3.3,0-5.7,2-5.7,4.7v0c0,3.1,2.3,4.2,5.7,5c3.5,0.7,4.1,1.6,4.1,2.9v0c0,1.5-1.4,2.6-3.5,2.6
			c-2.1,0-3.7-0.7-5.5-2.3L5,14.4l-1.4,1.7l0.1,0.1c2.1,1.8,4.3,2.7,6.9,2.7c3.5,0,5.9-2,5.9-4.9v0C16.5,11.4,14.8,10,10.9,9.1z"/>
		<polygon class="st4" points="34.3,11.2 43.3,11.2 43.3,9.1 34.3,9.1 34.3,3.9 44.4,3.9 44.4,1.7 32,1.7 32,18.7 44.5,18.7 
			44.5,16.6 34.3,16.6 		"/>
		<path class="st4" d="M73.9,6.9L73.9,6.9c0-1.4-0.5-2.6-1.3-3.5c-1.1-1.1-2.8-1.7-4.9-1.7h-7.3v17h2.3v-6.4H67l4.8,6.4h2.8
			l-5.1-6.8C72.2,11.3,73.9,9.4,73.9,6.9z M62.6,10.2V3.9h4.9c2.5,0,4,1.1,4,3.1v0c0,1.9-1.6,3.2-4.1,3.2H62.6z"/>
		<path class="st4" d="M95.7,11.6h5v3.8c-1.2,1-2.9,1.6-4.6,1.6c-3.8,0-6.4-2.7-6.4-6.7v0c0-3.7,2.7-6.6,6.1-6.6
			c2.5,0,3.8,0.9,4.9,1.8l0.2,0.1l1.5-1.7l-0.2-0.1c-1.9-1.6-3.7-2.3-6.3-2.3c-4.8,0-8.5,3.9-8.5,8.8v0c0,5.1,3.6,8.7,8.6,8.7
			c3.4,0,5.7-1.6,6.8-2.6l0.1-0.1V9.5h-7.3V11.6z"/>
		<polygon class="st4" points="120.7,11.2 129.7,11.2 129.7,9.1 120.7,9.1 120.7,3.9 130.8,3.9 130.8,1.7 118.4,1.7 118.4,18.7 
			130.9,18.7 130.9,16.6 120.7,16.6 		"/>
		<polygon class="st4" points="166.7,3.9 172.2,3.9 172.2,18.7 174.5,18.7 174.5,3.9 180.1,3.9 180.1,1.7 166.7,1.7 		"/>
		<path class="st4" d="M197.7,1.6L190,18.7h2.4l2-4.4h8.8l1.9,4.4h2.5l-7.7-17.1C199.8,1.6,197.7,1.6,197.7,1.6z M195.3,12.3
			l3.5-7.8l3.4,7.8H195.3z"/>
		<path class="st4" d="M227,11.6h5v3.8c-1.2,1-2.9,1.6-4.6,1.6c-3.8,0-6.4-2.7-6.4-6.7v0c0-3.7,2.7-6.6,6.1-6.6
			c2.5,0,3.8,0.9,4.9,1.8l0.2,0.1l1.5-1.7l-0.2-0.1c-1.9-1.6-3.7-2.3-6.3-2.3c-4.8,0-8.5,3.9-8.5,8.8v0c0,5.1,3.6,8.7,8.6,8.7
			c3.4,0,5.7-1.6,6.8-2.6l0.1-0.1V9.5H227V11.6z"/>
		<polygon class="st4" points="250.8,1.7 248.6,1.7 248.6,18.7 260.2,18.7 260.2,16.6 250.8,16.6 		"/>
		<rect x="273.8" y="1.7" class="st4" width="2.3" height="17"/>
		<path class="st4" d="M297.2,1.6l-7.7,17.1h2.4l2-4.4h8.8l1.9,4.4h2.5l-7.7-17.1C299.3,1.6,297.2,1.6,297.2,1.6z M294.8,12.3
			l3.5-7.8l3.5,7.8H294.8z"/>
		<path class="st4" d="M331.4,9.9c1.1-0.6,2.3-1.7,2.3-3.8v0c0-1.1-0.4-2-1.1-2.8c-1-1-2.6-1.5-4.5-1.5h-7.3v17h7.6
			c3.8,0,6.2-1.8,6.2-4.7v0C334.6,12,333.5,10.7,331.4,9.9z M323.1,3.8h4.8c2.2,0,3.5,0.9,3.5,2.5v0c0,1.7-1.3,2.8-3.6,2.8h-4.7V3.8
			z M332.3,13.9c0,1.7-1.4,2.8-3.9,2.8h-5.4v-5.4h5C330.8,11.2,332.3,12.1,332.3,13.9L332.3,13.9L332.3,13.9z"/>
		<path class="st4" d="M365,10.1c0-4.9-3.7-8.7-8.6-8.7c-4.9,0-8.7,3.9-8.7,8.8v0c0,5,3.7,8.7,8.6,8.7c4.8,0,8.6-3.8,8.7-8.7l0,0
			L365,10.1L365,10.1z M362.6,10.3c0,3.8-2.7,6.6-6.3,6.6c-3.6,0-6.3-2.9-6.3-6.6v0c0-3.8,2.7-6.6,6.3-6.6
			C359.8,3.6,362.6,6.5,362.6,10.3L362.6,10.3z"/>
		<path class="st4" d="M385.5,9.1c-3.7-0.8-4.3-1.6-4.3-3v0c0-1.5,1.4-2.5,3.3-2.5c1.7,0,3.2,0.6,4.7,1.8l0.2,0.1l1.3-1.8l-0.2-0.1
			c-1.8-1.5-3.6-2.1-6-2.1c-3.3,0-5.7,2-5.7,4.7v0c0,3.1,2.3,4.2,5.7,5c3.5,0.7,4.1,1.6,4.1,2.9v0c0,1.5-1.4,2.6-3.5,2.6
			c-2.1,0-3.7-0.7-5.5-2.3l-0.2-0.1l-1.4,1.7l0.1,0.1c2.1,1.8,4.3,2.7,6.9,2.7c3.5,0,5.9-2,5.9-4.9v0C391.1,11.4,389.4,10,385.5,9.1
			z"/>
		<path class="st4" d="M418.3,14.5c-1.5,1.4-2.9,2.3-5.2,2.3c-3.5,0-6.2-2.9-6.2-6.6v0c0-3.8,2.7-6.6,6.2-6.6c1.9,0,3.4,0.7,5.1,2.2
			l0.2,0.1l1.6-1.7l-0.1-0.1c-1.5-1.4-3.3-2.7-6.6-2.7c-4.8,0-8.6,3.9-8.6,8.8v0c0,5,3.7,8.7,8.5,8.7c3.4,0,5.3-1.5,6.8-3l0.1-0.1
			l-1.5-1.5L418.3,14.5z"/>
		<polygon class="st4" points="445,9.1 435.9,9.1 435.9,1.7 433.6,1.7 433.6,18.7 435.9,18.7 435.9,11.3 445,11.3 445,18.7 
			447.3,18.7 447.3,1.7 445,1.7 		"/>
		<rect x="462.7" y="1.7" class="st4" width="2.3" height="17"/>
	</g>
	<g>
		<path class="st4" d="M91.5,30.1l2.5,5.3h-0.6l-0.8-1.7h-2.3l-0.8,1.7h-0.6l2.5-5.3H91.5z M91.5,31.3l-0.9,1.9h1.8L91.5,31.3z"/>
		<path class="st4" d="M100.7,30.1h1.1c0.6,0,1,0,1.2,0.1c0.3,0.1,0.6,0.2,0.8,0.5c0.2,0.2,0.3,0.5,0.3,0.9c0,0.3-0.1,0.5-0.2,0.8
			c-0.1,0.2-0.3,0.4-0.6,0.5c-0.2,0.1-0.6,0.2-1,0.2l1.9,2.4h-0.7l-1.9-2.4h-0.3v2.4h-0.5L100.7,30.1L100.7,30.1z M101.2,30.7v1.8
			l0.9,0c0.4,0,0.6,0,0.8-0.1c0.2-0.1,0.3-0.2,0.4-0.3c0.1-0.1,0.1-0.3,0.1-0.5c0-0.2,0-0.3-0.1-0.5c-0.1-0.1-0.2-0.2-0.4-0.3
			c-0.2-0.1-0.4-0.1-0.8-0.1L101.2,30.7L101.2,30.7z"/>
		<path class="st4" d="M115.9,31.1l-0.4,0.3c-0.2-0.3-0.5-0.5-0.8-0.7c-0.3-0.2-0.7-0.2-1.1-0.2c-0.4,0-0.8,0.1-1.2,0.3
			c-0.4,0.2-0.6,0.5-0.8,0.8c-0.2,0.3-0.3,0.7-0.3,1.1c0,0.6,0.2,1.2,0.7,1.6c0.4,0.4,1,0.6,1.7,0.6c0.7,0,1.4-0.3,1.9-0.9l0.4,0.3
			c-0.3,0.3-0.6,0.6-1,0.8c-0.4,0.2-0.8,0.3-1.3,0.3c-0.9,0-1.6-0.3-2.2-0.9c-0.4-0.5-0.7-1.1-0.7-1.9c0-0.8,0.3-1.4,0.8-1.9
			c0.5-0.5,1.2-0.8,2-0.8c0.5,0,0.9,0.1,1.3,0.3C115.3,30.5,115.7,30.8,115.9,31.1z"/>
		<path class="st4" d="M122.8,30.1h0.5v2.2h2.7v-2.2h0.5v5.3H126v-2.5h-2.7v2.5h-0.5V30.1z"/>
		<path class="st4" d="M133.6,30.1h0.5v5.3h-0.5V30.1z"/>
		<path class="st4" d="M140.7,30.7v-0.5h2.9v0.5h-1.2v4.8h-0.5v-4.8H140.7z"/>
		<path class="st4" d="M150.3,30.1h3v0.5h-2.5v1.7h2.5v0.5h-2.5v2.1h2.5v0.5h-3V30.1z"/>
		<path class="st4" d="M165,31.1l-0.4,0.3c-0.2-0.3-0.5-0.5-0.8-0.7c-0.3-0.2-0.7-0.2-1.1-0.2c-0.4,0-0.8,0.1-1.2,0.3
			s-0.6,0.5-0.8,0.8c-0.2,0.3-0.3,0.7-0.3,1.1c0,0.6,0.2,1.2,0.7,1.6c0.4,0.4,1,0.6,1.7,0.6c0.7,0,1.4-0.3,1.9-0.9l0.4,0.3
			c-0.3,0.3-0.6,0.6-1,0.8c-0.4,0.2-0.8,0.3-1.3,0.3c-0.9,0-1.6-0.3-2.2-0.9c-0.4-0.5-0.7-1.1-0.7-1.9c0-0.8,0.3-1.4,0.8-1.9
			c0.5-0.5,1.2-0.8,2-0.8c0.5,0,0.9,0.1,1.3,0.3C164.4,30.5,164.7,30.8,165,31.1z"/>
		<path class="st4" d="M171.4,30.7v-0.5h2.9v0.5h-1.2v4.8h-0.5v-4.8H171.4z"/>
		<path class="st4" d="M180.9,30.1h0.5v3.2c0,0.4,0,0.6,0,0.7c0,0.2,0.1,0.4,0.2,0.5c0.1,0.1,0.2,0.3,0.4,0.4
			c0.2,0.1,0.4,0.1,0.6,0.1c0.2,0,0.3,0,0.5-0.1c0.2-0.1,0.3-0.2,0.4-0.3c0.1-0.1,0.2-0.3,0.2-0.5c0-0.1,0.1-0.4,0.1-0.8v-3.2h0.5
			v3.2c0,0.5,0,0.9-0.1,1.1s-0.3,0.5-0.6,0.8c-0.3,0.2-0.6,0.3-1,0.3c-0.4,0-0.8-0.1-1.1-0.3c-0.3-0.2-0.5-0.5-0.6-0.8
			c-0.1-0.2-0.1-0.6-0.1-1.1L180.9,30.1L180.9,30.1z"/>
		<path class="st4" d="M191.6,30.1h1.1c0.6,0,1,0,1.2,0.1c0.3,0.1,0.6,0.2,0.8,0.5c0.2,0.2,0.3,0.5,0.3,0.9c0,0.3-0.1,0.5-0.2,0.8
			c-0.1,0.2-0.3,0.4-0.6,0.5c-0.2,0.1-0.6,0.2-1,0.2l1.9,2.4h-0.7l-1.9-2.4h-0.3v2.4h-0.5L191.6,30.1L191.6,30.1z M192.1,30.7v1.8
			l0.9,0c0.4,0,0.6,0,0.8-0.1c0.2-0.1,0.3-0.2,0.4-0.3c0.1-0.1,0.1-0.3,0.1-0.5c0-0.2,0-0.3-0.1-0.5c-0.1-0.1-0.2-0.2-0.4-0.3
			c-0.2-0.1-0.4-0.1-0.8-0.1L192.1,30.7L192.1,30.7z"/>
		<path class="st4" d="M201.9,30.1h3v0.5h-2.5v1.7h2.5v0.5h-2.5v2.1h2.5v0.5h-3V30.1z"/>
		<path class="st4" d="M223.6,33.5l0.4,0.4c-0.2,0.2-0.4,0.4-0.7,0.5c0.1,0.1,0.3,0.3,0.6,0.5c0.2,0.2,0.3,0.3,0.5,0.5h-0.7
			l-0.7-0.7c-0.4,0.4-0.8,0.6-1.1,0.7c-0.3,0.1-0.6,0.2-0.9,0.2c-0.4,0-0.7-0.1-1-0.3c-0.2-0.2-0.4-0.5-0.4-0.9
			c0-0.3,0.1-0.5,0.2-0.8c0.2-0.3,0.5-0.6,1-1c-0.3-0.3-0.5-0.6-0.6-0.8c-0.1-0.2-0.1-0.3-0.1-0.5c0-0.3,0.1-0.5,0.3-0.7
			c0.2-0.2,0.5-0.3,0.9-0.3c0.2,0,0.4,0,0.6,0.1c0.2,0.1,0.3,0.2,0.4,0.4c0.1,0.2,0.1,0.3,0.1,0.5c0,0.2-0.1,0.4-0.2,0.6
			c-0.1,0.2-0.4,0.5-0.7,0.8l0.8,0.8L223,34C223.2,33.8,223.5,33.6,223.6,33.5z M221.2,32.9c-0.4,0.3-0.7,0.6-0.9,0.8
			s-0.2,0.4-0.2,0.6c0,0.2,0.1,0.4,0.3,0.5c0.2,0.2,0.4,0.2,0.6,0.2c0.2,0,0.4,0,0.6-0.1c0.3-0.1,0.6-0.3,1-0.6l-0.8-0.9
			C221.6,33.3,221.4,33.1,221.2,32.9z M221.3,32.2c0.3-0.2,0.4-0.4,0.6-0.6c0.1-0.1,0.1-0.3,0.1-0.4c0-0.1-0.1-0.2-0.2-0.3
			c-0.1-0.1-0.3-0.1-0.5-0.1c-0.2,0-0.3,0-0.5,0.1c-0.1,0.1-0.2,0.2-0.2,0.3c0,0.1,0,0.2,0.1,0.3C220.9,31.8,221.1,32,221.3,32.2z"
			/>
		<path class="st4" d="M238.9,30.1h0.5v5.3h-0.5V30.1z"/>
		<path class="st4" d="M246.5,35.4v-5.3h0.1l3.5,4v-4h0.5v5.3h-0.1l-3.5-4v4H246.5z"/>
		<path class="st4" d="M257.3,30.7v-0.5h2.9v0.5H259v4.8h-0.5v-4.8H257.3z"/>
		<path class="st4" d="M266.8,30.1h3v0.5h-2.5v1.7h2.5v0.5h-2.5v2.1h2.5v0.5h-3V30.1z"/>
		<path class="st4" d="M276.6,30.1h1.1c0.6,0,1,0,1.2,0.1c0.3,0.1,0.6,0.2,0.8,0.5c0.2,0.2,0.3,0.5,0.3,0.9c0,0.3-0.1,0.5-0.2,0.8
			s-0.3,0.4-0.6,0.5c-0.2,0.1-0.6,0.2-1,0.2l1.9,2.4h-0.7l-1.9-2.4h-0.3v2.4h-0.5L276.6,30.1L276.6,30.1z M277.2,30.7v1.8l0.9,0
			c0.4,0,0.6,0,0.8-0.1c0.2-0.1,0.3-0.2,0.4-0.3c0.1-0.1,0.1-0.3,0.1-0.5c0-0.2,0-0.3-0.1-0.5s-0.2-0.2-0.4-0.3
			c-0.2-0.1-0.4-0.1-0.8-0.1L277.2,30.7L277.2,30.7z"/>
		<path class="st4" d="M286.9,30.1h0.5v5.3h-0.5V30.1z"/>
		<path class="st4" d="M297,30c0.8,0,1.5,0.3,2,0.8c0.5,0.5,0.8,1.2,0.8,2c0,0.8-0.3,1.4-0.8,2c-0.5,0.5-1.2,0.8-2,0.8
			c-0.8,0-1.4-0.3-2-0.8s-0.8-1.2-0.8-1.9c0-0.5,0.1-1,0.4-1.4c0.2-0.4,0.6-0.8,1-1S296.5,30,297,30z M297,30.5
			c-0.4,0-0.8,0.1-1.1,0.3s-0.6,0.5-0.8,0.8c-0.2,0.3-0.3,0.7-0.3,1.1c0,0.6,0.2,1.2,0.7,1.6c0.4,0.4,1,0.6,1.6,0.6
			c0.4,0,0.8-0.1,1.1-0.3c0.3-0.2,0.6-0.5,0.8-0.8c0.2-0.3,0.3-0.7,0.3-1.1c0-0.4-0.1-0.8-0.3-1.1s-0.5-0.6-0.8-0.8
			C297.8,30.6,297.4,30.5,297,30.5z"/>
		<path class="st4" d="M306.7,30.1h1.1c0.6,0,1,0,1.2,0.1c0.3,0.1,0.6,0.2,0.8,0.5c0.2,0.2,0.3,0.5,0.3,0.9c0,0.3-0.1,0.5-0.2,0.8
			s-0.3,0.4-0.6,0.5c-0.2,0.1-0.6,0.2-1,0.2l1.9,2.4h-0.7l-1.9-2.4h-0.3v2.4h-0.5L306.7,30.1L306.7,30.1z M307.3,30.7v1.8l0.9,0
			c0.4,0,0.6,0,0.8-0.1c0.2-0.1,0.3-0.2,0.4-0.3c0.1-0.1,0.1-0.3,0.1-0.5c0-0.2,0-0.3-0.1-0.5c-0.1-0.1-0.2-0.2-0.4-0.3
			c-0.2-0.1-0.4-0.1-0.8-0.1L307.3,30.7L307.3,30.7z"/>
		<path class="st4" d="M324.9,35.4v-5.3h1.1c0.8,0,1.4,0.1,1.7,0.2c0.5,0.2,0.9,0.5,1.2,0.9c0.3,0.4,0.4,1,0.4,1.6
			c0,0.5-0.1,1-0.3,1.4c-0.2,0.4-0.5,0.7-0.9,0.9c-0.4,0.2-0.9,0.3-1.5,0.3L324.9,35.4L324.9,35.4z M325.5,34.9h0.6
			c0.7,0,1.2,0,1.5-0.1c0.4-0.1,0.7-0.4,0.9-0.7c0.2-0.3,0.3-0.7,0.3-1.2c0-0.5-0.1-0.9-0.4-1.3c-0.2-0.4-0.6-0.6-1-0.7
			c-0.3-0.1-0.9-0.2-1.6-0.2h-0.4L325.5,34.9L325.5,34.9z"/>
		<path class="st4" d="M336.3,30.1h3v0.5h-2.5v1.7h2.5v0.5h-2.5v2.1h2.5v0.5h-3V30.1z"/>
		<path class="st4" d="M345.6,34.4l0.4-0.3c0.3,0.6,0.7,0.9,1.1,0.9c0.2,0,0.3,0,0.5-0.1c0.2-0.1,0.3-0.2,0.4-0.3
			c0.1-0.1,0.1-0.3,0.1-0.4c0-0.2-0.1-0.3-0.2-0.5c-0.2-0.2-0.5-0.5-0.9-0.8c-0.4-0.3-0.7-0.6-0.8-0.7c-0.2-0.2-0.3-0.5-0.3-0.8
			c0-0.2,0.1-0.4,0.2-0.6c0.1-0.2,0.3-0.3,0.5-0.4s0.4-0.2,0.7-0.2c0.2,0,0.5,0.1,0.7,0.2c0.2,0.1,0.4,0.3,0.7,0.7l-0.4,0.3
			c-0.2-0.3-0.4-0.4-0.5-0.5c-0.1-0.1-0.3-0.1-0.5-0.1c-0.2,0-0.4,0.1-0.5,0.2c-0.1,0.1-0.2,0.3-0.2,0.5c0,0.1,0,0.2,0.1,0.3
			s0.1,0.2,0.3,0.4c0.1,0.1,0.3,0.2,0.7,0.5c0.5,0.3,0.8,0.6,0.9,0.9c0.2,0.3,0.3,0.5,0.3,0.8c0,0.4-0.1,0.7-0.4,1
			c-0.3,0.3-0.6,0.4-1.1,0.4c-0.3,0-0.6-0.1-0.9-0.3C346,35.1,345.8,34.8,345.6,34.4z"/>
		<path class="st4" d="M355.5,30.1h0.5v5.3h-0.5V30.1z"/>
		<path class="st4" d="M368.2,31l-0.4,0.4c-0.3-0.3-0.6-0.5-1-0.7c-0.3-0.2-0.7-0.2-1-0.2c-0.4,0-0.8,0.1-1.2,0.3
			c-0.4,0.2-0.7,0.5-0.9,0.8s-0.3,0.7-0.3,1.1c0,0.4,0.1,0.8,0.3,1.1c0.2,0.4,0.5,0.6,0.9,0.8c0.4,0.2,0.8,0.3,1.2,0.3
			c0.5,0,1-0.2,1.4-0.5c0.4-0.3,0.6-0.7,0.7-1.2h-1.7v-0.5h2.3c0,0.8-0.2,1.5-0.7,1.9c-0.5,0.5-1.1,0.7-1.9,0.7c-1,0-1.7-0.3-2.3-1
			c-0.4-0.5-0.7-1.1-0.7-1.8c0-0.5,0.1-1,0.4-1.4c0.2-0.4,0.6-0.8,1-1c0.4-0.2,0.9-0.4,1.5-0.4c0.4,0,0.9,0.1,1.3,0.2
			C367.5,30.4,367.9,30.7,368.2,31z"/>
		<path class="st4" d="M375.4,35.4v-5.3h0.1l3.5,4v-4h0.5v5.3h-0.1l-3.5-4v4H375.4z"/>
	</g>
</g>
</svg>
