<?xml version="1.0" encoding="utf-8"?>
<!-- Generator: Adobe Illustrator 24.1.3, SVG Export Plug-In . SVG Version: 6.00 Build 0)  -->
<svg version="1.1" id="Layer_1" xmlns="http://www.w3.org/2000/svg" xmlns:xlink="http://www.w3.org/1999/xlink" x="0px" y="0px"
	 viewBox="0 0 704 194" style="enable-background:new 0 0 704 194;" xml:space="preserve">
<style type="text/css">
	.st0{fill:#2B0707;}
</style>
<g>
	<path class="st0" d="M57.36,66.03c4.12-1.83,7.29-4.53,9.51-8.11c2.22-3.58,3.33-7.72,3.33-12.44c0-5.66-1.61-10.43-4.83-14.3
		c-3.22-3.87-7.4-6.4-12.54-7.58c-3.42-0.79-9.93-1.18-19.55-1.18H16.01v86.63h8.66V68.83h4.9l31.16,40.22h10.71L40.28,68.83
		C47.54,68.79,53.23,67.86,57.36,66.03z M24.67,60.35V30.9h15.28c5.94,0,10.19,0.51,12.74,1.53c2.56,1.02,4.62,2.72,6.19,5.09
		c1.57,2.38,2.36,5.02,2.36,7.92c0,2.99-0.78,5.68-2.33,8.1c-1.55,2.42-3.72,4.17-6.49,5.27c-2.77,1.1-7.05,1.65-12.83,1.65
		L24.67,60.35z"/>
	<polygon class="st0" points="88.81,109.05 138.1,109.05 138.1,100.57 97.46,100.57 97.46,66.53 138.1,66.53 138.1,58.05 
		97.46,58.05 97.46,30.9 138.45,30.9 138.45,22.42 88.81,22.42 	"/>
	<polygon class="st0" points="213.01,88.83 155.36,22.42 153.47,22.42 153.47,109.05 162.42,109.05 162.42,43.45 219.61,109.05 
		221.55,109.05 221.55,22.42 213.01,22.42 	"/>
	<path class="st0" d="M330.09,65.71c0-12.8-4.42-23.58-13.26-32.33c-8.84-8.75-19.82-13.13-32.94-13.13
		c-8.09,0-15.62,2.01-22.57,6.04c-6.95,4.02-12.44,9.59-16.47,16.7c-4.03,7.11-6.04,14.82-6.04,23.15
		c0,12.49,4.42,23.13,13.26,31.92c8.84,8.8,19.68,13.19,32.53,13.19c12.69,0,23.44-4.42,32.26-13.25S330.09,78.39,330.09,65.71z
		 M302.94,97.92c-5.72,3.26-11.95,4.89-18.67,4.89c-10.07,0-18.67-3.54-25.81-10.64c-7.14-7.09-10.71-15.79-10.71-26.08
		c0-6.95,1.61-13.26,4.84-18.92c3.22-5.66,7.71-10.16,13.45-13.5c5.74-3.34,11.82-5.01,18.23-5.01c6.53,0,12.7,1.67,18.52,5.01
		c5.82,3.34,10.33,7.79,13.54,13.35c3.21,5.56,4.81,11.78,4.81,18.65c0,6.92-1.6,13.2-4.81,18.86
		C313.13,90.2,308.67,94.66,302.94,97.92z"/>
	<polygon class="st0" points="379.92,109.05 417.61,22.42 408.19,22.42 379.01,89.35 350.3,22.42 340.87,22.42 378.04,109.05 	"/>
	<path class="st0" d="M486.77,94.32l4.41-4l4.46-4.06l-9.82-11.25c-5.15,4.4-8.35,7.07-9.6,8.01c-2.04-2.04-6.58-7.2-13.61-15.49
		c6.01-5.93,9.84-10.4,11.51-13.43c1.67-3.02,2.5-6.18,2.5-9.48c0-4.2-1.82-8.36-5.45-12.49c-3.63-4.12-8.84-6.18-15.64-6.18
		c-6.71,0-11.92,2.08-15.61,6.24c-3.69,4.16-5.54,8.38-5.54,12.66c0,5.77,2.79,12.41,8.36,19.91c-5.64,4.36-9.62,8.58-11.94,12.66
		c-2.33,4.08-3.49,8.42-3.49,13.02c0,6.09,2.05,11.07,6.15,14.96s9.47,5.83,16.11,5.83c7.81,0,16.27-2.69,25.38-8.07l5.71,5.89
		h19.99L486.77,94.32z M451.85,42.56c1.04-1.06,2.31-1.59,3.8-1.59c1.61,0,2.91,0.47,3.89,1.41c0.98,0.94,1.47,2.16,1.47,3.65
		c0,2.87-2.18,6.16-6.54,9.89c-2.79-3.61-4.18-6.83-4.18-9.66C450.29,44.86,450.81,43.62,451.85,42.56z M451.17,96.33
		c-2.43,0-4.44-0.71-6.03-2.12s-2.38-2.96-2.38-4.65c0-3.61,2.91-7.83,8.72-12.66c5.51,6.89,9.78,11.83,12.82,14.81
		C459.03,94.79,454.66,96.33,451.17,96.33z"/>
	<path class="st0" d="M555.18,111.23c7.3,0,13.8-1.21,19.49-3.62c5.69-2.42,11.74-6.75,18.14-12.99l-11.18-11.67
		c-4.75,4.72-9.1,7.97-13.06,9.76c-3.96,1.79-8.34,2.68-13.12,2.68c-5.61,0-10.71-1.28-15.3-3.83c-4.59-2.55-8.14-6.07-10.65-10.55
		c-2.51-4.48-3.77-9.61-3.77-15.39c0-8.29,2.83-15.27,8.5-20.93c5.67-5.66,12.64-8.49,20.92-8.49c9.81,0,18.63,4.15,26.48,12.44
		l11.53-11c-4.79-5.57-10.49-9.86-17.11-12.88c-6.62-3.02-13.5-4.53-20.64-4.53c-8.4,0-16.25,2.04-23.53,6.13
		c-7.28,4.08-12.88,9.48-16.78,16.2c-3.91,6.71-5.86,14.39-5.86,23.03c0,13.35,4.29,24.29,12.87,32.83
		C530.69,106.96,541.71,111.23,555.18,111.23z"/>
	<path class="st0" d="M680.12,33.55c-8.82-8.87-19.36-13.31-31.62-13.31c-8.09,0-15.65,2.03-22.66,6.1
		c-7.01,4.06-12.52,9.57-16.53,16.52c-4.01,6.95-6.01,14.57-6.01,22.85c0,12.37,4.3,23.05,12.91,32.04
		c8.6,8.99,19.41,13.49,32.41,13.49c12.41,0,22.97-4.38,31.68-13.13c8.7-8.76,13.05-19.45,13.05-32.1
		C693.35,53.24,688.94,42.42,680.12,33.55z M668.6,86.79c-5.5,5.65-12.17,8.48-19.99,8.48c-6.92,0-13.05-2.18-18.39-6.54
		c-6.88-5.57-10.32-13.15-10.32-22.73c0-8.6,2.73-15.69,8.19-21.26c5.46-5.57,12.2-8.36,20.22-8.36c7.94,0,14.68,2.86,20.22,8.57
		c5.54,5.71,8.31,12.69,8.31,20.94C676.86,74.17,674.11,81.14,668.6,86.79z"/>
	<polygon class="st0" points="76.72,172.38 98.29,172.38 98.29,168.67 80.51,168.67 80.51,153.77 98.29,153.77 98.29,150.06 
		80.51,150.06 80.51,138.18 98.44,138.18 98.44,134.47 76.72,134.47 	"/>
	<polygon class="st0" points="131.06,163.53 105.84,134.47 105.01,134.47 105.01,172.38 108.93,172.38 108.93,143.67 133.95,172.38 
		134.8,172.38 134.8,134.47 131.06,134.47 	"/>
	<polygon class="st0" points="140.26,138.18 148.71,138.18 148.71,172.38 152.58,172.38 152.58,138.18 161.03,138.18 161.03,134.47 
		140.26,134.47 	"/>
	<path class="st0" d="M184.78,153.55c1.8-0.8,3.19-1.98,4.16-3.55c0.97-1.56,1.46-3.38,1.46-5.44c0-2.48-0.7-4.56-2.11-6.26
		c-1.41-1.69-3.24-2.8-5.49-3.31c-1.49-0.34-4.35-0.52-8.55-0.52h-7.55v37.9h3.79v-17.6h2.14l13.63,17.6h4.69l-13.63-17.6
		C180.49,154.76,182.98,154.35,184.78,153.55z M170.48,151.07v-12.88h6.68c2.6,0,4.46,0.22,5.57,0.67c1.12,0.45,2.02,1.19,2.71,2.23
		c0.69,1.04,1.03,2.19,1.03,3.47c0,1.31-0.34,2.49-1.02,3.54s-1.63,1.83-2.84,2.31c-1.21,0.48-3.08,0.72-5.61,0.72L170.48,151.07z"
		/>
	<polygon class="st0" points="198.54,172.38 220.11,172.38 220.11,168.67 202.33,168.67 202.33,153.77 220.11,153.77 220.11,150.06 
		202.33,150.06 202.33,138.18 220.26,138.18 220.26,134.47 198.54,134.47 	"/>
	<path class="st0" d="M243.09,135.04c-1.51-0.38-4.43-0.57-8.76-0.57h-7.55v37.9h3.79v-17.62h2.71c4.71,0,7.92-0.21,9.64-0.62
		c2.35-0.57,4.2-1.67,5.54-3.31c1.34-1.64,2.01-3.72,2.01-6.25c0-2.51-0.69-4.59-2.06-6.25
		C247.02,136.67,245.26,135.57,243.09,135.04z M245.51,148.12c-0.69,1.05-1.63,1.82-2.83,2.29s-3.1,0.71-5.69,0.71l-6.42-0.08
		v-12.86h6.7c2.56,0,4.4,0.22,5.53,0.67c1.13,0.45,2.03,1.2,2.72,2.25c0.69,1.05,1.03,2.22,1.03,3.48
		C246.54,145.89,246.2,147.07,245.51,148.12z"/>
	<path class="st0" d="M276.33,153.55c1.8-0.8,3.19-1.98,4.16-3.55c0.97-1.56,1.46-3.38,1.46-5.44c0-2.48-0.7-4.56-2.11-6.26
		c-1.41-1.69-3.24-2.8-5.49-3.31c-1.49-0.34-4.35-0.52-8.55-0.52h-7.55v37.9h3.79v-17.6h2.14l13.63,17.6h4.69l-13.63-17.6
		C272.04,154.76,274.53,154.35,276.33,153.55z M262.03,151.07v-12.88h6.68c2.6,0,4.46,0.22,5.57,0.67c1.12,0.45,2.02,1.19,2.71,2.23
		c0.69,1.04,1.03,2.19,1.03,3.47c0,1.31-0.34,2.49-1.02,3.54s-1.63,1.83-2.84,2.31c-1.21,0.48-3.08,0.72-5.61,0.72L262.03,151.07z"
		/>
	<rect x="289.52" y="134.47" class="st0" width="3.79" height="37.9"/>
	<path class="st0" d="M311.68,150.96c-2.77-2.04-4.4-3.31-4.9-3.79c-0.91-0.91-1.54-1.75-1.88-2.53c-0.34-0.77-0.52-1.57-0.52-2.4
		c0-1.36,0.49-2.5,1.46-3.43c0.97-0.93,2.22-1.39,3.75-1.39c1.19,0,2.28,0.3,3.29,0.9c1,0.6,2.22,1.85,3.65,3.74l3.09-2.34
		c-1.74-2.37-3.38-4-4.93-4.88s-3.23-1.33-5.01-1.33c-1.68,0-3.24,0.39-4.68,1.17c-1.43,0.78-2.55,1.85-3.34,3.21
		c-0.79,1.36-1.19,2.86-1.19,4.51c0,2.08,0.67,4.01,2.01,5.8c0.77,1.07,2.74,2.79,5.9,5.18c3.14,2.37,5.31,4.4,6.49,6.08
		c0.86,1.22,1.29,2.47,1.29,3.74c0,1.12-0.29,2.17-0.88,3.17c-0.58,1-1.43,1.79-2.55,2.38s-2.31,0.89-3.58,0.89
		c-2.97,0-5.59-2.09-7.86-6.26l-3.22,1.93c1.58,2.89,3.31,4.94,5.18,6.17c1.87,1.23,3.96,1.84,6.26,1.84c2.99,0,5.53-1.01,7.61-3.04
		c2.09-2.03,3.13-4.42,3.13-7.16c0-1.91-0.61-3.8-1.83-5.69S314.96,153.39,311.68,150.96z"/>
	<polygon class="st0" points="328.3,172.38 349.87,172.38 349.87,168.67 332.09,168.67 332.09,153.77 349.87,153.77 349.87,150.06 
		332.09,150.06 332.09,138.18 350.02,138.18 350.02,134.47 328.3,134.47 	"/>
	<path class="st0" d="M393.65,157.87h12.08c-0.5,3.5-2.1,6.36-4.79,8.55c-2.7,2.2-6,3.3-9.89,3.3c-3.21,0-6.17-0.73-8.86-2.2
		c-2.7-1.47-4.81-3.49-6.34-6.06c-1.53-2.57-2.29-5.28-2.29-8.13c0-2.78,0.74-5.42,2.22-7.92c1.48-2.5,3.56-4.48,6.25-5.94
		c2.69-1.46,5.52-2.19,8.49-2.19c2.39,0,4.84,0.54,7.36,1.61c2.52,1.07,4.83,2.65,6.94,4.73l2.94-2.78c-2.7-2.56-5.46-4.42-8.3-5.58
		c-2.83-1.16-5.86-1.74-9.07-1.74c-3.97,0-7.52,0.87-10.67,2.62c-3.14,1.74-5.62,4.16-7.42,7.25c-1.8,3.09-2.71,6.43-2.71,10.02
		c0,4.83,1.57,9.08,4.71,12.75c4.09,4.78,9.64,7.16,16.65,7.16c5.77,0,10.38-1.72,13.82-5.17c3.44-3.44,5.18-8.09,5.22-13.95h-16.34
		V157.87z"/>
	<polygon class="st0" points="417.23,172.38 438.79,172.38 438.79,168.67 421.01,168.67 421.01,153.77 438.79,153.77 438.79,150.06 
		421.01,150.06 421.01,138.18 438.95,138.18 438.95,134.47 417.23,134.47 	"/>
	<polygon class="st0" points="471.57,163.53 446.34,134.47 445.52,134.47 445.52,172.38 449.43,172.38 449.43,143.67 474.45,172.38 
		475.3,172.38 475.3,134.47 471.57,134.47 	"/>
	<polygon class="st0" points="484.55,172.38 506.12,172.38 506.12,168.67 488.34,168.67 488.34,153.77 506.12,153.77 506.12,150.06 
		488.34,150.06 488.34,138.18 506.27,138.18 506.27,134.47 484.55,134.47 	"/>
	<path class="st0" d="M531.11,153.55c1.8-0.8,3.19-1.98,4.16-3.55c0.97-1.56,1.46-3.38,1.46-5.44c0-2.48-0.71-4.56-2.11-6.26
		c-1.41-1.69-3.24-2.8-5.49-3.31c-1.49-0.34-4.35-0.52-8.55-0.52h-7.55v37.9h3.79v-17.6h2.14l13.63,17.6h4.69l-13.63-17.6
		C526.82,154.76,529.31,154.35,531.11,153.55z M516.81,151.07v-12.88h6.68c2.6,0,4.46,0.22,5.57,0.67c1.12,0.45,2.02,1.19,2.71,2.23
		s1.03,2.19,1.03,3.47c0,1.31-0.34,2.49-1.02,3.54s-1.63,1.83-2.84,2.31c-1.21,0.48-3.08,0.72-5.61,0.72L516.81,151.07z"/>
	<path class="st0" d="M559.4,134.47l-17.91,37.9h4.23l5.9-12.47h16.33l5.96,12.47h4.09l-17.68-37.9H559.4z M553.36,156.25
		l6.49-13.72l6.46,13.72H553.36z"/>
	<polygon class="st0" points="587.67,134.47 583.88,134.47 583.88,172.38 602.25,172.38 602.25,168.72 587.67,168.72 	"/>
	<polygon class="st0" points="608.28,172.38 629.85,172.38 629.85,168.67 612.07,168.67 612.07,153.77 629.85,153.77 629.85,150.06 
		612.07,150.06 612.07,138.18 630,138.18 630,134.47 608.28,134.47 	"/>
</g>
</svg>
