<?xml version="1.0" encoding="utf-8"?>
<!-- Generator: Adobe Illustrator 24.1.3, SVG Export Plug-In . SVG Version: 6.00 Build 0)  -->
<svg version="1.1" id="Layer_1" xmlns="http://www.w3.org/2000/svg" xmlns:xlink="http://www.w3.org/1999/xlink" x="0px" y="0px"
	 viewBox="0 0 59.3 65.9" style="enable-background:new 0 0 59.3 65.9;" xml:space="preserve">
<style type="text/css">
	.st0{display:none;}
	.st1{display:inline;opacity:0.4;}
	.st2{fill:#92F7FF;}
	.st3{display:inline;}
	.st4{fill:#003136;}
	.st5{fill:none;stroke:#EBF5F4;stroke-miterlimit:10;}
	.st6{enable-background:new    ;}
</style>
<g id="BGD">
</g>
<g id="Hero">
</g>
<g id="Slogan">
</g>
<g id="Services">
</g>
<g id="Clients">
</g>
<g id="Proposal">
</g>
<g id="Diver_Shop">
</g>
<g id="Guides_1_" class="st0">
	<g id="Grid" class="st1">
		<rect x="645.1" y="-2053.6" class="st2" width="76" height="6963"/>
		<rect x="547.6" y="-2053.6" class="st2" width="76" height="6963"/>
		<rect x="742.5" y="-2053.6" class="st2" width="76" height="6963"/>
		<rect x="1034.9" y="-2053.6" class="st2" width="76" height="6963"/>
		<rect x="840" y="-2053.6" class="st2" width="76" height="6963"/>
		<rect x="937.4" y="-2053.6" class="st2" width="76" height="6963"/>
		<rect x="1132.3" y="-2053.6" class="st2" width="76" height="6963"/>
		<rect x="1229.8" y="-2053.6" class="st2" width="76" height="6963"/>
		<rect x="1327.2" y="-2053.6" class="st2" width="76" height="6963"/>
		<rect x="1424.7" y="-2053.6" class="st2" width="76" height="6963"/>
		<rect x="1522.1" y="-2053.6" class="st2" width="76" height="6963"/>
		<rect x="1619.6" y="-2053.6" class="st2" width="76" height="6963"/>
	</g>
	<g id="Guides" class="st3">
	</g>
</g>
<g>
	<g>
		<g>
			<path class="st4" d="M16.3,10.4l-0.1-0.1c0.3-0.4,0.6-0.7,1-1c0.3-0.3,0.6-0.6,0.9-0.9c0.3-0.3,0.7-0.6,1-0.8
				c0.1,0,0.1-0.1,0.2-0.1c0,0,0.1-0.1,0.2-0.1c0,0,0.1-0.1,0.2-0.1c1.2-0.9,2.6-1.7,4-2.3c0.2-0.1,0.4-0.2,0.7-0.3
				c0.4-0.1,0.8-0.2,1.3-0.3l0,0l0,0l0,0c0.3-0.2,0.6-0.3,1-0.4c0.5-0.1,1-0.2,1.5-0.3c0.1,0,0.3,0,0.4-0.1c0.1,0,0.2,0,0.3,0
				c0.1,0,0.2,0,0.3,0c0.1,0,0.2,0,0.3,0l0,0c0.1,0,0.2,0,0.3,0c0.1,0,0.2,0,0.3,0c0.2,0,0.4,0,0.7,0c0.1,0,0.1,0,0.2,0s0.1,0,0.2,0
				s0.2,0,0.3,0c0.1,0,0.3,0,0.4,0l0,0c0.2,0,0.3,0,0.5,0c0.1,0,0.2,0,0.3,0s0.2,0,0.3,0s0.2,0,0.3,0s0.2,0,0.3,0
				c0.3,0,0.6,0.1,0.9,0.1c0.1,0,0.2,0,0.3,0s0.2,0,0.3,0.1c0.1,0,0.1,0,0.2,0l0,0c0.1,0,0.2,0,0.3,0.1c-0.1,0-0.1,0-0.2,0
				c2.5,0.5,4.8,1.5,6.9,2.8c0.1,0,0.1,0.1,0.2,0.1c0,0,0,0,0.1,0c0.2,0.2,0.5,0.3,0.7,0.5l0,0c0.1,0.1,0.2,0.1,0.2,0.2
				c0.1,0.1,0.2,0.2,0.4,0.3L44,7.9L44.1,8l0,0l0,0l0,0l0.1,0.1c0,0,0.1,0,0.1,0.1c0,0,0,0,0.1,0.1l0,0l0.1,0.1l0,0l0,0l0,0l0.1,0.1
				l0.1,0.1c0.2,0.2,0.4,0.4,0.7,0.6c0.2,0.2,0.4,0.4,0.6,0.6c0.1,0.1,0.1,0.1,0.2,0.2c0.1,0.1,0.1,0.1,0.2,0.2
				c0.1,0.1,0.1,0.2,0.2,0.2c0.1,0.1,0.1,0.2,0.2,0.2c0.1,0.1,0.1,0.1,0.2,0.2l0.1,0.1c0,0.1,0.1,0.1,0.1,0.2
				c0.1,0.1,0.1,0.2,0.2,0.3c0,0.1,0.1,0.1,0.1,0.2c0.1,0.1,0.1,0.2,0.2,0.3l-9.4,5.4c-0.1-0.1-0.2-0.3-0.4-0.4l-0.1-0.1l0,0
				c-0.1-0.1-0.1-0.1-0.2-0.2c-0.1-0.1-0.1-0.1-0.2-0.2c-0.2-0.2-0.4-0.3-0.6-0.5c-0.3-0.3-0.7-0.5-1.1-0.7c0,0-0.1,0-0.1-0.1
				c0,0,0,0-0.1,0c0,0,0,0-0.1,0C35.3,15,35.1,15,35,14.9h-0.1c-0.3-0.1-0.5-0.2-0.8-0.3s-0.6-0.2-1-0.3c-0.1,0-0.2,0-0.2,0
				c-0.1,0-0.1,0-0.2,0c-0.3,0-0.5-0.1-0.8-0.1c-0.2,0-0.3,0-0.5,0c-0.1,0-0.2,0-0.3,0c-0.1,0-0.1,0-0.2,0c-0.2,0-0.4,0-0.6,0
				c-0.1,0-0.2,0-0.3,0c-0.1,0-0.1,0-0.2,0c0,0,0,0-0.1,0h-0.1h-0.1l0,0c0,0,0,0-0.1,0c-0.3,0-0.6,0-0.9,0.1
				c-1.9,0.1-3.8,0.3-5.7-0.3C20.6,13.1,18.3,11.9,16.3,10.4z"/>
			<path class="st4" d="M12.8,16.2c-0.1,0-0.1,0-0.2,0c0.6-1.5,1.3-2.8,2.2-4.1c0.3-0.4,0.6-0.8,0.9-1.2c0.1-0.1,0.2-0.2,0.3-0.4
				l0.1,0.1c2,1.6,4.4,2.8,6.9,3.6c1.9,0.6,3.7,0.5,5.5,0.4l0,0l0,0l0,0h-0.1l0,0h-0.1l0,0l0,0l0,0c-0.9,0.3-2.1,0.6-3.1,0.9
				c-1,0.3-1.9,0.5-2.1,0.6C19.5,17,15.9,16.8,12.8,16.2z"/>
			<path class="st4" d="M27.5,31.8L27.5,31.8h-0.1c-0.1,0-0.2,0-0.3,0c-0.2,0-0.3,0-0.5-0.1c-0.1,0-0.2,0-0.3,0c-0.1,0-0.2,0-0.3,0
				c-0.1,0-0.1,0-0.2,0h-0.1c-0.2,0-0.3-0.1-0.5-0.1l0,0c-0.2,0-0.3-0.1-0.5-0.1c-0.8-0.2-1.6-0.4-2.4-0.7c-0.1,0-0.2-0.1-0.3-0.1
				c-0.6-0.2-1.2-0.5-1.7-0.8c-0.1-0.1-0.3-0.1-0.4-0.2c0,0-0.1,0-0.1-0.1c-0.1-0.1-0.3-0.1-0.4-0.2c-0.2-0.1-0.4-0.2-0.6-0.3
				c-0.1-0.1-0.2-0.1-0.3-0.2c0,0,0,0-0.1,0c-0.1-0.1-0.2-0.2-0.3-0.2c-0.1,0-0.1-0.1-0.2-0.1s-0.1-0.1-0.2-0.1
				c-0.1-0.1-0.2-0.1-0.3-0.2c-0.1,0-0.1-0.1-0.2-0.2S17.1,28,17,27.9s-0.2-0.1-0.2-0.2l-0.1-0.1c-0.1-0.1-0.2-0.1-0.3-0.2
				c-0.1-0.1-0.1-0.1-0.2-0.2S16.1,27.1,16,27c-0.1-0.1-0.1-0.1-0.2-0.2c-0.1-0.1-0.1-0.1-0.2-0.2c-0.1-0.1-0.2-0.1-0.2-0.2
				c-0.1-0.1-0.2-0.2-0.4-0.4c-0.1-0.1-0.2-0.2-0.3-0.4l0,0c-0.1-0.1-0.2-0.3-0.4-0.4c-0.3-0.3-0.5-0.6-0.7-0.9
				c-0.7-0.8-1.3-1.8-1.8-2.7c0-0.1-0.1-0.1-0.1-0.2l0,0l0,0c0-0.1-0.1-0.1-0.1-0.2l0,0c0.1-0.8,0.3-1.7,0.5-2.5
				c0.2-0.7,0.4-1.3,0.6-2c0.1,0,0.1,0,0.2,0c1.6,0.3,3.4,0.5,5.3,0.5c1.7,0,3.5-0.2,5.3-0.6c0.2,0,1-0.3,2.1-0.6
				c0.4-0.1,0.8-0.2,1.3-0.4c-0.1,0-0.1,0.1-0.2,0.1l0,0c-0.3,0.2-0.6,0.4-0.8,0.6c-0.1,0.1-0.1,0.1-0.2,0.2s-0.1,0.1-0.2,0.2l0,0
				c-0.1,0-0.1,0.1-0.2,0.2c0,0,0,0-0.1,0.1s-0.1,0.1-0.2,0.2l0,0c-0.1,0.1-0.1,0.1-0.2,0.2s-0.1,0.1-0.2,0.2l0,0
				c0,0.1-0.1,0.1-0.1,0.2c0,0,0,0,0,0.1c-0.2,0.3-0.4,0.6-0.6,0.9l0,0l0,0c0,0.1-0.1,0.2-0.1,0.2c0,0.1-0.1,0.1-0.1,0.2
				s-0.1,0.1-0.1,0.2s-0.1,0.1-0.1,0.2l0,0c0,0.1,0,0.1-0.1,0.2c0,0,0,0,0,0.1l0,0c0,0.1-0.1,0.2-0.1,0.2c0,0.1,0,0.1-0.1,0.2
				c-0.1,0.3-0.2,0.6-0.3,0.9c0,0.1,0,0.2-0.1,0.2v0.1v0.1c0,0.1,0,0.2-0.1,0.3c0,0.1,0,0.2,0,0.2l0,0c0,0.1,0,0.2,0,0.2
				s0,0.1,0,0.2v0.1v0.1l0,0l0,0v0.1v0.1c0,0,0,0,0,0.1s0,0.1,0,0.2s0,0.1,0,0.2s0,0.1,0,0.2l0,0v0.1v0.1c0,0,0,0,0,0.1s0,0.2,0,0.3
				v0.1v0.1v0.1c0,0.1,0,0.3,0.1,0.4l0,0c0,0.1,0,0.1,0,0.2s0,0.1,0,0.2s0,0.2,0.1,0.3c0,0.1,0,0.2,0.1,0.2c0,0.1,0,0.2,0.1,0.3v0.1
				c0,0.2,0.1,0.3,0.2,0.5c0,0.1,0,0.1,0.1,0.2c0,0.1,0.1,0.1,0.1,0.2s0,0.1,0.1,0.2c0,0.1,0.1,0.1,0.1,0.2c0,0,0,0.1,0.1,0.1
				c0,0.1,0.1,0.2,0.1,0.3c0.1,0.1,0.1,0.2,0.2,0.3c0.1,0.2,0.2,0.4,0.4,0.6l0,0v0.1l0.1,0.1c0,0,0,0,0,0.1c0,0,0,0,0,0.1
				c0,0,0,0,0,0.1l0.1,0.1l0.1,0.1c0.1,0.1,0.1,0.2,0.2,0.2l0,0c0,0,0,0,0.1,0.1l0,0l0.1,0.1c0,0.1,0.1,0.1,0.1,0.2c0,0,0,0,0.1,0.1
				l0,0l0,0l0.1,0.1l0.1,0.1l0.1,0.1l0,0l0,0c0.1,0,0.1,0.1,0.2,0.1c0.1,0.1,0.1,0.1,0.2,0.2l0.1,0.1c0.1,0,0.1,0.1,0.2,0.1
				c0,0,0.1,0,0.1,0.1l0.1,0.1l0,0c0,0,0.1,0,0.1,0.1c0.1,0,0.1,0.1,0.2,0.1l0.1,0.1c0.1,0,0.1,0.1,0.2,0.1S27.4,31.7,27.5,31.8
				L27.5,31.8C27.4,31.7,27.4,31.8,27.5,31.8L27.5,31.8L27.5,31.8L27.5,31.8z"/>
			<path class="st4" d="M28.5,32.2c-0.9,0-2.2-0.1-3.8-0.2l0,0c-3.5-0.3-8.3-0.9-12.1-2l0,0c0-0.1,0-0.1-0.1-0.2
				c0-0.1,0-0.1-0.1-0.2c0-0.1,0-0.1-0.1-0.2c-0.1-0.2-0.1-0.3-0.1-0.5v-0.1c0-0.2-0.1-0.3-0.1-0.5c0,0,0,0,0-0.1
				c0-0.2-0.1-0.4-0.1-0.5s0-0.2-0.1-0.3c-0.1-0.3-0.1-0.5-0.2-0.8c0-0.2-0.1-0.4-0.1-0.6s0-0.4-0.1-0.6c-0.1-0.7-0.1-1.5-0.1-2.2
				v-0.1l0,0c0-0.1,0-0.2,0-0.2c0-0.1,0-0.3,0-0.4v-0.1c0-0.1,0-0.3,0-0.4s0-0.2,0-0.4l0,0l0,0c0,0,0,0,0,0.1s0.1,0.1,0.1,0.2
				c0.1,0.2,0.2,0.4,0.4,0.6c0.1,0.1,0.1,0.2,0.2,0.3c0.1,0.1,0.2,0.3,0.3,0.4s0.1,0.2,0.2,0.2c0.2,0.3,0.4,0.5,0.6,0.8
				c0.1,0.2,0.3,0.4,0.4,0.5c0.2,0.2,0.3,0.4,0.5,0.5c0.2,0.2,0.3,0.3,0.5,0.5c0.1,0.1,0.2,0.2,0.3,0.3c0.6,0.6,1.3,1.2,1.9,1.7
				c0.1,0.1,0.2,0.2,0.3,0.3c0.1,0.1,0.2,0.2,0.3,0.2c0.1,0.1,0.3,0.2,0.4,0.3l0,0c0.1,0.1,0.3,0.2,0.4,0.3c0.2,0.1,0.5,0.3,0.7,0.4
				s0.3,0.2,0.5,0.3c0.1,0,0.2,0.1,0.2,0.1c0.2,0.1,0.4,0.2,0.7,0.3c0.6,0.3,1.2,0.6,1.8,0.8c0.2,0.1,0.3,0.1,0.5,0.2
				c0.1,0,0.2,0.1,0.4,0.1c0.1,0,0.1,0,0.2,0.1c0.3,0.1,0.7,0.2,1,0.3c0.2,0,0.3,0.1,0.5,0.1h0.1c0.2,0,0.3,0.1,0.5,0.1
				s0.3,0.1,0.5,0.1c0.1,0,0.2,0,0.3,0c0.3,0,0.5,0.1,0.8,0.1s0.6,0,0.9,0.1c0.1,0,0.1,0,0.2,0s0.2,0,0.2,0l0,0
				C28.4,32.2,28.5,32.2,28.5,32.2z"/>
			<path class="st4" d="M47.9,35c-3.8,5.3-9.9,8.5-16.4,8.5c-7.8,0-14.9-4.6-18.2-11.7c-0.2-0.4-0.4-0.9-0.6-1.4
				c3.7,1.1,7.5,1.5,11.4,1.9c1,0.1,2.1,0.2,3.1,0.2c2.2,0.1,4.4,0.5,6.5-0.1c1.9-0.5,3.5-1.5,4.8-2.9L47.9,35z"/>
			<path class="st4" d="M35.8,15.2C35.8,15.2,35.8,15.1,35.8,15.2C35.8,15.2,35.9,15.2,35.8,15.2C35.9,15.2,35.9,15.2,35.8,15.2z
				 M33.5,14.3c0.3,0.1,0.6,0.2,1,0.3C34.2,14.5,33.9,14.4,33.5,14.3z M37.1,16c0.2,0.1,0.4,0.3,0.6,0.5
				C37.5,16.3,37.3,16.1,37.1,16z M28.6,14.6C28.6,14.6,28.5,14.6,28.6,14.6L28.6,14.6C28.5,14.6,28.5,14.6,28.6,14.6L28.6,14.6
				c-0.1,0-0.1,0-0.1,0S28.5,14.6,28.6,14.6L28.6,14.6L28.6,14.6L28.6,14.6z M16,10.5l-0.1-0.1c-0.1,0.1-0.2,0.2-0.3,0.4
				c-0.3,0.4-0.6,0.8-0.9,1.2c-0.9,1.3-1.6,2.7-2.2,4.2c0.1,0,0.1,0,0.2,0c0.1,0,0.1,0,0.2,0c0.5-1.4,1.3-2.8,2.1-4
				c0.3-0.4,0.6-0.8,0.9-1.2c0.1-0.1,0.2-0.2,0.3-0.4C16.1,10.6,16,10.6,16,10.5z M11.6,21.8c0,0.1,0,0.2,0,0.4
				C11.5,22.1,11.5,21.9,11.6,21.8L11.6,21.8L11.6,21.8z M12.5,16.5c-0.1,0-0.1,0-0.2,0c-0.2,0.6-0.4,1.3-0.6,2
				c-0.2,0.7-0.3,1.5-0.4,2.3l0,0c0,0,0,0,0,0.1s0.1,0.1,0.1,0.2l0,0c0,0.1,0.1,0.1,0.1,0.2l0,0l0,0c0.1-0.9,0.3-1.8,0.5-2.7
				c0.2-0.7,0.4-1.3,0.6-2C12.7,16.5,12.6,16.5,12.5,16.5z M24.6,29.6L24.6,29.6L24.6,29.6L24.6,29.6C24.6,29.7,24.6,29.6,24.6,29.6
				z M25.6,4.3c-0.4,0.1-0.8,0.2-1.3,0.3c-0.2,0-0.5,0.1-0.7,0.1l0,0c-1.5,0.6-2.8,1.4-4.1,2.4c0,0-0.1,0-0.1,0.1c0,0,0,0-0.1,0
				l-0.1,0.1l0,0l-0.1,0.1c-0.3,0.3-0.7,0.5-1,0.8s-0.7,0.6-0.9,0.9c-0.3,0.3-0.7,0.7-1,1.1l0.1,0.1l0.1,0.1c0.3-0.4,0.6-0.7,1-1
				c0.3-0.3,0.6-0.6,0.9-0.9c0.3-0.3,0.7-0.6,1-0.8c0.1-0.1,0.2-0.1,0.2-0.2l0,0c0,0,0.1,0,0.1-0.1c0,0,0,0,0.1,0
				c0,0,0.1-0.1,0.2-0.1c1.2-0.9,2.6-1.7,4-2.3C24.3,4.7,24.9,4.5,25.6,4.3L25.6,4.3z"/>
		</g>
		<g>
			<path class="st4" d="M28.5,32.2c-0.9,0-2.2-0.1-3.8-0.2l0,0c-3.5-0.3-8.3-0.9-12.1-2l0,0c0-0.1,0-0.1-0.1-0.2
				c0-0.1,0-0.1-0.1-0.2c0-0.1,0-0.1-0.1-0.2c-0.1-0.2-0.1-0.3-0.1-0.5v-0.1c0-0.2-0.1-0.3-0.1-0.5c0,0,0,0,0-0.1
				c0-0.2-0.1-0.4-0.1-0.5s0-0.2-0.1-0.3c-0.1-0.3-0.1-0.5-0.2-0.8c0-0.2-0.1-0.4-0.1-0.6s0-0.4-0.1-0.6c-0.1-0.7-0.1-1.5-0.1-2.2
				v-0.1l0,0c0-0.1,0-0.2,0-0.2c0-0.1,0-0.3,0-0.4v-0.1c0-0.1,0-0.3,0-0.4s0-0.2,0-0.4l0,0l0,0c0,0,0,0,0,0.1s0.1,0.1,0.1,0.2
				c0.1,0.2,0.2,0.4,0.4,0.6c0.1,0.1,0.1,0.2,0.2,0.3c0.1,0.1,0.2,0.3,0.3,0.4s0.1,0.2,0.2,0.2c0.2,0.3,0.4,0.5,0.6,0.8
				c0.1,0.2,0.3,0.4,0.4,0.5c0.2,0.2,0.3,0.4,0.5,0.5c0.2,0.2,0.3,0.3,0.5,0.5c0.1,0.1,0.2,0.2,0.3,0.3c0.6,0.6,1.3,1.2,1.9,1.7
				c0.1,0.1,0.2,0.2,0.3,0.3c0.1,0.1,0.2,0.2,0.3,0.2c0.1,0.1,0.3,0.2,0.4,0.3l0,0c0.1,0.1,0.3,0.2,0.4,0.3c0.2,0.1,0.5,0.3,0.7,0.4
				s0.3,0.2,0.5,0.3c0.1,0,0.2,0.1,0.2,0.1c0.2,0.1,0.4,0.2,0.7,0.3c0.6,0.3,1.2,0.6,1.8,0.8c0.2,0.1,0.3,0.1,0.5,0.2
				c0.1,0,0.2,0.1,0.4,0.1c0.1,0,0.1,0,0.2,0.1c0.3,0.1,0.7,0.2,1,0.3c0.2,0,0.3,0.1,0.5,0.1h0.1c0.2,0,0.3,0.1,0.5,0.1
				s0.3,0.1,0.5,0.1c0.1,0,0.2,0,0.3,0c0.3,0,0.5,0.1,0.8,0.1s0.6,0,0.9,0.1c0.1,0,0.1,0,0.2,0s0.2,0,0.2,0l0,0
				C28.4,32.2,28.5,32.2,28.5,32.2z"/>
			<path class="st4" d="M27.5,31.8L27.5,31.8h-0.1C27.4,31.8,27.4,31.8,27.5,31.8L27.5,31.8L27.5,31.8z"/>
		</g>
		<path class="st4" d="M28.5,32.2c-0.9,0-2.2-0.1-3.8-0.2l0,0c-4.7-0.8-8.9-3.1-11.9-6.9c-0.4-0.6-0.9-1.2-1.3-1.8l0,0
			c0-0.1,0-0.2,0-0.2c0-0.1,0-0.3,0-0.4v-0.1c0-0.1,0-0.3,0-0.4s0-0.2,0-0.4l0,0l0,0c0,0,0,0,0,0.1s0.1,0.1,0.1,0.2
			c0.1,0.2,0.2,0.4,0.4,0.6c0.1,0.1,0.1,0.2,0.2,0.3c0.1,0.1,0.2,0.3,0.3,0.4s0.1,0.2,0.2,0.2c0.2,0.3,0.4,0.5,0.6,0.8
			c0.1,0.2,0.3,0.4,0.4,0.5c0.2,0.2,0.3,0.4,0.5,0.5c0.2,0.2,0.3,0.3,0.5,0.5c0.1,0.1,0.2,0.2,0.3,0.3c0.6,0.6,1.3,1.2,1.9,1.7
			c0.1,0.1,0.2,0.2,0.3,0.3c0.1,0.1,0.2,0.2,0.3,0.2c0.1,0.1,0.3,0.2,0.4,0.3l0,0c0.1,0.1,0.3,0.2,0.4,0.3c0.2,0.1,0.5,0.3,0.7,0.4
			s0.3,0.2,0.5,0.3c0.1,0,0.2,0.1,0.2,0.1c0.2,0.1,0.4,0.2,0.7,0.3c0.6,0.3,1.2,0.6,1.8,0.8c0.2,0.1,0.3,0.1,0.5,0.2
			c0.1,0,0.2,0.1,0.4,0.1c0.1,0,0.1,0,0.2,0.1c0.3,0.1,0.7,0.2,1,0.3c0.2,0,0.3,0.1,0.5,0.1h0.1c0.2,0,0.3,0.1,0.5,0.1
			s0.3,0.1,0.5,0.1c0.1,0,0.2,0,0.3,0c0.3,0,0.5,0.1,0.8,0.1s0.6,0,0.9,0.1c0.1,0,0.1,0,0.2,0s0.2,0,0.2,0l0,0
			C28.4,32.2,28.5,32.2,28.5,32.2z"/>
		<g>
			<path class="st4" d="M27.5,31.8L27.5,31.8h-0.1c-0.1,0-0.2,0-0.3,0c-0.2,0-0.3,0-0.5-0.1c-0.1,0-0.2,0-0.3,0c-0.1,0-0.2,0-0.3,0
				c-0.1,0-0.1,0-0.2,0h-0.1c-0.2,0-0.3-0.1-0.5-0.1l0,0c-0.2,0-0.3-0.1-0.5-0.1c-0.8-0.2-1.6-0.4-2.4-0.7c-0.1,0-0.2-0.1-0.3-0.1
				c-0.6-0.2-1.2-0.5-1.7-0.8c-0.1-0.1-0.3-0.1-0.4-0.2c0,0-0.1,0-0.1-0.1c-0.1-0.1-0.3-0.1-0.4-0.2c-0.2-0.1-0.4-0.2-0.6-0.3
				c-0.1-0.1-0.2-0.1-0.3-0.2c0,0,0,0-0.1,0c-0.1-0.1-0.2-0.2-0.3-0.2c-0.1,0-0.1-0.1-0.2-0.1s-0.1-0.1-0.2-0.1
				c-0.1-0.1-0.2-0.1-0.3-0.2c-0.1,0-0.1-0.1-0.2-0.2S17.1,28,17,27.9s-0.2-0.1-0.2-0.2l-0.1-0.1c-0.1-0.1-0.2-0.1-0.3-0.2
				c-0.1-0.1-0.1-0.1-0.2-0.2S16.1,27.1,16,27c-0.1-0.1-0.1-0.1-0.2-0.2c-0.1-0.1-0.1-0.1-0.2-0.2c-0.1-0.1-0.2-0.1-0.2-0.2
				c-0.1-0.1-0.2-0.2-0.4-0.4c-0.1-0.1-0.2-0.2-0.3-0.4l0,0c-0.1-0.1-0.2-0.3-0.4-0.4c-0.3-0.3-0.5-0.6-0.7-0.9
				c-0.7-0.8-1.3-1.8-1.8-2.7c0-0.1-0.1-0.1-0.1-0.2l0,0l0,0c0-0.1-0.1-0.1-0.1-0.2l0,0c0-0.1-0.1-0.1-0.1-0.2c0,0,0,0,0-0.1l0,0
				c-0.8-1.6-1.5-3.2-1.9-5c0.9,0.3,1.9,0.5,2.9,0.7c0.1,0,0.1,0,0.2,0c0.1,0,0.1,0,0.2,0c1.6,0.3,3.4,0.5,5.3,0.5
				c1.7,0,3.5-0.2,5.3-0.6c0.2,0,1-0.3,2.1-0.6c0.4-0.1,0.8-0.2,1.3-0.4c-0.1,0-0.1,0.1-0.2,0.1l0,0c-0.3,0.2-0.6,0.4-0.8,0.6
				c-0.1,0.1-0.1,0.1-0.2,0.2s-0.1,0.1-0.2,0.2l0,0c-0.1,0-0.1,0.1-0.2,0.2c0,0,0,0-0.1,0.1S25.1,17,25,17.1l0,0
				c-0.1,0.1-0.1,0.1-0.2,0.2s-0.1,0.1-0.2,0.2l0,0c0,0.1-0.1,0.1-0.1,0.2c0,0,0,0,0,0.1c-0.2,0.3-0.4,0.6-0.6,0.9l0,0l0,0
				c0,0.1-0.1,0.2-0.1,0.2c0,0.1-0.1,0.1-0.1,0.2s-0.1,0.1-0.1,0.2s-0.1,0.1-0.1,0.2l0,0c0,0.1,0,0.1-0.1,0.2c0,0,0,0,0,0.1l0,0
				c0,0.1-0.1,0.2-0.1,0.2c0,0.1,0,0.1-0.1,0.2c-0.1,0.3-0.2,0.6-0.3,0.9c0,0.1,0,0.2-0.1,0.2v0.1v0.1c0,0.1,0,0.2-0.1,0.3
				c0,0.1,0,0.2,0,0.2l0,0c0,0.1,0,0.2,0,0.2s0,0.1,0,0.2v0.1v0.1l0,0l0,0v0.1v0.1c0,0,0,0,0,0.1s0,0.1,0,0.2s0,0.1,0,0.2
				s0,0.1,0,0.2l0,0v0.1v0.1c0,0,0,0,0,0.1s0,0.2,0,0.3v0.1v0.1v0.1c0,0.1,0,0.3,0.1,0.4l0,0c0,0.1,0,0.1,0,0.2s0,0.1,0,0.2
				s0,0.2,0.1,0.3c0,0.1,0,0.2,0.1,0.2c0,0.1,0,0.2,0.1,0.3v0.1c0,0.2,0.1,0.3,0.2,0.5c0,0.1,0,0.1,0.1,0.2c0,0.1,0.1,0.1,0.1,0.2
				s0,0.1,0.1,0.2c0,0.1,0.1,0.1,0.1,0.2c0,0,0,0.1,0.1,0.1c0,0.1,0.1,0.2,0.1,0.3c0.1,0.1,0.1,0.2,0.2,0.3c0.1,0.2,0.2,0.4,0.4,0.6
				l0,0v0.1l0.1,0.1c0,0,0,0,0,0.1c0,0,0,0,0,0.1c0,0,0,0,0,0.1l0.1,0.1l0.1,0.1c0.1,0.1,0.1,0.2,0.2,0.2l0,0c0,0,0,0,0.1,0.1l0,0
				l0.1,0.1c0,0.1,0.1,0.1,0.1,0.2c0,0,0,0,0.1,0.1l0,0l0,0l0.1,0.1l0.1,0.1l0.1,0.1l0,0l0,0c0.1,0,0.1,0.1,0.2,0.1
				c0.1,0.1,0.1,0.1,0.2,0.2l0.1,0.1c0.1,0,0.1,0.1,0.2,0.1c0,0,0.1,0,0.1,0.1l0.1,0.1l0,0c0,0,0.1,0,0.1,0.1c0.1,0,0.1,0.1,0.2,0.1
				l0.1,0.1c0.1,0,0.1,0.1,0.2,0.1s0.2,0.1,0.2,0.1l0,0C27.4,31.7,27.4,31.8,27.5,31.8L27.5,31.8L27.5,31.8L27.5,31.8z"/>
			<path class="st4" d="M28.6,14.6L28.6,14.6L28.6,14.6c-0.1,0-0.1,0-0.2,0l0,0l0,0l0,0c-0.9,0.3-2.1,0.6-3.1,0.9
				c-1,0.3-1.9,0.5-2.1,0.6c-3.7,0.9-7.3,0.6-10.4,0.1c-0.1,0-0.1,0-0.2,0c-0.1,0-0.1,0-0.2,0c-1.1-0.2-2.2-0.5-3.1-0.8l0,0
				c0-0.2-0.1-0.3-0.1-0.5s-0.1-0.3-0.1-0.5c0-0.1,0-0.3-0.1-0.4c0-0.2,0-0.3-0.1-0.5c0,0,0,0,0-0.1c0-0.2,0-0.3-0.1-0.5
				c0-1.5,0.1-2.9,0.2-4.4C9,8.2,9.1,8,9.1,7.7s0.1-0.6,0.2-0.8c0-0.2,0.1-0.3,0.1-0.5s0.1-0.3,0.1-0.5c0.3-1.1,0.7-2.3,1.2-3.3
				c0,0,0,0,0.1,0c0,0,0.1,0,0.1,0.1l0,0C11,3.1,11,3.4,11.1,3.8l0,0l0,0l0,0c0.3,1.3,0.8,2.3,1.5,3.3c0.9,1.2,2,2.3,3.2,3.3
				l0.1,0.1l0.1,0.1c2,1.6,4.4,2.8,6.9,3.6C25,14.8,26.7,14.8,28.6,14.6L28.6,14.6C28.5,14.6,28.6,14.6,28.6,14.6L28.6,14.6z"/>
			<path class="st4" d="M31,13.6c-0.2,0.2-0.4,0.3-0.6,0.5c-0.1,0-0.1,0-0.2,0c0,0,0,0-0.1,0H30h-0.1l0,0c0,0,0,0-0.1,0
				c-0.3,0-0.6,0-0.9,0.1c-1.9,0.1-3.8,0.3-5.7-0.3c-2.5-0.8-4.8-2-6.8-3.6l-0.1-0.1l-0.1-0.1C15,9.1,14,8,13.1,6.8
				c-0.9-1.2-1.4-2.4-1.6-4V2.7l0.2,0.1c0.1,0,0.2,0,0.3,0.1l0,0l7.5,4.2l0.2,0.1l0.2,0.1l8.9,4.9l0.9,0.5l0.3,0.1l0,0L31,13.6z"/>
			<path class="st4" d="M28.6,14.6C28.6,14.6,28.5,14.6,28.6,14.6L28.6,14.6C28.5,14.6,28.5,14.6,28.6,14.6L28.6,14.6
				c-0.1,0-0.1,0-0.1,0S28.5,14.6,28.6,14.6L28.6,14.6L28.6,14.6L28.6,14.6z M27.5,31.8L27.5,31.8L27.5,31.8L27.5,31.8z M26,30.9
				c0.1,0,0.1,0.1,0.2,0.1l0,0C26.1,31,26,30.9,26,30.9z M25,16.9L25,16.9C25,16.8,25,16.8,25,16.9C25,16.8,25,16.8,25,16.9z
				 M24.1,17.8L24.1,17.8c-0.2,0.2-0.2,0.3-0.3,0.4c0,0.1-0.1,0.1-0.1,0.2l0,0c0,0,0,0.1-0.1,0.1v0.1C23.7,18.4,23.9,18,24.1,17.8
				C24.2,17.8,24.1,17.8,24.1,17.8z M23.4,19c0-0.1,0.1-0.2,0.1-0.2S23.4,18.9,23.4,19z M22.3,24.5c0,0.1,0,0.2,0,0.2
				c0,0.1,0,0.1,0,0.2C22.3,24.8,22.3,24.6,22.3,24.5z M22.3,23.9c0,0.1,0,0.1,0,0.2v0.1C22.3,24.1,22.3,24,22.3,23.9z M29.5,12.6
				l-1.2-0.7l0,0l-8.5-4.7l-0.2-0.1L19.4,7l-7-3.8C12.2,3.1,12,3,11.7,3l0,0c-0.1,0-0.2,0-0.3-0.1l-0.2-0.1v0.1L19,7.2l0,0l0.2,0.1
				l0.2,0.1l0,0l9.2,5.1l0,0l0.5,0.3l0.3,0.1l0.3,0.1l1,0.5c-0.1,0.1-0.3,0.3-0.5,0.5l0,0c0,0,0,0,0.1,0s0.1,0,0.2,0s0.2,0,0.3,0
				c0.2-0.2,0.3-0.3,0.4-0.4l0.2-0.2L29.5,12.6z M9.3,14.9c0,0.2,0.1,0.3,0.1,0.5l0,0C9.3,15.2,9.3,15,9.3,14.9z M9,8.5
				C9,8.2,9.1,8,9.1,7.7C9.1,8,9.1,8.3,9,8.5z"/>
		</g>
		<g>
			<path class="st4" d="M11.3,2.9L11.3,2.9h0.2c0.1,0,0.2,0,0.3,0.1l0,0l7.5,4.2l0.2,0.1l0.2,0.1l8.9,4.9l0.9,0.5
				c0,0.1,0.1,0.2,0.1,0.3c0.3,0.6,0.4,1,0.6,1.2h-0.1l0,0c0,0,0,0-0.1,0c-0.3,0-0.6,0-0.9,0.1c-1.9,0.1-3.8,0.3-5.7-0.3
				c-2.5-0.8-4.8-2-6.8-3.6l-0.1-0.1l-0.1-0.1c-1.2-1-2.2-2.1-3.1-3.3C12.1,5.7,11.6,4.5,11.3,2.9z"/>
			<path class="st4" d="M28.6,14.6L28.6,14.6L28.6,14.6c-0.1,0-0.1,0-0.2,0l0,0l0,0l0,0c-0.9,0.3-2.1,0.6-3.1,0.9
				c-1,0.3-1.9,0.5-2.1,0.6c-3.7,0.9-7.3,0.6-10.4,0.1c-0.1,0-0.1,0-0.2,0c-0.1,0-0.1,0-0.2,0c-1.1-0.2-2.2-0.5-3.1-0.8l0,0
				c0-0.2-0.1-0.3-0.1-0.5s-0.1-0.3-0.1-0.5c0-0.1,0-0.3-0.1-0.4c0-0.2,0-0.3-0.1-0.5c0,0,0,0,0-0.1c0-0.2,0-0.3-0.1-0.5
				c0-1.5,0.1-2.9,0.2-4.4C9,8.2,9.1,8,9.1,7.7s0.1-0.6,0.2-0.8c0-0.2,0.1-0.3,0.1-0.5s0.1-0.3,0.1-0.5c0.3-1.1,0.7-2.3,1.2-3.3
				c0,0,0,0,0.1,0c0,0,0.1,0,0.1,0.1l0,0C11,3.1,11,3.4,11.1,3.8l0,0l0,0l0,0c0.3,1.3,0.8,2.3,1.5,3.3c0.9,1.2,2,2.3,3.2,3.3
				l0.1,0.1l0.1,0.1c2,1.6,4.4,2.8,6.9,3.6C25,14.8,26.7,14.8,28.6,14.6L28.6,14.6C28.5,14.6,28.6,14.6,28.6,14.6L28.6,14.6z"/>
			<path class="st4" d="M28.6,14.6C28.6,14.6,28.5,14.6,28.6,14.6L28.6,14.6L28.6,14.6z M30.2,14.1c-0.1-0.2-0.3-0.6-0.5-1
				c0-0.1-0.1-0.2-0.1-0.3l0,0c0-0.1-0.1-0.1-0.1-0.2v-0.1l-1.2-0.7l0,0l-8.5-4.7L19.6,7l-0.2,0l-7-3.8C12.2,3.1,12,3,11.7,3l0,0
				c-0.1,0-0.2,0-0.3-0.1l-0.2-0.1v0.1L19,7.2l0,0l0.2,0.1l0.2,0.1l0,0l9.2,5.1l0,0l0.5,0.3c0.3,0.6,0.5,1.1,0.6,1.4l0,0h0.1
				C30.1,14.2,30.1,14.2,30.2,14.1C30.2,14.2,30.2,14.2,30.2,14.1C30.2,14.2,30.2,14.1,30.2,14.1z"/>
		</g>
		<path class="st4" d="M11.3,2.9L11.3,2.9h0.2c0.1,0,0.2,0,0.3,0.1l0,0c0.2,0,0.4,0.1,0.7,0.2c3.5,1,7.2,1.9,11,1.5h0.1l0,0l0.1,0.1
			V5l4.6,7l0,0l0.2,0.3l0.2,0.3l0,0l1.1,1.7c-0.3,0-0.6,0-0.9,0.1c-1.9,0.1-3.8,0.3-5.7-0.3c-2.5-0.8-4.8-2-6.8-3.6l-0.1-0.1
			l-0.1-0.1C15,9.3,14,8.2,13.1,7C12.1,5.7,11.6,4.5,11.3,2.9z"/>
		<path class="st4" d="M28.6,14.6L28.6,14.6L28.6,14.6h-0.1l0,0L25.9,15c-2.2,0.3-4.5,0.2-6.6-0.5c-1.4-0.4-3-1.2-4.3-2.3l-0.1-0.1
			L14.8,12c-1.9-1.7-3.3-4.3-3.6-8.1c0.3,1.3,0.8,2.3,1.5,3.3c0.9,1.2,2,2.3,3.2,3.3l0.1,0.1l0.1,0.1c2,1.6,4.4,2.8,6.9,3.6
			C25,14.8,26.7,14.8,28.6,14.6L28.6,14.6C28.5,14.6,28.6,14.6,28.6,14.6L28.6,14.6z"/>
		<g>
			<path class="st4" d="M47.9,11.9l-9.4,5.4c-0.1-0.1-0.2-0.3-0.4-0.4L38,16.8l0,0c-0.1-0.1-0.1-0.1-0.2-0.2
				c-0.1-0.1-0.1-0.1-0.2-0.2c-0.2-0.2-0.4-0.3-0.6-0.5c-0.3-0.3-0.7-0.5-1.1-0.7c0,0-0.1,0-0.1-0.1c0,0,0,0-0.1,0c0,0,0,0-0.1,0
				c-0.1-0.1-0.3-0.1-0.4-0.2h-0.1c-0.3-0.1-0.5-0.2-0.8-0.3s-0.6-0.2-1-0.3c-0.1,0-0.2,0-0.2,0c-0.1,0-0.1,0-0.2,0
				c-0.3,0-0.5-0.1-0.8-0.1c-0.2,0-0.3,0-0.5,0c-0.1,0-0.2,0-0.3,0c-0.1,0-0.1,0-0.2,0c-0.2,0-0.4,0-0.6,0c-0.1,0-0.2,0-0.3,0
				c-0.1,0-0.1,0-0.2,0c0,0,0,0-0.1,0h-0.1h-0.1l0,0c0,0,0,0-0.1,0c-0.3,0-0.6,0-0.9,0.1c-1.9,0.1-3.8,0.3-5.7-0.3
				c-2.5-0.8-4.8-2-6.8-3.6l-0.1-0.1L16,10.2c-1.2-1-2.2-2.1-3.1-3.3c-0.9-1.2-1.4-2.4-1.6-4V2.8l0.2,0.1c0.1,0,0.2,0,0.3,0.1l0,0
				c0.2,0,0.4,0.1,0.7,0.2c3.5,1,7.2,1.9,11,1.5h0.1c0,0,0,0,0.1,0c0.2,0,0.5-0.1,0.7-0.1c0.4-0.1,0.8-0.2,1.3-0.3l0,0l0,0l0,0
				c0.3-0.1,0.6-0.2,1-0.3c0.5-0.1,1-0.2,1.5-0.3c0.1,0,0.3,0,0.4-0.1c0.1,0,0.2,0,0.3,0c0.1,0,0.2,0,0.3,0c0.1,0,0.2,0,0.3,0l0,0
				c0.1,0,0.2,0,0.3,0c0.1,0,0.2,0,0.3,0c0.2,0,0.4,0,0.7,0c0.1,0,0.1,0,0.2,0s0.1,0,0.2,0s0.2,0,0.3,0c0.1,0,0.3,0,0.4,0l0,0
				c0.2,0,0.3,0,0.5,0c0.1,0,0.2,0,0.3,0s0.2,0,0.3,0s0.2,0,0.3,0s0.2,0,0.3,0c0.3,0,0.6,0.1,0.9,0.1c0.1,0,0.2,0,0.3,0
				s0.2,0,0.3,0.1c0.1,0,0.1,0,0.2,0l0,0c0.1,0,0.2,0,0.3,0.1c-0.1,0-0.1,0-0.2,0c2.5,0.5,4.8,1.5,6.9,2.8c0.1,0,0.1,0.1,0.2,0.1
				c0,0,0,0,0.1,0c0.2,0.2,0.5,0.3,0.7,0.5l0,0c0.1,0.1,0.2,0.1,0.2,0.2c0.1,0.1,0.2,0.2,0.4,0.3L44,7.9L44.1,8l0,0l0,0l0,0l0.1,0.1
				c0,0,0.1,0,0.1,0.1c0,0,0,0,0.1,0.1l0,0l0.1,0.1l0,0l0,0l0,0l0.1,0.1l0.1,0.1c0.2,0.2,0.4,0.4,0.7,0.6c0.2,0.2,0.4,0.4,0.6,0.6
				c0.1,0.1,0.1,0.1,0.2,0.2c0.1,0.1,0.1,0.1,0.2,0.2c0.1,0.1,0.1,0.2,0.2,0.2c0.1,0.1,0.1,0.2,0.2,0.2c0.1,0.1,0.1,0.1,0.2,0.2
				l0.1,0.1c0,0.1,0.1,0.1,0.1,0.2c0.1,0.1,0.1,0.2,0.2,0.3c0,0.1,0.1,0.1,0.1,0.2C47.8,11.7,47.9,11.8,47.9,11.9z"/>
			<path class="st4" d="M33.7,3.5c0.3,0,0.6,0.1,0.9,0.1C34.3,3.6,34,3.5,33.7,3.5z M35.2,3.7c-0.1,0-0.2,0-0.3-0.1
				C35,3.7,35.1,3.7,35.2,3.7L35.2,3.7z M35.4,3.7L35.4,3.7L35.4,3.7C35.3,3.7,35.4,3.7,35.4,3.7C35.4,3.8,35.4,3.7,35.4,3.7z
				 M42.6,6.7c-0.1,0-0.1-0.1-0.2-0.1C42.5,6.6,42.6,6.7,42.6,6.7L42.6,6.7z M44.2,7.9L44.2,7.9C44.1,7.8,44.1,7.8,44.2,7.9
				L44.2,7.9L44.2,7.9z M44.7,8.3L44.7,8.3L44.7,8.3l0.1,0.1C44.8,8.4,44.7,8.3,44.7,8.3z M44.9,8.5c0.2,0.2,0.4,0.4,0.7,0.6
				C45.4,8.9,45.2,8.7,44.9,8.5z M45.6,9.1c0.2,0.2,0.4,0.4,0.6,0.6C46,9.5,45.8,9.3,45.6,9.1z"/>
		</g>
		<g>
			<path class="st4" d="M31,17.6c-3.2,0-5.9,2.6-5.9,5.9c0,3.2,2.6,5.9,5.9,5.9c3.2,0,5.9-2.6,5.9-5.9S34.2,17.6,31,17.6z M31,26.7
				c-1.8,0-3.2-1.5-3.2-3.2c0-1.8,1.5-3.2,3.2-3.2c1.8,0,3.2,1.5,3.2,3.2S32.8,26.7,31,26.7z"/>
		</g>
		<path class="st5" d="M29.8,14.5c0,0-15,1.2-18.9-11.9"/>
		<path class="st5" d="M8.3,15.2c12.3,3.9,21.1-0.8,21.1-0.8"/>
		<path class="st5" d="M28.3,31.4"/>
		<path class="st5" d="M28.3,32.2c0,0-11.6,0-18.5-13.1"/>
		<path class="st5" d="M28.3,32.2c0,0-7.7,0.8-17-2.3"/>
		<g class="st6">
			<path class="st4" d="M0.8,56.7c0-2.2,1.7-3.9,3.9-3.9c1.4,0,2.6,0.7,3.2,1.8l-1.5,0.9c-0.3-0.6-1-0.9-1.8-0.9
				c-1.3,0-2.2,0.9-2.2,2.2s0.9,2.2,2.2,2.2c0.8,0,1.4-0.3,1.8-0.9L8,58.8c-0.6,1.1-1.9,1.8-3.2,1.8C2.5,60.6,0.8,58.9,0.8,56.7z"/>
			<path class="st4" d="M12.1,54.9v1.8c-0.7-0.1-1.6,0.2-1.6,1.2v2.4H8.9V55h1.6v1C10.7,55.3,11.4,54.9,12.1,54.9z"/>
			<path class="st4" d="M18.2,55v5.4h-1.6v-0.5c-0.4,0.4-0.9,0.7-1.6,0.7c-1.4,0-2.6-1.2-2.6-2.9c0-1.6,1.2-2.9,2.6-2.9
				c0.7,0,1.3,0.2,1.6,0.7V55H18.2z M16.6,57.7c0-0.8-0.5-1.3-1.3-1.3c-0.7,0-1.3,0.5-1.3,1.3c0,0.8,0.5,1.3,1.3,1.3
				C16.1,59.1,16.6,58.6,16.6,57.7z"/>
			<path class="st4" d="M21.4,55h1v1.6h-1v3.8h-1.6v-3.8h-0.7V55h0.7c0-1.5,0.8-2.4,2.6-2.3v1.6C21.8,54.2,21.4,54.4,21.4,55z"/>
			<path class="st4" d="M25.2,56.6v1.9c0,0.5,0.4,0.5,1.1,0.5v1.5c-2.1,0.2-2.7-0.4-2.7-1.9v-1.9h-0.9V55h0.9v-1l1.6-0.5V55h1.1v1.6
				H25.2z"/>
			<path class="st4" d="M32.5,55l-1.8,5.2c-0.6,1.7-1.6,2.4-3.1,2.3v-1.5c0.8,0,1.1-0.2,1.4-0.9L26.8,55h1.8l1.2,3.3l1-3.3H32.5z"/>
			<path class="st4" d="M38.4,55v5.1c0,1.8-1.4,2.6-2.9,2.6c-1.1,0-2.1-0.4-2.6-1.3l1.4-0.8c0.2,0.4,0.5,0.7,1.2,0.7
				c0.8,0,1.2-0.4,1.2-1.2v-0.5c-0.4,0.4-0.9,0.7-1.6,0.7c-1.5,0-2.7-1.3-2.7-2.7c0-1.5,1.1-2.7,2.7-2.7c0.7,0,1.2,0.3,1.6,0.7V55
				H38.4z M36.8,57.6c0-0.7-0.5-1.3-1.3-1.3c-0.8,0-1.3,0.5-1.3,1.3c0,0.7,0.5,1.3,1.3,1.3C36.3,58.9,36.8,58.4,36.8,57.6z"/>
			<path class="st4" d="M42.8,54.9v1.8c-0.7-0.1-1.6,0.2-1.6,1.2v2.4h-1.6V55h1.6v1C41.4,55.3,42.1,54.9,42.8,54.9z"/>
			<path class="st4" d="M49,55v5.4h-1.6v-0.5c-0.4,0.4-0.9,0.7-1.6,0.7c-1.4,0-2.6-1.2-2.6-2.9c0-1.6,1.2-2.9,2.6-2.9
				c0.7,0,1.3,0.2,1.6,0.7V55H49z M47.3,57.7c0-0.8-0.5-1.3-1.3-1.3c-0.7,0-1.3,0.5-1.3,1.3c0,0.8,0.5,1.3,1.3,1.3
				C46.8,59.1,47.3,58.6,47.3,57.7z"/>
			<path class="st4" d="M58.2,57.1v3.3h-1.6v-3.2c0-0.5-0.3-0.9-0.8-0.9c-0.5,0-0.8,0.4-0.8,1v3h-1.6v-3.2c0-0.5-0.3-0.9-0.8-0.9
				c-0.5,0-0.8,0.4-0.8,1v3h-1.6V55h1.6v0.5c0.2-0.4,0.7-0.6,1.4-0.6c0.6,0,1.1,0.3,1.4,0.7c0.3-0.4,0.8-0.7,1.6-0.7
				C57.4,54.9,58.2,55.8,58.2,57.1z"/>
		</g>
	</g>
</g>
</svg>
