<?xml version="1.0" encoding="utf-8"?>
<!-- Generator: Adobe Illustrator 24.1.3, SVG Export Plug-In . SVG Version: 6.00 Build 0)  -->
<svg version="1.1" id="Layer_1" xmlns="http://www.w3.org/2000/svg" xmlns:xlink="http://www.w3.org/1999/xlink" x="0px" y="0px"
	 viewBox="0 0 146.2 37" style="enable-background:new 0 0 146.2 37;" xml:space="preserve">
<style type="text/css">
	.st0{display:none;}
	.st1{display:inline;opacity:0.4;}
	.st2{fill:#92F7FF;}
	.st3{display:inline;}
	.st4{fill:#003136;}
</style>
<g id="BGD">
</g>
<g id="Hero">
</g>
<g id="Slogan">
</g>
<g id="Services">
</g>
<g id="Clients">
</g>
<g id="Proposal">
</g>
<g id="Diver_Shop">
</g>
<g id="Guides_1_" class="st0">
	<g id="Grid" class="st1">
		<rect x="688.6" y="-2068" class="st2" width="76" height="6963"/>
		<rect x="591.1" y="-2068" class="st2" width="76" height="6963"/>
		<rect x="786" y="-2068" class="st2" width="76" height="6963"/>
		<rect x="1078.4" y="-2068" class="st2" width="76" height="6963"/>
		<rect x="883.5" y="-2068" class="st2" width="76" height="6963"/>
		<rect x="980.9" y="-2068" class="st2" width="76" height="6963"/>
		<rect x="1175.8" y="-2068" class="st2" width="76" height="6963"/>
		<rect x="1273.3" y="-2068" class="st2" width="76" height="6963"/>
		<rect x="1370.7" y="-2068" class="st2" width="76" height="6963"/>
		<rect x="1468.2" y="-2068" class="st2" width="76" height="6963"/>
		<rect x="1565.6" y="-2068" class="st2" width="76" height="6963"/>
		<rect x="1663.1" y="-2068" class="st2" width="76" height="6963"/>
	</g>
	<g id="Guides" class="st3">
	</g>
</g>
<g>
	<path class="st4" d="M9.4,11.9c0.9-0.4,1.6-1,2-1.7c0.5-0.8,0.7-1.7,0.7-2.7c0-1.2-0.3-2.2-1-3.1S9.5,3.1,8.4,2.8
		C7.7,2.6,6.3,2.6,4.2,2.6H0.5v18.6h1.9v-8.6h1.1l6.7,8.6h2.3l-6.7-8.6C7.3,12.5,8.5,12.3,9.4,11.9z M2.4,10.7V4.4h3.3
		c1.3,0,2.2,0.1,2.7,0.3c0.5,0.2,1,0.6,1.3,1.1c0.3,0.5,0.5,1.1,0.5,1.7c0,0.6-0.2,1.2-0.5,1.7s-0.8,0.9-1.4,1.1
		c-0.6,0.2-1.5,0.4-2.7,0.4L2.4,10.7z"/>
	<polygon class="st4" points="16.1,21.1 26.7,21.1 26.7,19.3 18,19.3 18,12 26.7,12 26.7,10.2 18,10.2 18,4.4 26.8,4.4 26.8,2.6 
		16.1,2.6 	"/>
	<polygon class="st4" points="42.7,16.8 30.4,2.6 30,2.6 30,21.1 31.9,21.1 31.9,7.1 44.2,21.1 44.6,21.1 44.6,2.6 42.7,2.6 	"/>
	<path class="st4" d="M67.8,11.8c0-2.7-0.9-5.1-2.8-6.9s-4.2-2.8-7.1-2.8c-1.7,0-3.3,0.4-4.8,1.3c-1.5,0.9-2.7,2.1-3.5,3.6
		s-1.3,3.2-1.3,5c0,2.7,0.9,5,2.8,6.8c1.9,1.9,4.2,2.8,7,2.8c2.7,0,5-0.9,6.9-2.8C66.9,16.9,67.8,14.6,67.8,11.8z M62,18.7
		c-1.2,0.7-2.6,1-4,1c-2.2,0-4-0.8-5.5-2.3c-1.5-1.5-2.3-3.4-2.3-5.6c0-1.5,0.3-2.8,1-4.1c0.7-1.2,1.7-2.2,2.9-2.9s2.5-1.1,3.9-1.1
		c1.4,0,2.7,0.4,4,1.1c1.2,0.7,2.2,1.7,2.9,2.9s1,2.5,1,4c0,1.5-0.3,2.8-1,4C64.2,17.1,63.2,18,62,18.7z"/>
	<polygon class="st4" points="78.5,21.1 86.6,2.6 84.6,2.6 78.3,16.9 72.2,2.6 70.1,2.6 78.1,21.1 	"/>
	<path class="st4" d="M101.4,18l0.9-0.9l1-0.9l-2.1-2.4c-1.1,0.9-1.8,1.5-2.1,1.7c-0.4-0.4-1.4-1.5-2.9-3.3c1.3-1.3,2.1-2.2,2.5-2.9
		c0.4-0.6,0.5-1.3,0.5-2c0-0.9-0.4-1.8-1.2-2.7c-0.8-0.9-1.9-1.3-3.4-1.3c-1.4,0-2.6,0.4-3.3,1.3c-0.8,0.9-1.2,1.8-1.2,2.7
		c0,1.2,0.6,2.7,1.8,4.3c-1.2,0.9-2.1,1.8-2.6,2.7c-0.5,0.9-0.7,1.8-0.7,2.8c0,1.3,0.4,2.4,1.3,3.2c0.9,0.8,2,1.2,3.5,1.2
		c1.7,0,3.5-0.6,5.4-1.7l1.2,1.3h4.3L101.4,18z M93.9,6.9c0.2-0.2,0.5-0.3,0.8-0.3c0.3,0,0.6,0.1,0.8,0.3c0.2,0.2,0.3,0.5,0.3,0.8
		c0,0.6-0.5,1.3-1.4,2.1c-0.6-0.8-0.9-1.5-0.9-2.1C93.6,7.4,93.7,7.1,93.9,6.9z M93.8,18.4c-0.5,0-1-0.2-1.3-0.5
		c-0.3-0.3-0.5-0.6-0.5-1c0-0.8,0.6-1.7,1.9-2.7c1.2,1.5,2.1,2.5,2.7,3.2C95.5,18.1,94.5,18.4,93.8,18.4z"/>
	<path class="st4" d="M116.1,21.6c1.6,0,3-0.3,4.2-0.8c1.2-0.5,2.5-1.4,3.9-2.8l-2.4-2.5c-1,1-2,1.7-2.8,2.1
		c-0.8,0.4-1.8,0.6-2.8,0.6c-1.2,0-2.3-0.3-3.3-0.8c-1-0.5-1.7-1.3-2.3-2.3c-0.5-1-0.8-2.1-0.8-3.3c0-1.8,0.6-3.3,1.8-4.5
		s2.7-1.8,4.5-1.8c2.1,0,4,0.9,5.7,2.7l2.5-2.4c-1-1.2-2.2-2.1-3.7-2.8s-2.9-1-4.4-1c-1.8,0-3.5,0.4-5,1.3c-1.6,0.9-2.8,2-3.6,3.5
		c-0.8,1.4-1.3,3.1-1.3,4.9c0,2.9,0.9,5.2,2.8,7C110.8,20.7,113.2,21.6,116.1,21.6z"/>
	<path class="st4" d="M142.8,5c-1.9-1.9-4.1-2.9-6.8-2.9c-1.7,0-3.4,0.4-4.9,1.3c-1.5,0.9-2.7,2.1-3.5,3.5c-0.9,1.5-1.3,3.1-1.3,4.9
		c0,2.7,0.9,4.9,2.8,6.9c1.8,1.9,4.2,2.9,6.9,2.9c2.7,0,4.9-0.9,6.8-2.8c1.9-1.9,2.8-4.2,2.8-6.9C145.7,9.2,144.7,6.9,142.8,5z
		 M140.4,16.4c-1.2,1.2-2.6,1.8-4.3,1.8c-1.5,0-2.8-0.5-3.9-1.4c-1.5-1.2-2.2-2.8-2.2-4.9c0-1.8,0.6-3.4,1.8-4.6s2.6-1.8,4.3-1.8
		c1.7,0,3.1,0.6,4.3,1.8s1.8,2.7,1.8,4.5C142.1,13.7,141.6,15.1,140.4,16.4z"/>
	<polygon class="st4" points="13.5,34.7 18.2,34.7 18.2,33.9 14.4,33.9 14.4,30.7 18.2,30.7 18.2,29.9 14.4,29.9 14.4,27.4 
		18.2,27.4 18.2,26.6 13.5,26.6 	"/>
	<polygon class="st4" points="25.2,32.8 19.8,26.6 19.6,26.6 19.6,34.7 20.4,34.7 20.4,28.5 25.8,34.7 26,34.7 26,26.6 25.2,26.6 	
		"/>
	<polygon class="st4" points="27.2,27.4 29,27.4 29,34.7 29.8,34.7 29.8,27.4 31.6,27.4 31.6,26.6 27.2,26.6 	"/>
	<path class="st4" d="M36.7,30.7c0.4-0.2,0.7-0.4,0.9-0.8c0.2-0.3,0.3-0.7,0.3-1.2c0-0.5-0.2-1-0.5-1.3c-0.3-0.4-0.7-0.6-1.2-0.7
		c-0.3-0.1-0.9-0.1-1.8-0.1h-1.6v8.1h0.8v-3.8h0.5l2.9,3.8h1l-2.9-3.8C35.8,30.9,36.3,30.8,36.7,30.7z M33.6,30.1v-2.8h1.4
		c0.6,0,1,0,1.2,0.1c0.2,0.1,0.4,0.3,0.6,0.5c0.1,0.2,0.2,0.5,0.2,0.7c0,0.3-0.1,0.5-0.2,0.8c-0.1,0.2-0.3,0.4-0.6,0.5
		c-0.3,0.1-0.7,0.2-1.2,0.2L33.6,30.1z"/>
	<polygon class="st4" points="39.6,34.7 44.3,34.7 44.3,33.9 40.5,33.9 40.5,30.7 44.3,30.7 44.3,29.9 40.5,29.9 40.5,27.4 
		44.3,27.4 44.3,26.6 39.6,26.6 	"/>
	<path class="st4" d="M49.2,26.7c-0.3-0.1-0.9-0.1-1.9-0.1h-1.6v8.1h0.8v-3.8h0.6c1,0,1.7,0,2.1-0.1c0.5-0.1,0.9-0.4,1.2-0.7
		c0.3-0.4,0.4-0.8,0.4-1.3c0-0.5-0.1-1-0.4-1.3C50,27,49.7,26.8,49.2,26.7z M49.7,29.5c-0.1,0.2-0.3,0.4-0.6,0.5
		c-0.3,0.1-0.7,0.2-1.2,0.2l-1.4,0v-2.8h1.4c0.5,0,0.9,0,1.2,0.1c0.2,0.1,0.4,0.3,0.6,0.5c0.1,0.2,0.2,0.5,0.2,0.7
		C49.9,29,49.9,29.3,49.7,29.5z"/>
	<path class="st4" d="M56.3,30.7c0.4-0.2,0.7-0.4,0.9-0.8c0.2-0.3,0.3-0.7,0.3-1.2c0-0.5-0.2-1-0.5-1.3c-0.3-0.4-0.7-0.6-1.2-0.7
		c-0.3-0.1-0.9-0.1-1.8-0.1h-1.6v8.1h0.8v-3.8h0.5l2.9,3.8h1l-2.9-3.8C55.4,30.9,55.9,30.8,56.3,30.7z M53.3,30.1v-2.8h1.4
		c0.6,0,1,0,1.2,0.1c0.2,0.1,0.4,0.3,0.6,0.5c0.1,0.2,0.2,0.5,0.2,0.7c0,0.3-0.1,0.5-0.2,0.8s-0.3,0.4-0.6,0.5
		c-0.3,0.1-0.7,0.2-1.2,0.2L53.3,30.1z"/>
	<rect x="59.1" y="26.6" class="st4" width="0.8" height="8.1"/>
	<path class="st4" d="M63.9,30.1c-0.6-0.4-0.9-0.7-1.1-0.8c-0.2-0.2-0.3-0.4-0.4-0.5c-0.1-0.2-0.1-0.3-0.1-0.5
		c0-0.3,0.1-0.5,0.3-0.7c0.2-0.2,0.5-0.3,0.8-0.3c0.3,0,0.5,0.1,0.7,0.2c0.2,0.1,0.5,0.4,0.8,0.8l0.7-0.5c-0.4-0.5-0.7-0.9-1.1-1
		c-0.3-0.2-0.7-0.3-1.1-0.3c-0.4,0-0.7,0.1-1,0.3c-0.3,0.2-0.5,0.4-0.7,0.7c-0.2,0.3-0.3,0.6-0.3,1c0,0.4,0.1,0.9,0.4,1.2
		c0.2,0.2,0.6,0.6,1.3,1.1c0.7,0.5,1.1,0.9,1.4,1.3c0.2,0.3,0.3,0.5,0.3,0.8c0,0.2-0.1,0.5-0.2,0.7c-0.1,0.2-0.3,0.4-0.5,0.5
		c-0.2,0.1-0.5,0.2-0.8,0.2c-0.6,0-1.2-0.4-1.7-1.3L61,33.2c0.3,0.6,0.7,1.1,1.1,1.3s0.8,0.4,1.3,0.4c0.6,0,1.2-0.2,1.6-0.7
		c0.4-0.4,0.7-0.9,0.7-1.5c0-0.4-0.1-0.8-0.4-1.2C65.1,31.1,64.6,30.6,63.9,30.1z"/>
	<polygon class="st4" points="67.5,34.7 72.1,34.7 72.1,33.9 68.3,33.9 68.3,30.7 72.1,30.7 72.1,29.9 68.3,29.9 68.3,27.4 
		72.1,27.4 72.1,26.6 67.5,26.6 	"/>
	<path class="st4" d="M81.5,31.6H84c-0.1,0.8-0.5,1.4-1,1.8c-0.6,0.5-1.3,0.7-2.1,0.7c-0.7,0-1.3-0.2-1.9-0.5
		c-0.6-0.3-1-0.7-1.4-1.3s-0.5-1.1-0.5-1.7c0-0.6,0.2-1.2,0.5-1.7s0.8-1,1.3-1.3c0.6-0.3,1.2-0.5,1.8-0.5c0.5,0,1,0.1,1.6,0.3
		c0.5,0.2,1,0.6,1.5,1l0.6-0.6c-0.6-0.5-1.2-0.9-1.8-1.2c-0.6-0.2-1.3-0.4-1.9-0.4c-0.9,0-1.6,0.2-2.3,0.6c-0.7,0.4-1.2,0.9-1.6,1.6
		c-0.4,0.7-0.6,1.4-0.6,2.1c0,1,0.3,1.9,1,2.7c0.9,1,2.1,1.5,3.6,1.5c1.2,0,2.2-0.4,3-1.1c0.7-0.7,1.1-1.7,1.1-3h-3.5L81.5,31.6
		L81.5,31.6z"/>
	<polygon class="st4" points="86.5,34.7 91.1,34.7 91.1,33.9 87.3,33.9 87.3,30.7 91.1,30.7 91.1,29.9 87.3,29.9 87.3,27.4 
		91.2,27.4 91.2,26.6 86.5,26.6 	"/>
	<polygon class="st4" points="98.2,32.8 92.7,26.6 92.6,26.6 92.6,34.7 93.4,34.7 93.4,28.5 98.8,34.7 99,34.7 99,26.6 98.2,26.6 	
		"/>
	<polygon class="st4" points="100.9,34.7 105.6,34.7 105.6,33.9 101.7,33.9 101.7,30.7 105.6,30.7 105.6,29.9 101.7,29.9 
		101.7,27.4 105.6,27.4 105.6,26.6 100.9,26.6 	"/>
	<path class="st4" d="M110.9,30.7c0.4-0.2,0.7-0.4,0.9-0.8c0.2-0.3,0.3-0.7,0.3-1.2c0-0.5-0.2-1-0.5-1.3c-0.3-0.4-0.7-0.6-1.2-0.7
		c-0.3-0.1-0.9-0.1-1.8-0.1H107v8.1h0.8v-3.8h0.5l2.9,3.8h1l-2.9-3.8C110,30.9,110.5,30.8,110.9,30.7z M107.8,30.1v-2.8h1.4
		c0.6,0,1,0,1.2,0.1c0.2,0.1,0.4,0.3,0.6,0.5c0.1,0.2,0.2,0.5,0.2,0.7c0,0.3-0.1,0.5-0.2,0.8c-0.1,0.2-0.3,0.4-0.6,0.5
		c-0.3,0.1-0.7,0.2-1.2,0.2L107.8,30.1z"/>
	<path class="st4" d="M117,26.6l-3.8,8.1h0.9l1.3-2.7h3.5l1.3,2.7h0.9l-3.8-8.1H117z M115.7,31.2l1.4-2.9l1.4,2.9H115.7z"/>
	<polygon class="st4" points="123,26.6 122.2,26.6 122.2,34.7 126.2,34.7 126.2,33.9 123,33.9 	"/>
	<polygon class="st4" points="127.5,34.7 132.1,34.7 132.1,33.9 128.3,33.9 128.3,30.7 132.1,30.7 132.1,29.9 128.3,29.9 
		128.3,27.4 132.1,27.4 132.1,26.6 127.5,26.6 	"/>
</g>
</svg>
