<?xml version="1.0" encoding="utf-8"?>
<!-- Generator: Adobe Illustrator 24.1.3, SVG Export Plug-In . SVG Version: 6.00 Build 0)  -->
<svg version="1.1" id="Layer_1" xmlns="http://www.w3.org/2000/svg" xmlns:xlink="http://www.w3.org/1999/xlink" x="0px" y="0px"
	 viewBox="0 0 107.6 116.6" style="enable-background:new 0 0 107.6 116.6;" xml:space="preserve">
<style type="text/css">
	.st0{display:none;}
	.st1{display:inline;opacity:0.4;}
	.st2{fill:#92F7FF;}
	.st3{display:inline;}
	.st4{fill:#E63946;}
	.st5{fill:none;stroke:#1D3557;stroke-width:2;stroke-miterlimit:10;}
	.st6{fill:#F1FAEE;}
	.st7{fill:#1D3557;}
</style>
<g id="BGD">
</g>
<g id="Hero">
</g>
<g id="Slogan">
</g>
<g id="Services">
</g>
<g id="Clients">
</g>
<g id="Proposal">
</g>
<g id="Diver_Shop">
</g>
<g id="Guides_1_" class="st0">
	<g id="Grid" class="st1">
		<rect x="669.3" y="-2028.1" class="st2" width="76" height="6963"/>
		<rect x="571.8" y="-2028.1" class="st2" width="76" height="6963"/>
		<rect x="766.7" y="-2028.1" class="st2" width="76" height="6963"/>
		<rect x="1059.1" y="-2028.1" class="st2" width="76" height="6963"/>
		<rect x="864.2" y="-2028.1" class="st2" width="76" height="6963"/>
		<rect x="961.6" y="-2028.1" class="st2" width="76" height="6963"/>
		<rect x="1156.5" y="-2028.1" class="st2" width="76" height="6963"/>
		<rect x="1254" y="-2028.1" class="st2" width="76" height="6963"/>
		<rect x="1351.4" y="-2028.1" class="st2" width="76" height="6963"/>
		<rect x="1448.9" y="-2028.1" class="st2" width="76" height="6963"/>
		<rect x="1546.3" y="-2028.1" class="st2" width="76" height="6963"/>
		<rect x="1643.8" y="-2028.1" class="st2" width="76" height="6963"/>
	</g>
	<g id="Guides" class="st3">
	</g>
</g>
<g>
	<g>
		<g>
			<path class="st4" d="M37.2,95.9c-4.8,0.8-9.5-1.7-11.9-6c0,0,0,0,0-0.1L7.5,58.2c-6.6-11.7-3.2-26.7,7.9-34L39.7,8.1
				c15-10,35.4-2.2,40.3,15.6l8.6,30.6c2.3,8.1-1.3,16.7-8.6,20.5L45,93.3C42.6,94.6,40,95.5,37.2,95.9L37.2,95.9z"/>
		</g>
		<path class="st5" d="M27.6,24.9l28.3-8.4c17.5-5.2,35.2,7.5,35.3,25.2l0.1,30.5c0,8.1-5.8,15-14,16.6l-43.5,8.5l-20.9,15.6
			c-0.3,0.2-0.7-0.1-0.5-0.4l7.3-16.9c0.5-2.5,0.5-5.1-0.2-7.7L10.7,54C7.4,41.5,14.8,28.7,27.6,24.9z"/>
		<g>
			<path class="st6" d="M84.9,75.1c-1,0.1-2,0.2-3,0.3c-18.3,1.8-36.7,3.5-55,5.3c-2.6,0.2-5.2,0.5-7.6,0c-2.5-0.5-4.9-1.8-5.9-3.9
				c-0.5-1.1-0.6-2.4-0.8-3.7c-0.4-3.9-1-7.8-1.9-11.6c-0.8-3.4-1.8-7.1,0-10.2c2.8-4.9,11-6.5,16.3-7.7c2.4-0.5,4.7-1,7.1-1.6
				c4.6-1,9.2-2,13.7-3c9.2-2,18.3-4,27.5-6c2.4-0.5,4.9-1.1,7.4-1s5,0.9,6.6,2.6c1.5,1.7,1.9,4,2.2,6.1c1.2,7.5,2.3,15,3.4,22.5
				c0.3,2.1,0.6,4.4-0.3,6.4c-1,2.1-3.1,3.6-5.5,4.5C87.8,74.6,86.4,74.9,84.9,75.1z"/>
		</g>
		<g>
			<g>
				<path class="st7" d="M35.2,49.1c1,0,1.8,0.4,2.3,1.3c0,0.2,0.1,0.4,0.1,0.6v1.5c0,3.3-0.1,8.9-0.2,16.6c0,0.7-0.5,1.1-1.4,1.1
					s-1.3-0.4-1.3-1.1c-0.1-0.3-0.2-2.7-0.4-7.2c-4.5-0.1-7.1-0.2-7.7-0.3c0,0,0,0.1-0.1,0.1c0.2,3.6,0.3,5.9,0.3,6.7
					c0,0.8-0.5,1.3-1.5,1.3c-1.1,0-1.7-0.8-1.7-2.4c-0.2-3.1-0.4-8.7-0.7-16.8c0-0.5,0.3-0.7,1-0.8c1.5,0.1,2.2,0.7,2.2,1.7
					c0.1,1.4,0.1,3,0.1,4.6v2.6c4.7,0.1,7.4,0.2,8.1,0.3l0.1-0.1v-8.7C34.4,49.4,34.7,49.1,35.2,49.1z"/>
				<path class="st7" d="M47.2,55.2h0.5c3.3,0,5.5,1.2,6.7,3.6c0.4,1,0.6,1.9,0.6,2.9v0.7c0,0.9-0.1,1.3-0.3,1.3l-11-0.6l0,0.1
					c0,1.4,0.8,2.6,2.5,3.4c0.7,0.2,1.5,0.3,2.4,0.3s2.5-0.2,4.7-0.6c0.9,0,1.4,0.6,1.7,1.8c0,1.1-1.3,1.8-3.8,2.1h-1.4
					c-4.4,0-7.1-1.4-8.3-4.1c-0.4-1-0.6-2.3-0.6-3.9c0-3.9,1.7-6.2,5.1-6.9C46.3,55.2,46.7,55.2,47.2,55.2z M44.9,60.1L44.9,60.1
					c2.1,0.5,4.4,0.7,6.8,0.7h0.5v-0.1c-0.2-0.7-0.7-1.3-1.4-1.8c-0.9-0.5-1.8-0.7-2.7-0.7h-0.3C46.4,58.2,45.4,58.8,44.9,60.1z"/>
				<path class="st7" d="M57.8,49.1c1.5,0.1,2.4,0.6,2.7,1.6c0.1,1.4,0.2,3.8,0.2,7.2v5.6c0,4.4-0.1,6.6-0.3,6.6l-0.5,0.1h-0.8
					c-0.9,0-1.3-0.3-1.3-0.9c-0.4-5-0.6-10.6-0.6-16.9c0-2.3,0.1-3.4,0.4-3.4h0.2V49.1z"/>
				<path class="st7" d="M63.6,49.1c1.5,0.1,2.4,0.6,2.7,1.6c0.1,1.4,0.2,3.8,0.2,7.2v5.6c0,4.4-0.1,6.6-0.3,6.6l-0.5,0.1H65
					c-0.9,0-1.3-0.3-1.3-0.9c-0.4-5-0.6-10.6-0.6-16.9c0-2.3,0.1-3.4,0.4-3.4h0.1V49.1z"/>
				<path class="st7" d="M76.3,55.2c1.9,0,3.8,1.4,5.6,4.2c0.7,1.3,1,2.5,1,3.6v1c0,2.8-1.7,4.8-5.1,5.9c-1,0.3-1.8,0.5-2.4,0.5H74
					c-2.3,0-3.9-1.9-4.8-5.6c-0.2-0.9-0.3-1.9-0.3-2.7c0-2.1,1.6-4.1,4.8-6.1C74.9,55.4,75.7,55.2,76.3,55.2z M71.9,62.6
					c0,1.8,0.9,3.2,2.6,4.1c0.4,0.1,0.8,0.2,1.1,0.2h0.1c1.5,0,2.8-0.7,3.8-2.1c0.2-0.4,0.3-0.7,0.3-0.9v-0.5c0-1.5-0.6-2.8-1.8-4
					c-0.5-0.3-1.1-0.5-1.7-0.5h-0.7c-1.6,0-2.8,0.8-3.6,2.4C72,61.8,71.9,62.3,71.9,62.6z"/>
			</g>
		</g>
		<g>
			<polygon class="st7" points="98.2,7.1 102.7,10.1 93.3,17.8 			"/>
			<polygon class="st7" points="91.1,5.4 95.3,6.4 90.1,14.6 			"/>
			<polygon class="st7" points="103.6,12.4 104.7,13.9 100.9,15.3 			"/>
		</g>
	</g>
</g>
</svg>
