<?xml version="1.0" encoding="utf-8"?>
<!-- Generator: Adobe Illustrator 24.1.3, SVG Export Plug-In . SVG Version: 6.00 Build 0)  -->
<svg version="1.1" id="Layer_1" xmlns="http://www.w3.org/2000/svg" xmlns:xlink="http://www.w3.org/1999/xlink" x="0px" y="0px"
	 viewBox="0 0 62.8 37" style="enable-background:new 0 0 62.8 37;" xml:space="preserve">
<style type="text/css">
	.st0{display:none;}
	.st1{display:inline;opacity:0.4;}
	.st2{fill:#92F7FF;}
	.st3{display:inline;}
	.st4{fill:#003136;}
</style>
<g id="BGD">
</g>
<g id="Hero">
</g>
<g id="Slogan">
</g>
<g id="Services">
</g>
<g id="Clients">
</g>
<g id="Proposal">
</g>
<g id="Diver_Shop">
</g>
<g id="Guides_1_" class="st0">
	<g id="Grid" class="st1">
		<rect x="646.9" y="-2068" class="st2" width="76" height="6963"/>
		<rect x="549.4" y="-2068" class="st2" width="76" height="6963"/>
		<rect x="744.3" y="-2068" class="st2" width="76" height="6963"/>
		<rect x="1036.7" y="-2068" class="st2" width="76" height="6963"/>
		<rect x="841.8" y="-2068" class="st2" width="76" height="6963"/>
		<rect x="939.2" y="-2068" class="st2" width="76" height="6963"/>
		<rect x="1134.1" y="-2068" class="st2" width="76" height="6963"/>
		<rect x="1231.6" y="-2068" class="st2" width="76" height="6963"/>
		<rect x="1329" y="-2068" class="st2" width="76" height="6963"/>
		<rect x="1426.5" y="-2068" class="st2" width="76" height="6963"/>
		<rect x="1523.9" y="-2068" class="st2" width="76" height="6963"/>
		<rect x="1621.4" y="-2068" class="st2" width="76" height="6963"/>
	</g>
	<g id="Guides" class="st3">
	</g>
</g>
<g>
	<g>
		<g>
			<path class="st4" d="M12,28.8c0,0.3-0.2,0.6-0.3,0.9c-0.2,0.3-0.4,0.6-0.6,0.8c-0.3,0.2-0.5,0.4-0.8,0.5
				c-0.3,0.2-0.6,0.2-0.9,0.2c-0.4,0-0.8,0-1.1-0.2s-0.6-0.3-0.9-0.5c-0.3-0.2-0.5-0.5-0.6-0.8c-0.2-0.3-0.3-0.7-0.3-1.1
				c0-0.2,0-0.5,0-0.8c0-0.3,0.1-0.6,0.2-1c0.1-0.4,0.3-0.8,0.5-1.2s0.5-0.9,0.9-1.4l-4.5,0c-0.2,0.4-0.4,0.8-0.5,1.2
				c-0.2,0.3-0.3,0.7-0.3,1s-0.2,0.6-0.2,0.9c0,0.3,0,0.6,0,0.9c0,1.1,0.2,2,0.5,2.9c0.3,0.9,0.8,1.6,1.4,2.2s1.3,1.1,2.2,1.4
				c0.9,0.3,1.8,0.5,2.9,0.5c1,0,1.9-0.2,2.8-0.5c0.8-0.3,1.5-0.8,2.1-1.4c0.6-0.6,1.1-1.3,1.4-2.1c0.3-0.8,0.5-1.7,0.6-2.6l0.1-8.7
				h-4L12,28.8z"/>
			<path class="st4" d="M6.9,20.9c0.2,0.2,0.4,0.3,0.6,0.4c0.2,0.1,0.5,0.2,0.8,0.2c0.3,0,0.5,0,0.8-0.2s0.5-0.2,0.6-0.4
				c0.2-0.2,0.3-0.4,0.4-0.6c0.1-0.2,0.2-0.5,0.2-0.8c0-0.3,0-0.5-0.2-0.8c-0.1-0.2-0.2-0.5-0.4-0.6c-0.2-0.2-0.4-0.3-0.6-0.4
				s-0.5-0.2-0.8-0.2c-0.3,0-0.5,0-0.8,0.2c-0.2,0.1-0.5,0.2-0.6,0.4c-0.2,0.2-0.3,0.4-0.4,0.6c-0.1,0.2-0.2,0.5-0.2,0.8
				c0,0.3,0,0.5,0.2,0.8C6.6,20.6,6.8,20.8,6.9,20.9z"/>
			<polygon class="st4" points="21.5,13.2 17.3,13.3 17.3,28.8 21.5,28.8 			"/>
			<g>
				<path class="st4" d="M26.2,16.5c0.2,0.2,0.4,0.3,0.6,0.4s0.5,0.2,0.8,0.2s0.5,0,0.8-0.2c0.2-0.1,0.5-0.2,0.6-0.4
					c0.2-0.2,0.3-0.4,0.4-0.6c0.1-0.2,0.2-0.5,0.2-0.8c0-0.3,0-0.5-0.2-0.8c-0.1-0.2-0.2-0.5-0.4-0.6c-0.2-0.2-0.4-0.3-0.6-0.4
					c-0.2-0.1-0.5-0.2-0.8-0.2s-0.5,0-0.8,0.2c-0.2,0.1-0.5,0.2-0.6,0.4c-0.2,0.2-0.3,0.4-0.4,0.6c-0.1,0.2-0.2,0.5-0.2,0.8
					c0,0.3,0,0.5,0.2,0.8C25.9,16.2,26,16.4,26.2,16.5z"/>
			</g>
			<path class="st4" d="M33.3,32c-0.2-0.2-0.4-0.3-0.6-0.4c-0.2-0.1-0.5-0.2-0.8-0.2c-0.3,0-0.5,0-0.8,0.2c-0.2,0.1-0.5,0.2-0.6,0.4
				c-0.2,0.2-0.3,0.4-0.4,0.6c-0.1,0.2-0.2,0.5-0.2,0.8s0,0.5,0.2,0.8s0.2,0.5,0.4,0.6c0.2,0.2,0.4,0.3,0.6,0.4
				c0.2,0.1,0.5,0.2,0.8,0.2c0.3,0,0.5,0,0.8-0.2c0.2-0.1,0.5-0.2,0.6-0.4c0.2-0.2,0.3-0.4,0.4-0.6c0.1-0.2,0.2-0.5,0.2-0.8
				s0-0.5-0.2-0.8C33.7,32.4,33.5,32.2,33.3,32z"/>
			<path class="st4" d="M37.7,32c-0.2-0.2-0.4-0.3-0.6-0.4c-0.2-0.1-0.5-0.2-0.8-0.2c-0.3,0-0.5,0-0.8,0.2c-0.2,0.1-0.5,0.2-0.6,0.4
				c-0.2,0.2-0.3,0.4-0.4,0.6c-0.1,0.2-0.2,0.5-0.2,0.8s0,0.5,0.2,0.8c0.1,0.2,0.2,0.5,0.4,0.6c0.2,0.2,0.4,0.3,0.6,0.4
				c0.2,0.1,0.5,0.2,0.8,0.2c0.3,0,0.5,0,0.8-0.2c0.2-0.1,0.5-0.2,0.6-0.4c0.2-0.2,0.3-0.4,0.4-0.6c0.1-0.2,0.2-0.5,0.2-0.8
				s0-0.5-0.2-0.8C38,32.4,37.8,32.2,37.7,32z"/>
			<path class="st4" d="M50.9,24.5h-0.8l0,0h-1v-1.7c0-0.7-0.1-1.3-0.4-1.9c-0.3-0.6-0.6-1.1-1.1-1.6c-0.5-0.5-1-0.8-1.5-1.1
				c-0.6-0.3-1.2-0.4-1.9-0.4c-0.7,0-1.4,0.2-2,0.4c-0.6,0.3-1.1,0.6-1.6,1.1c-0.5,0.5-0.8,1-1.1,1.6c-0.3,0.6-0.4,1.2-0.4,2v1.6
				h-0.8l0,0h-1.7V20h-4.3v4.6h-1.2h-0.7h-0.7V20h-4.1v9c0,0.4-0.1,0.7-0.2,1s-0.3,0.5-0.5,0.7c-0.2,0.2-0.4,0.3-0.6,0.4
				c-0.2,0.1-0.5,0.2-0.6,0.2c-0.2,0-0.4,0.1-0.6,0.1c-0.2,0-0.3,0-0.3,0h-1.4v4.1h1.4c1,0,1.9-0.2,2.8-0.5c0.8-0.3,1.6-0.7,2.2-1.2
				c0.6-0.5,1.1-1.2,1.4-2c0.3-0.8,0.5-1.8,0.5-2.9v0h0.7h0.7h4.2c0.2,0,0.4,0,0.5-0.1s0.3-0.1,0.3-0.2c0.1-0.1,0.2-0.2,0.2-0.3
				c0-0.1,0.1-0.2,0.1-0.4c0.1,0.1,0.2,0.2,0.3,0.3s0.2,0.2,0.3,0.3c0.2,0.1,0.3,0.2,0.5,0.2c0,0,0.1,0,0.2,0v0h0.5h0.2h1.7
				c0.2,0,0.3,0,0.5-0.1s0.4-0.1,0.6-0.3c0.2-0.1,0.4-0.3,0.6-0.5c0.2-0.2,0.4-0.6,0.5-0.9v1.8h7.2h0.5h3.7c0.3,0,0.6-0.1,0.8-0.2
				c0.2-0.2,0.3-0.3,0.4-0.5C55,28,55,27.8,55,27.5c0-0.2,0-0.4,0-0.6V13.3h-4.2L50.9,24.5z M42.9,22.9c0-0.2,0-0.3,0.1-0.4
				c0.1-0.2,0.2-0.3,0.3-0.3c0.1-0.1,0.2-0.2,0.4-0.2s0.3-0.1,0.5-0.1c0.3,0,0.6,0.1,0.8,0.3c0.2,0.2,0.3,0.5,0.4,0.8v1.6h-2.4
				L42.9,22.9z"/>
			<polygon class="st4" points="60.5,13.2 56.3,13.3 56.3,28.8 60.5,28.8 			"/>
		</g>
		<g>
			<path class="st4" d="M18,4.3c0-1.1,0-1.7,0-1.9c0-0.2,0-0.3-0.1-0.3c0-0.1-0.2-0.1-0.3-0.2c-0.1,0-0.2,0-0.3,0c0,0-0.1,0-0.1-0.1
				s0-0.1,0.2-0.1s0.3,0,0.4,0s0.3,0,0.4,0c0.1,0,0.2,0,0.2,0c0.9,0,1.6,0,2,0c0,0,0.1,0,0.2,0c0.1,0,0.2,0,0.2,0s0,0,0.1,0
				c0,0,0,0,0.1,0c-0.1,0.1-0.1,0.1-0.1,0.2s0,0,0,0.1c0,0,0,0.1,0,0.2c0,0.1,0,0.1,0,0.2c0,0,0,0.1,0,0.3c0,0.2,0,0.3,0,0.3
				c0,0.1,0,0.1-0.1,0.1s-0.1,0-0.1-0.1c0-0.1,0-0.2-0.1-0.3c0-0.1,0-0.2-0.1-0.2c-0.1,0-0.2-0.1-0.5-0.1c-0.2,0-0.6,0-1.2,0
				c0,0-0.1,0-0.1,0.1v2.4c0,0.1,0,0.1,0.1,0.1c0.8,0,1.2,0,1.4,0c0.2,0,0.4-0.1,0.4-0.1c0.1-0.1,0.1-0.1,0.1-0.1c0,0,0,0,0,0.1
				c0,0,0,0,0,0.1s0,0.1,0,0.2s0,0.2,0,0.2c0,0.3,0,0.5,0,0.6c0,0.1,0,0.2-0.1,0.2c0,0-0.1,0-0.1-0.1c0-0.1,0-0.2,0-0.3
				c0-0.2-0.2-0.3-0.5-0.3c-0.2,0-0.6,0-1.2,0c0,0-0.1,0-0.1,0.1v0.8v1.5c0,0.3,0.1,0.5,0.2,0.6c0.1,0.1,0.4,0.1,0.8,0.1
				c0.4,0,0.7,0,0.8-0.1c0.2-0.1,0.3-0.3,0.4-0.6C21,7.1,21,7,21,7c0,0,0.1,0,0.1,0.2c0,0,0,0.2,0,0.4C21,7.8,21,7.9,21,8
				c0,0.1,0,0.1-0.1,0.2s-0.1,0-0.1,0s-0.2,0-0.3,0c-0.4,0-0.7,0-1.1,0c-0.3,0-0.6,0-0.8,0c-0.2,0-0.3,0-0.3,0H18
				c-0.2,0-0.4,0-0.5,0c-0.1,0-0.2,0-0.2-0.1s0,0,0.1,0c0.1,0,0.2,0,0.3,0c0.1,0,0.2-0.2,0.3-0.5c0-0.2,0-0.9,0-1.9L18,4.3L18,4.3z"
				/>
			<path class="st4" d="M23.2,5.8c0,0.7,0,1.2,0,1.4c0,0.3,0.1,0.5,0.2,0.5c0.2,0.2,0.5,0.2,1,0.2c0.2,0,0.3,0,0.5,0s0.2,0,0.3-0.1
				c0.1,0,0.2-0.1,0.3-0.2c0.1-0.2,0.2-0.3,0.2-0.5c0-0.1,0-0.1,0.1-0.1s0,0,0,0.1c0,0.3,0,0.6-0.1,0.9c0,0.1-0.1,0.2-0.1,0.2
				c0,0-0.2,0-0.4,0c-0.5,0-0.9,0-1.4,0c-0.5,0-0.8,0-0.9,0h-0.2c-0.1,0-0.2,0-0.2,0c-0.2,0-0.4,0-0.5,0c-0.1,0-0.2,0-0.2-0.1
				s0-0.1,0.1-0.1c0.1,0,0.2,0,0.3,0c0.2,0,0.2-0.2,0.3-0.5c0-0.2,0-0.9,0-1.9V4.1c0-1.1,0-1.7,0-1.9c0-0.2,0-0.3-0.1-0.3
				c0,0-0.2,0-0.3,0c-0.1,0-0.2,0-0.3,0c0,0-0.1,0-0.1-0.1c0,0,0-0.1,0.2-0.1s0.3,0,0.4,0c0.2,0,0.3,0,0.4,0c0.1,0,0.2,0,0.2,0
				s0.1,0,0.2,0c0.1,0,0.3,0,0.4,0s0.3,0,0.3,0c0.1,0,0.2,0,0.2,0.1s0,0.1-0.1,0.1c-0.1,0-0.2,0-0.3,0c-0.2,0-0.3,0.2-0.3,0.5
				c0,0.2,0,0.8,0,1.9L23.2,5.8L23.2,5.8z"/>
			<path class="st4" d="M37.9,7.6l-0.4-4.2h0l-2.1,4.5c-0.1,0.2-0.2,0.3-0.2,0.4c0,0-0.1,0.1-0.1,0.1s-0.2-0.1-0.3-0.4l-1-2
				c0-0.1-0.2-0.5-0.6-1.2s-0.5-1.1-0.6-1.2h0l-0.3,4c0,0.1,0,0.2,0,0.5c0,0.2,0.1,0.2,0.2,0.3c0.1,0,0.2,0,0.3,0c0,0,0.1,0,0.1,0
				c0,0,0,0.1-0.2,0.1c-0.1,0-0.3,0-0.5,0l-0.3,0c0,0-0.1,0-0.3,0c-0.2,0-0.3,0-0.4,0c-0.1,0-0.2,0-0.2-0.1s0,0,0.1,0
				c0.1,0,0.2,0,0.3,0c0.1,0,0.2-0.1,0.2-0.2c0-0.1,0.1-0.2,0.1-0.2s0-0.2,0-0.3l0.6-5.7c0-0.1,0-0.2,0.1-0.2c0,0,0.1,0,0.2,0.2
				l2.6,5.5l2.6-5.5c0-0.1,0.1-0.2,0.1-0.2s0.1,0.1,0.1,0.2l0.6,5.5c0.1,0.4,0.2,0.7,0.4,1c0.2,0.3,0.4,0.5,0.7,0.7
				c0.3,0.2,0.5,0.3,0.8,0.5c0.3,0.1,0.6,0.2,0.8,0.2s0.5,0.1,0.7,0c0.2,0,0.4,0,0.6,0c0.2,0,0.4,0,0.5-0.1c0.2,0,0.3-0.1,0.4-0.1
				c0.1,0,0.2,0,0.3-0.1c0.1,0,0.1,0,0.1,0c0,0,0,0,0,0.1s0,0.1-0.1,0.1c0,0-0.2,0.1-0.3,0.2s-0.3,0.2-0.4,0.2s-0.3,0.1-0.4,0.2
				c-0.2,0.1-0.4,0.1-0.6,0.1c-0.2,0-0.5,0-0.7,0c-0.3,0-0.5,0-0.6,0c-0.2,0-0.4-0.1-0.7-0.2c-0.3-0.1-0.6-0.3-0.9-0.5
				C38.4,9,38,8.4,37.9,7.6z"/>
			<path class="st4" d="M41.8,5.8c0,1,0,1.6,0,1.9c0,0.3,0.2,0.5,0.3,0.5c0.2,0,0.3,0,0.4,0c0,0,0.1,0,0.1,0s0,0.1-0.2,0.1
				c-0.2,0-0.3,0-0.5,0c-0.2,0-0.3,0-0.4,0h-0.2c0,0-0.1,0-0.2,0c-0.1,0-0.2,0-0.4,0c-0.2,0-0.2,0-0.3,0c-0.1,0-0.2,0-0.2-0.1
				s0,0,0.1,0c0.1,0,0.2,0,0.3,0c0.1,0,0.2-0.2,0.3-0.5c0-0.2,0-0.9,0-1.9V4.3c0-1.1,0-1.7,0-1.9c0-0.3-0.1-0.5-0.3-0.5
				c-0.1,0-0.2,0-0.3,0c0,0-0.1,0-0.1-0.1s0-0.1,0.2-0.1h0.9h0.9c0.1,0,0.2,0,0.2,0.1s0,0.1-0.1,0.1c-0.1,0-0.2,0-0.2,0
				C42,2,41.9,2,41.8,2.1c0,0.1-0.1,0.2-0.1,0.3c0,0.2,0,0.8,0,1.9L41.8,5.8L41.8,5.8z"/>
			<path class="st4" d="M46.7,8c0.4,0,0.7,0,0.9-0.1c0.2-0.1,0.3-0.2,0.5-0.3c0.1-0.1,0.1-0.2,0.1-0.3c0-0.1,0-0.2,0.1-0.2
				c0-0.1,0-0.1,0.1-0.1c0,0,0.1,0.1,0.1,0.2c0,0.2-0.1,0.5-0.2,1c0,0.1-0.1,0.2-0.1,0.2c0,0-0.1,0-0.2,0c-0.5,0-1.2,0-2.2,0
				c-1,0-1.7,0-2.2,0c-0.1,0-0.2,0-0.2-0.1s0-0.1,0.1-0.3c1.8-2.7,3.1-4.7,3.8-5.8h-1.9c-0.6,0-1,0.1-1.2,0.2
				c-0.2,0.1-0.3,0.2-0.4,0.3c-0.1,0.2-0.1,0.3-0.2,0.4c0,0.1,0,0.2-0.1,0.2c0,0,0,0,0-0.1c0-0.2,0.1-0.5,0.2-1.2
				c0-0.1,0-0.2,0.1-0.2c0,0,0,0,0.1,0c0.1,0,0.2,0,0.2,0h1.5H48c0.1,0,0.2,0,0.2,0.1s0,0.1,0,0.1c-0.3,0.5-0.9,1.5-1.9,2.9
				c-0.9,1.4-1.6,2.4-2,3.1L46.7,8L46.7,8z"/>
			<path class="st4" d="M49.8,4.3c0-1.1,0-1.7,0-1.9c0-0.2,0-0.3-0.1-0.3c0-0.1-0.2-0.1-0.3-0.2c-0.1,0-0.2,0-0.3,0
				c0,0-0.1,0-0.1-0.1s0-0.1,0.2-0.1c0.1,0,0.3,0,0.4,0c0.2,0,0.3,0,0.4,0c0.1,0,0.2,0,0.2,0c0.9,0,1.6,0,2,0c0,0,0.1,0,0.2,0
				c0.1,0,0.2,0,0.2,0s0,0,0.1,0c0,0,0,0,0.1,0c0,0,0,0,0,0.1c0,0,0,0,0,0.1s0,0.1,0,0.2c0,0.1,0,0.1,0,0.2c0,0,0,0.1,0,0.3
				c0,0.2,0,0.3,0,0.3c0,0.1,0,0.1-0.1,0.1c0,0-0.1,0-0.1-0.1c0-0.1,0-0.2-0.1-0.3c0-0.1-0.1-0.2-0.2-0.2c-0.1,0-0.2-0.1-0.5-0.1
				c-0.2,0-0.6,0-1.2,0c0,0-0.1,0-0.1,0.1v2.4c0,0.1,0,0.1,0.1,0.1c0.8,0,1.2,0,1.4,0c0.2,0,0.4-0.1,0.4-0.1
				c0.1-0.1,0.1-0.1,0.1-0.1c0,0,0,0,0,0.1c0,0,0,0,0,0.1s0,0.1,0,0.2s0,0.2,0,0.2c0,0.3,0,0.5,0,0.6c0,0.1,0,0.2-0.1,0.2
				c0,0-0.1,0-0.1-0.1c0-0.1,0-0.2,0-0.3C52.2,5,52,5,51.8,4.9c-0.2,0-0.6,0-1.2,0c0,0-0.1,0-0.1,0.1v0.8v1.5c0,0.3,0.1,0.5,0.2,0.6
				c0.1,0.1,0.4,0.1,0.8,0.1c0.4,0,0.7,0,0.8-0.1c0.2-0.1,0.3-0.3,0.4-0.6c0-0.1,0-0.2,0.1-0.2c0,0,0.1,0,0.1,0.2c0,0,0,0.2,0,0.4
				c0,0.2,0,0.4-0.1,0.5c0,0.1,0,0.1-0.1,0.2c0,0-0.1,0-0.1,0c0,0-0.2,0-0.3,0c-0.4,0-0.7,0-1.1,0c-0.3,0-0.6,0-0.8,0
				c-0.2,0-0.3,0-0.3,0h-0.3c-0.2,0-0.4,0-0.5,0c-0.1,0-0.2,0-0.2-0.1c0,0,0,0,0.1,0c0.1,0,0.2,0,0.3,0c0.1,0,0.2-0.2,0.3-0.5
				c0-0.2,0-0.9,0-1.9V4.3z"/>
			<path class="st4" d="M54.6,7.2c0,0.3,0,0.6,0.1,0.8c0,0.2,0.2,0.2,0.3,0.3c0.1,0,0.3,0,0.4,0c0,0,0.1,0,0.1,0.1
				c0,0,0,0.1-0.2,0.1h-0.9h-0.8c-0.1,0-0.2,0-0.2-0.1c0,0,0-0.1,0.1-0.1c0.2,0,0.3,0,0.3,0c0.1,0,0.2-0.1,0.2-0.3
				c0-0.2,0-0.4,0-0.8v-5c0-0.3,0-0.4,0.1-0.4c0,0,0.2,0.1,0.3,0.3c0.1,0.1,1,1.1,2.8,3l2.1,2.3l-0.1-4.4c0-0.3,0-0.5-0.1-0.6
				C59.1,2.1,59,2,58.8,2s-0.3,0-0.4,0c0,0-0.1,0-0.1-0.1c0,0,0.1,0,0.2,0h0.9h0.8c0.1,0,0.2,0,0.2,0c0,0,0,0.1-0.1,0.1
				s-0.2,0-0.2,0c-0.2,0-0.2,0.1-0.3,0.2c0,0.1-0.1,0.3-0.1,0.6l0,5.1c0,0.2,0,0.3,0,0.3c0,0.1,0,0.2,0,0.2s0,0.1,0,0.1h0
				c0,0-0.3-0.2-0.6-0.6c0,0-0.2-0.2-0.4-0.4c-0.2-0.2-0.5-0.5-0.9-0.9c-0.4-0.4-0.7-0.7-0.9-1L54.4,3L54.6,7.2z"/>
		</g>
	</g>
</g>
</svg>
