<?xml version="1.0" encoding="utf-8"?>
<!-- Generator: Adobe Illustrator 24.1.3, SVG Export Plug-In . SVG Version: 6.00 Build 0)  -->
<svg version="1.1" id="Layer_1" xmlns="http://www.w3.org/2000/svg" xmlns:xlink="http://www.w3.org/1999/xlink" x="0px" y="0px"
	 viewBox="0 0 259.2 77.8" style="enable-background:new 0 0 259.2 77.8;" xml:space="preserve">
<style type="text/css">
	.st0{display:none;}
	.st1{display:inline;opacity:0.4;}
	.st2{fill:#92F7FF;}
	.st3{display:inline;}
	.st4{fill:#4BABE0;}
	.st5{fill:#FF7031;}
</style>
<g id="BGD">
</g>
<g id="Hero">
</g>
<g id="Slogan">
</g>
<g id="Services">
</g>
<g id="Clients">
</g>
<g id="Proposal">
</g>
<g id="Diver_Shop">
</g>
<g id="Guides_1_" class="st0">
	<g id="Grid" class="st1">
		<rect x="745.1" y="-2047.6" class="st2" width="76" height="6963"/>
		<rect x="647.6" y="-2047.6" class="st2" width="76" height="6963"/>
		<rect x="842.5" y="-2047.6" class="st2" width="76" height="6963"/>
		<rect x="1134.9" y="-2047.6" class="st2" width="76" height="6963"/>
		<rect x="940" y="-2047.6" class="st2" width="76" height="6963"/>
		<rect x="1037.4" y="-2047.6" class="st2" width="76" height="6963"/>
		<rect x="1232.3" y="-2047.6" class="st2" width="76" height="6963"/>
		<rect x="1329.8" y="-2047.6" class="st2" width="76" height="6963"/>
		<rect x="1427.2" y="-2047.6" class="st2" width="76" height="6963"/>
		<rect x="1524.7" y="-2047.6" class="st2" width="76" height="6963"/>
		<rect x="1622.1" y="-2047.6" class="st2" width="76" height="6963"/>
		<rect x="1719.6" y="-2047.6" class="st2" width="76" height="6963"/>
	</g>
	<g id="Guides" class="st3">
	</g>
</g>
<g>
	<path class="st4" d="M142,73.7h-16.8l2.2-8.8H50.5c-3.4,0-6.6-0.9-9.3-2.7c-2.6,1.8-5.6,2.7-9,2.7H16.9c-4.8,0-9.2-2-12.2-5.7
		C1.5,55.5,0.4,50.8,1.4,46l0.1-0.2l4.7-19.2c2.5-7.1,8.1-11.2,15.2-11.2h49.8c3.3,0,6.4,0.9,9,2.6c2.5-1.7,5.5-2.6,8.7-2.6l29.5,0
		l0.4-1.8v-0.3c0-1.5,0.6-2.9,1.6-4c0.7-1.1,1.6-2.1,2.6-2.9c1.9-1.5,4.2-2.3,6.6-2.3h7c2.9,0,5.6,1,7.7,2.8l0.7-2.9h21.3l-0.7,3.4
		c0.1,0,0.2,0,0.3,0l0.4,0l0.8-3.4h21.7l-2.8,11.3h23.9l-2,7.8h11l0,0.1l16,0c0.2,0,0.3,0,0.5,0l0.2,0l8.3,0l0.3,0
		c6.8,0.4,10.2,3.7,11.8,6.4v0c2,3.3,2.6,7,1.7,10.8l0,0.2L251.8,65l-21.7-0.2c-4.1-0.3-7.4-1.3-10-3.3c-0.3-0.2-0.7-0.5-1-0.8
		c-0.6,0.6-1.3,1-2,1.5c-1.9,1.1-3.6,1.9-5.4,2.3c-1.4,0.3-2.1,0.5-3.2,0.5h-37.3l0-0.1l-5.4-0.1c-2.6-0.2-4.9-0.7-6.9-1.6
		c-1.3,2.3-3,4.3-5.2,6.1C150.1,72.2,146.1,73.7,142,73.7z M129,70.7h13c3.5,0,6.8-1.3,10-3.7c2.3-1.8,4-4,5.1-6.3l0.7-1.5l1.4,0.8
		c1.9,1.1,4.2,1.7,7,1.9l0.2,0l8.8,0.1l0,0h33.4c0.8,0,1.3-0.1,2.5-0.4c1.4-0.3,2.9-0.9,4.5-1.9c0.9-0.5,1.7-1.2,2.5-2l1.1-1.1
		l1.1,1.1c0.5,0.6,1.1,1.1,1.7,1.5c2.1,1.6,4.9,2.5,8.4,2.7l0.2,0l19,0.1l5.3-22.2c0.7-3.1,0.3-6.1-1.3-8.6l0,0
		c-1.3-2.1-3.9-4.6-9.4-4.9l-0.2,0l-8.3,0c-0.1,0-0.2,0-0.3,0l-0.4,0h-19.7l0-0.1h-11.1l2-7.8h-23.8l0.5-2.4l2.2-8.9h-15.5l-0.8,3.3
		l-1.2,0.1l-1.3,0c-0.7,0-1.4,0.1-2.1,0.3l-2.3,0.5l0.9-4.2h-15.2l-0.8,3.4h-3l-0.4-0.5c-1.7-1.9-3.9-2.9-6.5-2.9h-7
		c-1.8,0-3.4,0.6-4.8,1.6c-0.8,0.6-1.5,1.4-2,2.2l-0.2,0.3c-0.5,0.5-0.8,1.3-0.8,2l0,0.8l-1,4.3l-31.9,0c-3,0-5.6,0.9-7.8,2.6
		l-0.9,0.7L79.3,21c-2.3-1.8-5.1-2.6-8.1-2.6H21.4c-5.8,0-10.3,3.3-12.4,9.2l-0.1,0.3L4.3,46.6c-0.8,3.9,0.1,7.7,2.6,10.7
		c2.5,3,6,4.6,9.9,4.6h15.4c3.1,0,5.8-0.9,8-2.7l0.9-0.8l0.9,0.7c2.4,1.8,5.2,2.8,8.4,2.8h80.7L129,70.7z"/>
	<g>
		<path class="st5" d="M22.5,36.5l-1.7,7.2h12.1l-1,4.2c0,0.2-0.1,0.4-0.3,0.6c-0.2,0.1-0.4,0.2-0.5,0.2H18.9
			c-0.3,0-0.5-0.1-0.7-0.3c-0.2-0.2-0.2-0.5-0.2-0.8l3.7-15.2c0.1-0.2,0.2-0.4,0.4-0.6c0.2-0.1,0.4-0.2,0.5-0.2H36h7.8l1.8-7.2H21.4
			c-3.2,0-5.5,1.7-6.7,5.2l-4.4,18.2c-0.5,2.1,0,4,1.4,5.6c1.4,1.6,3.1,2.5,5.3,2.5h15.4c3.2,0,5.5-1.7,6.8-5.2
			c0.1-0.4,0.4-1.6,0.9-3.4c0.5-1.9,0.9-3.9,1.5-6c0.5-2.1,0.9-3.7,1.2-4.8h-6.7H22.5z"/>
		<path class="st5" d="M77.8,34.6l0.5-2.1c0.5-2.1,0-4-1.5-5.6c-1.5-1.6-3.3-2.5-5.6-2.5c-0.3,0-1.3,0-3,0c-1.7,0-3.5,0-5.5,0
			s-3.8,0-5.3,0s-2.3,0-2.5,0c0,0-0.1,0-0.1,0c-3.4,0-5.8,1.7-7.2,5.2c-0.1,0.5-0.4,1.6-0.8,3.5c-0.5,1.9-1,3.9-1.5,6.2
			c-0.6,2.3-1.2,5.1-2.1,8.5c-0.4,2.1,0.1,4,1.5,5.6c1.4,1.6,3.4,2.5,5.7,2.5c0.3,0,1.3,0,3,0s3.5,0,5.5,0c2,0,3.7,0,5.2,0
			c1.5,0,2.3,0,2.5,0c3.6,0,5.9-1.7,7.2-5.2c0.1-0.5,0.4-1.7,0.9-3.7c0.5-2,1-4.1,1.6-6.5C76.9,38.2,77.4,36.2,77.8,34.6z
			 M69.3,35.6c-0.4,1.6-0.8,3.3-1.3,5.2c-0.5,1.9-1,4.3-1.7,7.1c-0.2,0.5-0.5,0.8-1,0.8c-0.3,0-1.1,0-2.4,0c-1.3,0-2.7,0-4.3,0
			s-2.9,0-4.1,0c-1.2,0-1.8,0-1.9,0c-0.3,0-0.6-0.1-0.8-0.3c-0.2-0.2-0.3-0.5-0.2-0.8c0.1-0.4,0.4-1.4,0.7-2.9
			c0.4-1.6,0.8-3.3,1.3-5.2c0.5-1.9,0.9-3.5,1.2-4.9c0.3-1.4,0.5-2.1,0.5-2.2c0.2-0.5,0.5-0.8,1-0.8c0.3,0,1.1,0,2.4,0
			c1.3,0,2.7,0,4.3,0c1.6,0,2.9,0,4.1,0c1.2,0,1.8,0,1.9,0c0,0,0.1,0,0.1,0c0.4,0,0.6,0.1,0.8,0.3c0.2,0.2,0.2,0.5,0.2,0.8
			C69.9,33.1,69.7,34.1,69.3,35.6z"/>
		<path class="st4" d="M100.6,36.5c-0.3,0-1,0-2.2,0c-1.2,0-2.5,0-3.9,0c-1.4,0-2.6,0-3.7,0c-1,0-1.6,0-1.7,0
			c-0.3,0-0.5-0.1-0.7-0.3c-0.2-0.2-0.2-0.5-0.2-0.8c0-0.1,0.1-0.3,0.2-0.7c0.1-0.3,0.2-0.7,0.2-1c0.1-0.4,0.2-0.8,0.3-1.4
			c0.1-0.2,0.2-0.3,0.3-0.5c0.2-0.1,0.3-0.2,0.6-0.2c0.4,0,1.6,0,3.6,0c2,0,4.3,0,6.8,0c2.5,0,4.7,0,6.5,0c1.9,0,2.9,0,3.1,0
			c0-0.2,0.2-0.7,0.3-1.5c0.2-0.7,0.4-1.6,0.6-2.4c0.2-0.9,0.5-2,0.8-3.3c-0.4,0-1.8,0-4.1,0c-2.3,0-4.9,0-7.7,0c-2.8,0-5.3,0-7.4,0
			c-2.1,0-3.3,0-3.5,0c0,0-0.1,0-0.1,0c-3.1,0-5.3,1.7-6.7,5.1c-0.1,0.2-0.2,0.8-0.4,1.6c-0.2,0.8-0.4,1.6-0.6,2.5
			c-0.2,0.8-0.4,1.4-0.5,1.8l0,0.2c0,0,0,0.1,0,0.1c-0.5,2.2-0.1,4.1,1.2,5.7c1.3,1.6,3,2.4,5.1,2.4c0.2,0,1,0,2.1,0s2.5,0,3.9,0
			c1.4,0,2.7,0,3.7,0c1.1,0,1.6,0,1.7,0c0,0,0,0,0,0c0.3,0,0.5,0.1,0.7,0.4c0.2,0.2,0.2,0.5,0.1,0.8c0,0.1-0.1,0.3-0.2,0.7
			c-0.1,0.3-0.2,0.7-0.2,1c-0.1,0.4-0.2,0.8-0.3,1.4c-0.2,0.5-0.5,0.7-0.9,0.7c-0.4,0-1.6,0-3.6,0c-2,0-4.3,0-6.8,0s-4.7,0-6.5,0
			c-1.8,0-2.9,0-3.1,0c0,0.2-0.2,0.7-0.3,1.5c-0.2,0.8-0.4,1.6-0.6,2.5c-0.2,0.9-0.5,2-0.8,3.4c0.4,0,1.8,0,4.1,0c2.3,0,4.9,0,7.7,0
			c2.8,0,5.3,0,7.4,0c2.1,0,3.3,0,3.5,0c0,0,0.1,0,0.1,0c1.6,0,3-0.5,4.3-1.5c1.2-1,2-2.2,2.5-3.8c0-0.2,0.1-0.6,0.3-1.2
			c0.2-0.6,0.3-1.3,0.5-2c0.2-0.7,0.3-1.4,0.5-1.9s0.2-0.8,0.2-0.9c0,0,0-0.1,0-0.1c0.5-2.1,0.1-4-1.2-5.7
			C104.4,37.3,102.7,36.5,100.6,36.5z"/>
		<polygon class="st4" points="134,32.1 125.7,32.1 118.5,40 122.6,24.4 115,24.4 107.2,55.9 114.8,55.9 117.2,45.2 121.2,55.9 
			128.2,55.9 123.6,43.8 		"/>
		<path class="st4" d="M150.3,32.1L150.3,32.1L150.3,32.1l-4.3,17.3h-4.1c-0.5,0-0.8-0.2-1-0.5c-0.2-0.3-0.3-0.7-0.3-1.1l3.8-15.7
			h-7.7l-3.8,15.7c-0.5,2.2-0.1,4,1.1,5.7c1.2,1.6,2.9,2.4,5,2.4h5.5l-0.2,0.7c-0.1,0.4-0.4,0.7-0.8,1.1c-0.4,0.3-0.8,0.5-1.2,0.5
			h-4l-1.7,6.6h5.3c2.1,0,4.2-0.8,6.2-2.4c2-1.6,3.3-3.5,3.9-5.7l5.9-24.6H150.3z"/>
		<path class="st4" d="M181.8,47l5.6-22.6h-7.5l-2.1,7.8h-6c-5.6,0.3-9.7,2.9-12.2,7.6c-1.9,4.1-2.1,7.8-0.8,11
			c0.6,1.5,1.5,2.7,2.6,3.6c1.2,0.9,2.9,1.4,5.1,1.5l13.1,0.1l1.6-6.8h-8.9h-3.6c-3.2,0-4.3-1.9-3.2-5.5c0.4-1.3,1.1-2.4,2.3-3.4
			c1.2-1,2.7-1.5,4.5-1.6h0h3.8h0l-2.1,8.3H181.8z"/>
		<polygon class="st4" points="188.7,32 182.8,55.9 190.6,55.9 196.4,32 		"/>
		<polygon class="st4" points="198.3,24.4 190.6,24.4 189.2,30 196.9,30 		"/>
		<path class="st4" d="M215.4,32.3l-7.6,16.9h-4.7l4.3-17h-7.5l-5.8,23.8h14.5c0.1,0,0.5-0.1,1.2-0.3c0.8-0.2,1.6-0.6,2.6-1.2
			c1-0.6,1.9-1.6,2.7-2.9l8.4-19.4H215.4z"/>
		<path class="st4" d="M248.4,34.3c-0.8-1.2-2.3-1.9-4.7-2.1h-7.7c-5.6,0.3-9.7,2.9-12.2,7.6c-1.9,4.1-2.1,7.8-0.8,11
			c0.6,1.5,1.5,2.7,2.6,3.6c1.2,0.9,2.9,1.4,5.1,1.5l14.1,0.1l1.6-6.8h-9.9h-3.6c-3.1-0.1-4.1-1.9-3.2-5.5c0.4-1.3,1.1-2.4,2.3-3.4
			c1.2-1,2.7-1.5,4.5-1.6h0h4.7h0.1l-0.5,2h-2.5h-2.7c-1.3,0.1-2.3,0.7-2.9,1.7c-0.7,1-1,2.1-1,3.1c0,1,0.4,1.6,1.2,1.7h13.9
			l2.1-8.5l0-0.2C249.3,36.9,249.2,35.5,248.4,34.3z"/>
		<path class="st5" d="M129.8,26.7c1.2,0,2.4,0,3.4,0s1.6,0,1.8,0c1.3,0,2.2-0.7,2.8-2.2c0.3-1.5,0.6-2.7,0.8-3.7s0.4-1.9,0.6-2.7
			c0.2-0.8,0.3-1.3,0.3-1.5c0.2-0.9,0-1.7-0.5-2.4c-0.6-0.7-1.3-1.1-2.2-1.1h0h0c-0.1,0-0.4,0-1.1,0s-1.4,0-2.3,0s-1.7,0-2.4,0
			c-0.7,0-1.2,0-1.3,0c-0.4,0-0.8,0.1-1.2,0.4c-0.4,0.3-0.6,0.6-0.7,1.1c0,0,0,0,0,0c0,0.1-0.1,0.7-0.4,1.8s-0.6,2.4-0.9,4
			c-0.3,1.5-0.7,2.9-0.9,4.1c-0.3,1.2-0.5,2-0.5,2.2c0.1,0,0.6,0,1.5,0C127.5,26.7,128.6,26.7,129.8,26.7z M129.8,20.1
			c0.2-0.9,0.4-1.8,0.6-2.5c0.2-0.8,0.3-1.2,0.3-1.4c0,0,0.3,0,0.8,0c0.5,0,1,0,1.7,0c0.7,0,1.2,0,1.8,0c0.5,0,0.9,0,1,0
			c0.1,0,0.2,0,0.3,0.1c0.1,0.1,0.1,0.2,0.1,0.3c-0.3,1.3-0.5,2.4-0.7,3.2c-0.2,0.9-0.4,1.6-0.5,2.3c-0.2,0.7-0.3,1.1-0.3,1.3
			c-0.1,0-0.3,0-0.9,0c-0.5,0-1.1,0-1.9,0c-0.7,0-1.4,0-1.9,0c-0.6,0-1,0-1.1,0C129.3,22.2,129.6,21,129.8,20.1z"/>
		<path class="st5" d="M139.9,25.6c0.5,0.7,1.2,1,2,1h3l0,0h2.8l2.4-10.2H147l-1.8,7.4h-2.2c-0.2,0-0.3-0.1-0.4-0.2
			c-0.1-0.1-0.1-0.3-0.1-0.5l1.6-6.8H141l-1.6,6.8C139.2,24.1,139.4,25,139.9,25.6z"/>
		<path class="st5" d="M153,22.9l0.9-3.6h0.5h1.5c1.3,0,1.8,0.8,1.3,2.4c-0.2,0.6-0.5,1.1-0.9,1.5c-0.5,0.4-1.1,0.6-1.9,0.7h0h-1.5
			h-3.1l-0.6,2.8h5.5c2.3-0.1,4-1.2,5-3.3c0.8-1.8,0.9-3.4,0.3-4.8c-0.2-0.6-0.6-1.2-1.1-1.5c-0.5-0.4-1.2-0.6-2.1-0.7l-2.2,0
			l0.7-3.4h-3l-2.3,9.9H153z"/>
		<path class="st5" d="M162.3,26c0.5,0.4,1.2,0.6,2.1,0.7l5.4,0l2.3-10.2h-5.5c-2.3,0.1-4,1.2-5,3.3c-0.8,1.8-0.9,3.4-0.3,4.8
			C161.4,25.1,161.8,25.6,162.3,26z M164,21.4c0.1-0.6,0.5-1.1,0.9-1.5c0.5-0.4,1.1-0.7,1.9-0.7h1.5l-0.2,1.1h0l-0.8,3.4h-2
			C164,23.8,163.6,23,164,21.4z"/>
		<polygon class="st5" points="177.4,13.1 174.2,13.1 173.7,15.5 176.8,15.5 		"/>
		<polygon class="st5" points="174.2,26.7 176.6,16.4 173.5,16.4 171,26.7 		"/>
	</g>
</g>
</svg>
