<svg id="Layer_1" data-name="Layer 1" xmlns="http://www.w3.org/2000/svg" viewBox="0 0 22.64 14.36"><defs><style>.cls-1{fill:#006d77;}</style></defs><path class="cls-1" d="M.29.14H7.85a3.55,3.55,0,0,1,2.94,1.3A3.72,3.72,0,0,1,11.38,5a2.19,2.19,0,0,1-1.55,1.4,1,1,0,0,1-.25.06,2.35,2.35,0,0,1,.66.14,2.12,2.12,0,0,1,1.34,1.14,4.83,4.83,0,0,1,0,4.29,3.66,3.66,0,0,1-2.69,2,6,6,0,0,1-1.27.14H.29ZM3.52,11.68H7.36A1.48,1.48,0,0,0,9,10.41a.2.2,0,0,1,0-.07A4,4,0,0,0,9,9.25,1.52,1.52,0,0,0,7.38,7.88H3.52Zm0-9V5.75H7.6a.88.88,0,0,0,.85-.69,2.8,2.8,0,0,0,.08-1.49,1.06,1.06,0,0,0-1.11-1H3.52Z" transform="translate(-0.29 -0.13)"/><path class="cls-1" d="M22.88,9.8H15.66a2.15,2.15,0,0,0,1,2.1,2.34,2.34,0,0,0,1.21.33,5.14,5.14,0,0,0,1.17-.1,1.51,1.51,0,0,0,1.31-1.37h2.48v.51A3.2,3.2,0,0,1,20.62,14a7.14,7.14,0,0,1-5,0,4.29,4.29,0,0,1-2.72-3.13,6.08,6.08,0,0,1,1-5.39,4.52,4.52,0,0,1,3.21-1.76,6.56,6.56,0,0,1,2.61.14A4.13,4.13,0,0,1,22.6,6.83a7.47,7.47,0,0,1,.31,2.66v.16ZM15.56,7.91h4.58a2,2,0,0,0-1.5-2.07,2.45,2.45,0,0,0-3,1.73A2.05,2.05,0,0,0,15.56,7.91Z" transform="translate(-0.29 -0.13)"/><path class="cls-1" d="M15,2.67V1h5.76V2.67Z" transform="translate(-0.29 -0.13)"/></svg>