<svg id="Layer_1" data-name="Layer 1" xmlns="http://www.w3.org/2000/svg" viewBox="0 0 14.18 14.33"><defs><style>.cls-1{fill:#006d77;}</style></defs><path class="cls-1" d="M8.27,6.06a7.81,7.81,0,0,1,.62-.67,3.11,3.11,0,0,1,1.85-.76A3.73,3.73,0,0,1,13,5.07,3.09,3.09,0,0,1,14.4,7.23a6.42,6.42,0,0,1,.11,1.16v5.82c0,.21,0,.21-.21.21H11.78c-.19,0-.19,0-.19-.2V9.37a3.19,3.19,0,0,0-.2-1.18,1.33,1.33,0,0,0-1.24-.88,1.85,1.85,0,0,0-1,.19A1.65,1.65,0,0,0,8.3,8.75a4.4,4.4,0,0,0-.06.73v4.79c0,.21,0,.21-.21.21H5.57c-.19,0-.2,0-.2-.2V5.12c0-.15,0-.2.2-.19H8.06c.18,0,.18,0,.18.19Z" transform="translate(-0.34 -0.15)"/><path class="cls-1" d="M.58,9.66V5.1c0-.21,0-.21.2-.21H3.39c.14,0,.19.05.19.19v9.18c0,.14-.05.19-.19.18H.75c-.14,0-.17,0-.17-.18Z" transform="translate(-0.34 -0.15)"/><path class="cls-1" d="M3.84,1.93A1.75,1.75,0,0,1,2.1,3.7h0A1.75,1.75,0,0,1,.34,2v0A1.74,1.74,0,0,1,2.07.15h0A1.73,1.73,0,0,1,3.84,1.9Z" transform="translate(-0.34 -0.15)"/></svg>