<?xml version="1.0" encoding="utf-8"?>
<!-- Generator: Adobe Illustrator 24.1.3, SVG Export Plug-In . SVG Version: 6.00 Build 0)  -->
<svg version="1.1" id="Layer_1" xmlns="http://www.w3.org/2000/svg" xmlns:xlink="http://www.w3.org/1999/xlink" x="0px" y="0px"
	 viewBox="0 0 125.2 174" style="enable-background:new 0 0 125.2 174;" xml:space="preserve">
<style type="text/css">
	.st0{fill:#011901;}
</style>
<g>
	<g>
		<path class="st0" d="M48.8,68.7c-3.4-0.1-6-1.1-8.9-3.7l-0.3-0.2l-2.3,2.7l0.2,0.2c3.3,3,6.9,4.4,11.1,4.4c5.6,0,9.4-3.2,9.4-7.9
			v-0.1c0-4.1-2.7-6.5-9-7.9c-5.9-1.3-7-2.6-7-4.9v-0.1c0-2.3,2.2-4,5.4-4c2.8,0,5.1,0.9,7.5,2.8l0.3,0.2l2.3-2.7l-0.2-0.2
			c-2.9-2.4-5.8-3.4-9.5-3.4c-5.3,0-9.1,3.2-9.1,7.6v0.1c0,5,3.7,6.8,9.2,8c5.6,1.2,6.7,2.5,6.7,4.8v0.1
			C54.5,67,52.1,68.7,48.8,68.7z"/>
		<polygon class="st0" points="74.3,71.7 78,71.8 78,48.1 87,48 87,44.5 65.4,44.6 65.3,48.1 74.3,48 		"/>
		<path class="st0" d="M109.4,10.8H15v94.4h94.4V10.8z M105.4,101.3H19V14.9h86.3L105.4,101.3L105.4,101.3z"/>
		<polygon class="st0" points="16.6,155.5 8.1,155.6 8,148.9 6.1,148.9 6.3,164.2 8.2,164.2 8.1,157.4 16.6,157.3 16.7,164.1 
			18.7,164 18.5,148.7 16.5,148.8 		"/>
		<path class="st0" d="M46.4,148.3c-4.4,0.1-7.8,3.6-7.8,8.1s3.5,7.8,7.9,7.8s7.8-3.6,7.8-8.1C54.2,151.6,50.8,148.3,46.4,148.3z
			 M46.6,162.4c-3.3,0-5.9-2.5-6-6.1c-0.1-3.5,2.4-6.1,5.7-6.2s5.9,2.5,6,6.1C52.4,159.8,49.9,162.4,46.6,162.4z"/>
		<polygon class="st0" points="81.7,156.9 76.2,148.9 76.1,148.9 74.2,148.9 74.4,164.2 76.3,164.2 76.1,152.2 81.6,160 81.8,160 
			87,152.1 87.2,164.1 89.2,164 89,148.7 87.1,148.8 		"/>
		<polygon class="st0" points="111.8,162.5 111.7,157.4 120,157.3 120,155.5 111.7,155.6 111.6,150.6 120.9,150.5 120.9,148.8 
			109.7,148.9 109.9,164.2 121.2,164.1 121.2,162.4 		"/>
	</g>
</g>
</svg>
