<svg id="Layer_1" data-name="Layer 1" xmlns="http://www.w3.org/2000/svg" viewBox="0 0 21.58 35.65"><defs><style>.cls-1{fill:#006d77;}</style></defs><path class="cls-1" d="M25,7.19h9.82c.94,0,.95,0,.95.92V20.93c0,.91,0,.92-.95.92-6.57,0-13.13,0-19.7,0-.69,0-.94-.17-.93-.89q0-6.45,0-12.9c0-.73.24-.9.93-.89C18.43,7.21,21.73,7.19,25,7.19Zm-9.53.72L25,16.68l9.51-8.77ZM23,15.75l-7.3,5.37H34.33L27,15.75,25.88,16.8c-.87.81-.87.81-1.77,0Zm-.5-.48L15,8.37V20.79Zm5,0L35,20.79V8.36Z" transform="translate(-14.21 -7.18)"/><path class="cls-1" d="M30.84,33.05a6.73,6.73,0,0,0-3.38,4.79h.61v1.28h.8c0,.08,0,.15,0,.21v3.28c0,.15,0,.21-.19.21H21.13V39.13h.78V37.86h.64A6.8,6.8,0,0,0,19.16,33c.19-.38.36-.74.53-1.09q2.25-4.61,4.49-9.22a.33.33,0,0,1,.36-.22h1a.23.23,0,0,1,.24.16c.71,1.47,1.43,2.94,2.14,4.4l2.82,5.79Zm-7.5,4.79h3.13c.15,0,.2-.05.23-.19a10.17,10.17,0,0,1,.85-2.37,7.1,7.1,0,0,1,2.16-2.4c.09-.08.15-.13.08-.27Q28.49,30,27.2,27.31c-.58-1.18-1.15-2.36-1.72-3.54l-.1-.13v.27c0,.72,0,1.45,0,2.18,0,1.16,0,2.32,0,3.48,0,.2,0,.35.27.38a.56.56,0,0,1,.24.13,1.49,1.49,0,0,1-1.05,2.68,1.5,1.5,0,0,1-1.29-1.26,1.46,1.46,0,0,1,.93-1.59c.12-.05.16-.1.16-.22V23.8s0-.08,0-.12h0l-4.44,9.11A7.41,7.41,0,0,1,23.34,37.84Zm4.77,2.06H22c-.14,0-.17,0-.17.18,0,.61,0,1.21,0,1.82,0,0,0,.1,0,.16h6.22Zm-5.41-.78h4.6V38.6H23.13C22.64,38.6,22.64,38.6,22.7,39.12ZM25,30.56a.71.71,0,0,0-.74.7.73.73,0,1,0,.74-.7Z" transform="translate(-14.21 -7.18)"/></svg>