<?xml version="1.0" encoding="utf-8"?>
<!-- Generator: Adobe Illustrator 24.1.3, SVG Export Plug-In . SVG Version: 6.00 Build 0)  -->
<svg version="1.1" id="Layer_1" xmlns="http://www.w3.org/2000/svg" xmlns:xlink="http://www.w3.org/1999/xlink" x="0px" y="0px"
	 viewBox="0 0 49.3 65.9" style="enable-background:new 0 0 49.3 65.9;" xml:space="preserve">
<style type="text/css">
	.st0{display:none;}
	.st1{display:inline;opacity:0.4;}
	.st2{fill:#92F7FF;}
	.st3{display:inline;}
	.st4{fill:#003136;}
	.st5{fill:#FFFFFF;}
	.st6{fill:#AA1D2E;}
	.st7{fill:#808080;}
</style>
<g id="BGD">
</g>
<g id="Hero">
</g>
<g id="Slogan">
</g>
<g id="Services">
</g>
<g id="Clients">
</g>
<g id="Proposal">
</g>
<g id="Diver_Shop">
</g>
<g id="Guides_1_" class="st0">
	<g id="Grid" class="st1">
		<rect x="640.2" y="-2053.6" class="st2" width="76" height="6963"/>
		<rect x="542.7" y="-2053.6" class="st2" width="76" height="6963"/>
		<rect x="737.6" y="-2053.6" class="st2" width="76" height="6963"/>
		<rect x="1030" y="-2053.6" class="st2" width="76" height="6963"/>
		<rect x="835.1" y="-2053.6" class="st2" width="76" height="6963"/>
		<rect x="932.5" y="-2053.6" class="st2" width="76" height="6963"/>
		<rect x="1127.4" y="-2053.6" class="st2" width="76" height="6963"/>
		<rect x="1224.9" y="-2053.6" class="st2" width="76" height="6963"/>
		<rect x="1322.3" y="-2053.6" class="st2" width="76" height="6963"/>
		<rect x="1419.8" y="-2053.6" class="st2" width="76" height="6963"/>
		<rect x="1517.2" y="-2053.6" class="st2" width="76" height="6963"/>
		<rect x="1614.7" y="-2053.6" class="st2" width="76" height="6963"/>
	</g>
	<g id="Guides" class="st3">
	</g>
</g>
<g>
	<g>
		<path class="st4" d="M25.7,16.3c0,0.1,0,0.1,0,0.2c0,0.3,0,0.7-0.1,1.1c0,0.1,0,0.1,0,0.2c-0.1,0.4-0.3,0.9-0.5,1.5
			c-0.1,0.3-0.3,0.6-0.5,1c0-0.2-0.1-0.4,0-0.5c0-0.5,0.2-0.9,0.2-0.9l-1.1,0.1l-0.4,0l0.9-1l1.6-1.7C25.6,16.2,25.7,16.2,25.7,16.3
			z"/>
		<g>
			<g>
				<g>
					<path class="st4" d="M4.2,11l-2.7,8.7l3.2,4.5H8l4.8-4.8l11.7-0.6c0,0-1.4,2.6,2.3,2.8l2.7,6.9l2.4,1.5l5.4-1.5L39,17.1
						c0,0,3.3-5.8-2.3-10.1L16.4,4.2c0,0-4.7-6.6-11-1.4C5.4,2.9,2.6,4.9,4.2,11z"/>
				</g>
				<g>
					<g>
						<path class="st4" d="M31.9,30.2l-2.6-1.6l-2.7-6.8c-1.2-0.1-2-0.5-2.4-1.2c-0.3-0.6-0.2-1.2-0.1-1.6L13,19.6l-4.8,4.8H4.6
							l-3.4-4.7L3.9,11C2.4,5,5,2.8,5.3,2.7c1.9-1.6,3.9-2.3,5.8-2.1c3,0.4,5.1,2.8,5.5,3.4l20.3,2.8l0.1,0c3,2.3,3.5,5,3.3,6.9
							c-0.1,1.8-0.8,3.2-1,3.5l-1.6,11.5L31.9,30.2z M29.7,28.3l2.3,1.4l5.1-1.4L38.7,17l0,0c0,0,0.8-1.4,0.9-3.3
							c0.2-2.5-0.9-4.6-3.1-6.3L16.2,4.5l-0.1-0.1c0,0-2.1-2.9-5.2-3.2C9.2,1,7.4,1.6,5.6,3.1l0,0c0,0-2.7,2-1.1,7.8l0,0.1l-2.7,8.6
							l3.1,4.2h3l4.8-4.8L25,18.4l-0.2,0.4c0,0-0.4,0.8-0.1,1.5c0.3,0.5,1,0.8,2.1,0.9l0.2,0L29.7,28.3z"/>
					</g>
				</g>
			</g>
		</g>
		<g>
			<path class="st5" d="M36.3,11.5l0.8,0.8l-1.5,16.5l-0.9,4.2l-1.7,9.3l-4.9,1.1l-9.6-1.1l-1.3-2.8l4.7-12.2l-8.8-5.1l-0.5-6.8
				l11-2.5l0.1,0c0,0,3.4,1.8,1.3,6.2c0,0,0,0,0,0c-0.1,0.2,0.2,0.4,0.3,0.3c2.3-1.8,8.4-6.6,10.3-8c-1.3,0.6-3.1,0.1-3.1,0.1
				l0.9-7.4l-1.2,7c-1.5,1.4-4.3,0.3-4.3,0.3c0.1-1.5-0.1-6.8-0.1-6.8l-0.4,6.5c-1.2,0.9-3.5,0.3-3.5,0.3l-1.5-7.6l0.5,7l-4.3,0.4
				l-1.5-7.4l5.1-0.7l-0.1-0.7l6-0.5v1.2c4.1-2,5.5,0.1,5.5,0.1h3.5L36.3,11.5z"/>
			<path class="st4" d="M28.1,43.7L28.1,43.7l-9.8-1.1l-1.4-3l0-0.1l4.6-12l-8.7-5.1l-0.6-7.1l11.4-2.6l0.1,0c0,0,3.6,1.9,1.4,6.5
				l0,0c1.7-1.3,6.8-5.4,9.4-7.3c-1,0.1-2-0.2-2.1-0.2l-0.2-0.1l0-0.3c-1.6,1.3-4.4,0.3-4.5,0.2l-0.2-0.1l0-0.2c0-0.5,0-1.3,0-2.2
				l-0.1,2.1l-0.1,0.1c-1.3,1-3.6,0.3-3.7,0.3l-0.1,0l-0.8-4l0.3,3.5l-4.7,0.4l-1.6-7.9L22,3l-0.1-0.7l6.4-0.6v1.1
				c3.5-1.6,5.1-0.1,5.4,0.3h3.7l-0.8,8.4l0.8,0.8l-1.5,16.6l-0.9,4.2l-1.8,9.5L28.1,43.7z M18.6,42.2l9.4,1.1l4.7-1l1.7-9.2
				l0.9-4.2l1.5-16.4l-0.8-0.8l0.8-8.1h-3.4l-0.1-0.1c-0.1-0.1-1.4-2-5.3-0.1l-0.3,0.2V2.2l-5.5,0.5l0.1,0.7L17.3,4l1.4,7l3.9-0.4
				l-0.5-6.8l0.4-0.1l1.5,7.4c0.5,0.1,2.1,0.5,3.1-0.2l0.4-6.4l0.4,0c0,0.2,0.3,4.9,0.1,6.6c0.6,0.2,2.7,0.8,3.9-0.2l1.2-7l0.4,0.1
				l-0.9,7.2c0.5,0.1,1.8,0.3,2.7-0.1l0.2,0.4c-1.9,1.4-8.3,6.5-10.3,8c-0.2,0.1-0.4,0.1-0.6,0c-0.2-0.1-0.2-0.4-0.1-0.5
				c0.8-1.8,0.9-3.3,0.1-4.6c-0.5-0.8-1.1-1.2-1.3-1.3l0,0l-10.8,2.5l0.5,6.5l8.9,5.2l-4.7,12.2L18.6,42.2z"/>
		</g>
		<path class="st6" d="M25,19.2c-0.3,0.3-0.6,0.5-0.9,0.7c-2,1.4-8.4,1.5-8.4,1.5l7.8-2.6c1.5-1.4,0.1-5.4,0-5.8l0.1,0
			C23.6,13,27.1,14.7,25,19.2z"/>
		<polygon class="st6" points="20.7,20.9 21.5,23.5 23.5,20.1 		"/>
		<g>
			<path class="st4" d="M36.9,7c5.6,4.3,2.3,10.1,2.3,10.1l-1.6,11.4l-5.4,1.5l-2.4-1.5L27,21.6c-3.7-0.3-2.3-2.8-2.3-2.8l-0.3,0"/>
			<path class="st4" d="M32,30.2l-2.6-1.6l-2.7-6.8c-1.2-0.1-2-0.5-2.4-1.2c-0.5-0.9-0.1-1.8,0-2l0-0.2l0.7,0l-0.2,0.4
				c0,0-0.4,0.8-0.1,1.5c0.3,0.5,1,0.8,2.1,0.9l0.2,0l2.7,7l2.3,1.4l5.1-1.4L38.9,17l0,0c0,0,0.8-1.4,0.9-3.3
				c0.2-2.5-0.9-4.7-3.1-6.4L37,6.8c3,2.3,3.5,5,3.3,6.9c-0.1,1.8-0.8,3.2-1,3.5l-1.6,11.5L32,30.2z"/>
		</g>
		<path class="st5" d="M30.5,12.4c0,0.2,0,0.4-0.1,0.6v0c-0.2,0.7-0.7,1.2-1.4,1.3h0c-0.2,0-0.3,0.1-0.5,0.1c-1.1,0-2-0.9-2-2
			c0-0.3,0.1-0.7,0.2-0.9c0.2-0.3,0.4-0.6,0.7-0.7c0.2-0.1,0.4-0.2,0.6-0.3c0,0.4,0,0.7,0,0.9c0,0,0.8,0.3,1.7,0.4l0,0
			c0.2,0,0.5,0,0.8,0c0,0,0,0.1,0,0.1C30.5,12,30.5,12.2,30.5,12.4z"/>
		<circle class="st5" cx="36.4" cy="14.2" r="2"/>
		<circle class="st5" cx="31.3" cy="17" r="2"/>
		<path class="st4" d="M25.7,16.5c0,0.3,0,0.7-0.1,1.1c0,0.1,0,0.1,0,0.2c-0.1,0.4-0.3,0.9-0.5,1.5c-0.2,0.2-0.4,0.3-0.6,0.4
			c-0.1,0.1-0.2,0.2-0.4,0.3c-0.1,0.1-0.3,0.2-0.5,0.3l0,0c-0.8,0.3-1.8,0.6-2.9,0.8c-2.4,0.4-5,0.4-5,0.4l7.8-2.6c0,0,0,0,0,0
			c0.3-0.3,0.5-0.6,0.6-1c0.5-1.8-0.5-4.5-0.6-4.8l0.1,0c0,0,0.2,0.1,0.4,0.3c0,0,0,0,0.1,0.1c0.1,0.1,0.3,0.3,0.5,0.4
			c0,0,0,0,0.1,0.1c0,0.1,0.1,0.1,0.1,0.2c0.1,0.2,0.3,0.3,0.4,0.5c0,0,0,0,0,0.1c0,0.1,0.1,0.2,0.1,0.3c0,0,0,0.1,0.1,0.1
			c0,0,0,0,0,0c0,0,0,0.1,0,0.1c0,0,0,0.1,0,0.1c0,0,0,0.1,0,0.1c0,0,0,0.1,0,0.1c0,0.1,0,0.1,0,0.2c0,0.1,0,0.1,0,0.2
			c0,0.1,0,0.1,0,0.2c0,0.1,0,0.1,0,0.2C25.7,16.4,25.7,16.4,25.7,16.5z"/>
		<polygon class="st4" points="23.5,20.1 21.5,23.5 20.7,20.9 20.7,20.9 23.5,20.1 		"/>
		<g>
			<path class="st4" d="M29.8,12c-0.1,0-0.3,0-0.4,0c-0.1,0-1.1-0.1-1.5-0.4l-0.1-0.1l-0.2-3.2l0.4,0l0.2,3c0.2,0.2,0.8,0.2,1.2,0.3
				c0.9,0.1,2.3-0.2,2.9-0.8l0.3,0.3C32,11.7,30.7,12,29.8,12z"/>
			<g>
				<path class="st5" d="M33,6.8l-0.6,4.7c0,0,1.8,0.5,3.1-0.1l1.3-4.6l-1.3,4.7"/>
				<path class="st4" d="M34,11.9c-0.9,0-1.6-0.2-1.6-0.2l-0.2-0.1l0.6-4.9l0.4,0.1l-0.6,4.5c0.5,0.1,1.7,0.3,2.7-0.1l1.2-4.5
					L37,6.8l-1.3,4.7l-0.1,0C35.1,11.9,34.5,11.9,34,11.9z"/>
			</g>
		</g>
		<path class="st5" d="M10.4,12.3c-2.7,0-4.9-2.2-4.9-4.9c0-2.7,2.2-4.9,4.9-4.9c2.7,0,4.9,2.2,4.9,4.9
			C15.3,10.1,13.1,12.3,10.4,12.3z M10.4,2.6c-2.7,0-4.8,2.2-4.8,4.8s2.2,4.8,4.8,4.8c2.7,0,4.8-2.2,4.8-4.8S13,2.6,10.4,2.6z"/>
		<g>
			<path class="st5" d="M10.7,6.5L10.7,6.5C10.1,6.3,9.9,5.7,10,5.1l0.5-1.5l2,0.7l-0.5,1.5C11.9,6.4,11.3,6.7,10.7,6.5z"/>
			<path class="st5" d="M10,8.4L10,8.4c0.6,0.2,0.9,0.8,0.7,1.4l-0.5,1.5l-2-0.7L8.7,9C8.9,8.5,9.5,8.2,10,8.4z"/>
			<path class="st5" d="M11.3,7.8L11.3,7.8c0.2-0.6,0.8-0.9,1.4-0.7l1.5,0.5l-0.7,2L12,9.1C11.4,8.9,11.1,8.3,11.3,7.8z"/>
			<path class="st5" d="M9.4,7.1L9.4,7.1C9.2,7.7,8.6,7.9,8.1,7.8L6.6,7.2l0.7-2l1.5,0.5C9.3,5.9,9.6,6.5,9.4,7.1z"/>
		</g>
	</g>
	<g>
		<g>
			<g>
				<path class="st5" d="M39.4,47.5H38h-0.3l0.6-3.6l4.4-8.1H33h-2.3h-3.5l-2.8,7.5h0l1.2-7.5h-6l-0.1,0.8c-0.9-0.6-2.1-0.8-3.7-0.8
					h-3.8L10,47.5H5.7l-1.1,6.7h2.8l-6,10.5h13.3l0.3-1.8c0,0,0,0.1,0.1,0.1c1.1,1.3,2.6,2,4.4,2c1.2,0,2.3-0.3,3.3-0.8
					c0.6-0.3,1.1-0.7,1.6-1.2L24,64.7h11.4h1.4h8.8l1.1-6.8h-0.3l0.6-3.9h0.3l1-6.6H39.4z"/>
				<g>
					<g>
						<path class="st4" d="M19.4,65.3c-1.7,0-3.1-0.6-4.3-1.7L14.9,65H0.7l6-10.5H4.2l1.2-7.3h4.4l1.9-11.7h4c1.4,0,2.5,0.2,3.4,0.7
							l0.1-0.7h6.7L25,40.4l1.8-4.9h16.4l-4.7,8.5l-0.5,3.1h10.4l-1.1,7.2h-0.3l-0.5,3.2h0.3L45.7,65H23.6l0.2-1.2
							c-0.3,0.2-0.6,0.4-0.9,0.6C21.8,65,20.6,65.3,19.4,65.3z M14.7,62.1l0.5,0.6c0,0,0,0,0,0c1,1.2,2.5,1.9,4.2,1.9
							c1.2,0,2.2-0.3,3.1-0.7c0.5-0.3,1-0.7,1.5-1.1l0.7-0.7l-0.4,2.3h20.8l1-6.1h-0.3l0.7-4.5h0.3l0.9-5.9H37.3l0.6-4l4.2-7.7H27.3
							l-2.8,7.5h-0.7l1.2-7.5h-5.3l-0.2,1.1L19.1,37c-0.8-0.5-2-0.8-3.5-0.8h-3.5l-1.9,11.7H5.9l-1,6h3l-6,10.5h12.4L14.7,62.1z"/>
					</g>
				</g>
			</g>
		</g>
		<g>
			<g>
				<path class="st7" d="M18.7,37.9c-0.6-0.5-1.7-0.7-3.1-0.7H13l-1.7,10.6h3.3l0.5-3.3c0.1,0,0.1,0,0.2,0c1.4,0,2.5-0.4,3.2-1.1
					c0.8-0.7,1.1-1.8,1.1-3.1C19.7,39.2,19.3,38.4,18.7,37.9z M16.3,41.4c-0.1,0.2-0.4,0.3-0.7,0.3l0.3-1.7c0.2,0,0.4,0.1,0.5,0.1
					c0.1,0.1,0.2,0.2,0.2,0.4C16.5,40.9,16.4,41.2,16.3,41.4z"/>
				<path class="st7" d="M28,37.2l-3.6,9.6l0.3-2h-2.1l1.2-7.5h-3.3l-1.7,10.6H24h0.2h3.2l0.4-1.5h1.2l0,1.5h3.4l-0.7-10.6H28z
					 M29.2,43.7h-0.5l0.5-1.7L29.2,43.7z"/>
				<polygon class="st7" points="36.9,37.2 36,39.4 35.8,37.2 32.3,37.2 33.7,43.4 33,47.7 36.4,47.7 37,43.5 40.5,37.2 				"/>
			</g>
			<path class="st4" d="M11.6,47.5l1.6-10h2.4c1.3,0,2.3,0.2,2.9,0.7c0.6,0.4,0.9,1.2,0.9,2.1c0,1.3-0.4,2.2-1.1,2.9
				c-0.7,0.7-1.7,1-3,1c0,0-0.1,0-0.2,0c-0.1,0-0.1,0-0.2,0l-0.5,3.3H11.6z M15.6,39.6l-0.4,2.2c0,0,0.1,0,0.1,0c0,0,0.1,0,0.2,0
				c0.4,0,0.7-0.1,0.9-0.4c0.2-0.2,0.3-0.6,0.3-1.1c0-0.3-0.1-0.5-0.2-0.6c-0.2-0.1-0.4-0.2-0.7-0.2H15.6z"/>
			<path class="st4" d="M19.2,47.5l1.6-10h2.8L22.4,45h2.1L24,47.5H19.2z"/>
			<path class="st4" d="M24.4,47.5l3.8-10h3.3l0.7,10h-2.8l0-1.5h-1.7l-0.4,1.5H24.4z M28.3,44h1.1l0-3.7L28.3,44z"/>
			<path class="st4" d="M32.6,37.4h3l0.3,3.1l1.2-3.1h3l-3.3,6l-0.6,4h-2.8l0.6-4L32.6,37.4z"/>
		</g>
		<g>
			<polygon class="st7" points="3.6,63.4 9.6,52.9 6.1,52.9 6.8,48.8 16.5,48.8 10.5,59.2 14.1,59.2 13.5,63.4 			"/>
			<polygon class="st4" points="16.1,49.1 7,49.1 6.4,52.6 10.1,52.6 4,63.1 13.3,63.1 13.8,59.5 10.1,59.5 			"/>
			<path class="st7" d="M19.4,63.7c-1.4,0-2.5-0.5-3.4-1.5c-0.8-1-1.3-2.4-1.3-4c0-1.3,0.2-2.6,0.5-3.9c0.3-1.3,0.8-2.3,1.4-3.2
				c0.6-0.8,1.3-1.5,2-1.9c0.8-0.4,1.7-0.6,2.7-0.6c1.4,0,2.6,0.5,3.4,1.5c0.8,1,1.3,2.3,1.3,4c0,1.3-0.2,2.6-0.5,3.9
				c-0.3,1.2-0.8,2.3-1.4,3.2c-0.6,0.8-1.2,1.5-2,1.9C21.3,63.4,20.4,63.7,19.4,63.7z M20.9,52.5c-0.2,0-0.4,0.1-0.6,0.2
				c-0.2,0.2-0.3,0.5-0.5,0.9c-0.2,0.6-0.4,1.4-0.5,2.3c-0.1,0.9-0.2,1.7-0.2,2.5c0,0.6,0.1,0.9,0.2,1c0.1,0.2,0.2,0.2,0.4,0.2
				c0.2,0,0.4-0.1,0.5-0.2c0.2-0.2,0.3-0.5,0.5-1c0.2-0.6,0.4-1.3,0.5-2.2c0.1-0.9,0.2-1.7,0.2-2.5c0-0.6-0.1-0.9-0.2-1
				C21.2,52.6,21.1,52.5,20.9,52.5z"/>
			<path class="st4" d="M21.3,48.8c-0.9,0-1.8,0.2-2.5,0.6c-0.7,0.4-1.4,1-2,1.8c-0.6,0.8-1,1.9-1.4,3.1c-0.3,1.2-0.5,2.5-0.5,3.8
				c0,1.6,0.4,2.9,1.2,3.8c0.8,1,1.9,1.4,3.2,1.4c1,0,1.8-0.2,2.6-0.6c0.7-0.4,1.4-1,1.9-1.8c0.6-0.9,1-1.9,1.4-3.1
				c0.3-1.2,0.5-2.5,0.5-3.8c0-1.6-0.4-2.9-1.2-3.9C23.7,49.3,22.7,48.8,21.3,48.8z M21.5,56.3c-0.1,0.9-0.3,1.6-0.5,2.3
				c-0.2,0.5-0.3,0.8-0.5,1c-0.2,0.2-0.4,0.3-0.7,0.3c-0.3,0-0.5-0.1-0.7-0.4c-0.1-0.2-0.2-0.6-0.2-1.1c0-0.8,0.1-1.6,0.2-2.5
				c0.1-0.9,0.3-1.7,0.5-2.3c0.1-0.5,0.3-0.8,0.5-1c0.2-0.2,0.5-0.3,0.8-0.3c0.3,0,0.5,0.1,0.6,0.4c0.1,0.2,0.2,0.6,0.2,1.2
				C21.7,54.6,21.7,55.4,21.5,56.3z"/>
			<polygon class="st7" points="31.5,63.4 30.4,57.3 29.4,63.4 25.5,63.4 27.8,48.8 31.9,48.8 32.9,55.1 34,48.8 37.8,48.8 
				35.6,63.4 			"/>
			<polygon class="st4" points="34.2,49.1 32.9,56.6 31.7,49.1 28,49.1 25.8,63.1 29.1,63.1 30.4,55.8 31.7,63.1 35.3,63.1 
				37.5,49.1 			"/>
			<polygon class="st7" points="36.9,63.4 39.2,48.8 46.7,48.8 46,52.7 43,52.7 42.8,54 45.5,54 44.9,57.8 42.2,57.8 42,59.2 
				45,59.2 44.3,63.4 			"/>
			<polygon class="st4" points="45.8,52.5 46.3,49.1 39.4,49.1 37.2,63.1 44.1,63.1 44.7,59.5 41.7,59.5 42,57.6 44.7,57.6 
				45.2,54.3 42.5,54.3 42.8,52.5 			"/>
		</g>
	</g>
	<path class="st5" d="M5,12.2c-0.1,0.6-0.3,1.2-0.4,1.7c-0.1,0.6-0.3,1.2-0.5,1.7L4,16.5l-0.3,0.9c-0.2,0.6-0.3,1.1-0.5,1.7l0-0.2
		l0.6,0.9l0.6,0.9c0.2,0.3,0.4,0.6,0.6,1c0.2,0.3,0.4,0.6,0.6,1c-0.2-0.3-0.5-0.6-0.7-0.9c-0.2-0.3-0.4-0.6-0.7-0.9L3.4,20l-0.6-0.9
		l-0.1-0.1l0-0.1c0.2-0.6,0.3-1.1,0.5-1.7l0.3-0.9l0.3-0.8C4,15,4.2,14.4,4.4,13.9C4.6,13.3,4.8,12.7,5,12.2z"/>
	<path class="st5" d="M37.1,18.5c0,0.7,0,1.5-0.1,2.2c0,0.7-0.1,1.4-0.1,2.2c0,0.4,0,0.7-0.1,1.1L36.8,25c-0.1,0.7-0.1,1.4-0.2,2.2
		l0,0.1l-0.1,0c-0.3,0.1-0.6,0.2-1,0.3c-0.3,0.1-0.6,0.2-1,0.3c-0.3,0.1-0.6,0.2-1,0.3c-0.3,0.1-0.6,0.2-1,0.3
		c0.3-0.1,0.6-0.3,0.9-0.4c0.3-0.1,0.6-0.3,0.9-0.4c0.3-0.1,0.6-0.2,0.9-0.4c0.3-0.1,0.6-0.2,0.9-0.4l-0.1,0.2
		c0-0.7,0.1-1.4,0.2-2.2l0.1-1.1c0-0.4,0.1-0.7,0.1-1.1c0.1-0.7,0.2-1.4,0.3-2.2C36.9,19.9,37,19.2,37.1,18.5z"/>
	<path class="st4" d="M18.5,4.5c0.2-0.2,0.5-0.3,0.7-0.4C19.5,4.1,19.8,4,20,4c0.3,0,0.5-0.1,0.8,0c0.3,0,0.5,0.1,0.8,0.2
		c-0.3,0-0.5,0.1-0.8,0.1c-0.3,0-0.5,0.1-0.8,0.1c-0.3,0-0.5,0.1-0.8,0.1C19.1,4.5,18.8,4.6,18.5,4.5z"/>
	<path class="st4" d="M33.7,4.1c0.2-0.1,0.5-0.2,0.8-0.3c0.3-0.1,0.5-0.1,0.8-0.1c0.3,0,0.5,0,0.8,0.1c0.3,0.1,0.5,0.2,0.7,0.3
		c-0.3,0-0.5,0-0.8,0c-0.3,0-0.5,0-0.8,0c-0.3,0-0.5,0-0.8,0C34.2,4.2,34,4.1,33.7,4.1z"/>
	<path class="st4" d="M23.6,3.5c0.3-0.1,0.6-0.2,0.9-0.3C24.8,3.1,25.2,3,25.5,3c0.3,0,0.6,0,1,0c0.3,0,0.6,0.1,0.9,0.2
		c-0.3,0-0.6,0.1-0.9,0.1c-0.3,0-0.6,0.1-0.9,0.1c-0.3,0-0.6,0.1-0.9,0.1C24.3,3.5,24,3.5,23.6,3.5z"/>
	<path class="st4" d="M28.7,3.7c0.3-0.2,0.7-0.3,1-0.3c0.3-0.1,0.7-0.1,1.1-0.2c0.4,0,0.7,0,1.1,0c0.4,0,0.7,0.1,1.1,0.2
		c-0.4,0-0.7,0.1-1.1,0.1c-0.3,0-0.7,0.1-1,0.1c-0.3,0-0.7,0.1-1.1,0.1C29.4,3.7,29.1,3.7,28.7,3.7z"/>
	<path class="st5" d="M25.3,19.4c0.2,0.1,0.3,0.2,0.5,0.3c0.2,0.1,0.4,0.1,0.5,0.2c0.2,0,0.4,0.1,0.5,0.1c0.2,0,0.4,0,0.5-0.1
		l0.2-0.1l0.1,0.2c0.2,0.5,0.5,1.1,0.7,1.6c0.2,0.5,0.4,1.1,0.7,1.6c0.2,0.5,0.4,1.1,0.6,1.7c0.2,0.6,0.4,1.1,0.6,1.7
		c-0.3-0.5-0.5-1-0.8-1.6c-0.3-0.5-0.5-1.1-0.7-1.6c-0.2-0.5-0.5-1.1-0.7-1.6c-0.2-0.5-0.4-1.1-0.7-1.6l0.2,0.1
		c-0.1,0-0.2,0-0.3,0.1c-0.1,0-0.2,0-0.3,0c-0.2,0-0.4-0.1-0.6-0.2c-0.2-0.1-0.4-0.2-0.5-0.3C25.6,19.7,25.4,19.6,25.3,19.4z"/>
	<path class="st5" d="M37.1,8.3c0.2,0.2,0.4,0.4,0.6,0.6C37.8,9,37.9,9.1,38,9.2c0.1,0.1,0.2,0.2,0.2,0.4c0.3,0.5,0.5,1,0.7,1.5
		c0,0.1,0.1,0.3,0.1,0.4c0,0.1,0,0.1,0.1,0.2l0,0.2c0,0.1,0.1,0.3,0.1,0.4c0,0.1,0,0.3,0,0.4l0,0.2l0,0.2l0,0.4c0,0.1,0,0.3,0,0.4
		l0,0.4c0-0.3,0-0.6,0-0.8l0-0.4l0-0.2l0-0.2c0-0.1,0-0.3-0.1-0.4c0-0.1-0.1-0.3-0.1-0.4l0-0.2c0-0.1,0-0.1-0.1-0.2
		c0-0.1-0.1-0.3-0.1-0.4c-0.2-0.5-0.4-1-0.7-1.5C37.9,9.1,37.5,8.7,37.1,8.3z"/>
	<path class="st4" d="M28.9,9.7c0.1,0.2,0.1,0.4,0.1,0.7c0,0.2,0,0.4,0,0.7l-0.1-0.2c0.2,0,0.3,0,0.5,0c0.2,0,0.3,0,0.5,0
		c0.2,0,0.3,0,0.5,0c0.2,0,0.3-0.1,0.5-0.1c-0.1,0.1-0.3,0.2-0.5,0.3c-0.2,0.1-0.3,0.1-0.5,0.1c-0.2,0-0.4,0-0.5,0.1
		c-0.2,0-0.4,0-0.5,0l-0.2,0l0-0.1c0-0.2,0-0.4,0-0.7C28.8,10.1,28.8,9.9,28.9,9.7z"/>
	<path class="st4" d="M24.7,9.8c0.1,0.2,0.1,0.3,0.1,0.5c0,0.2,0,0.3,0,0.5l-0.1-0.2l0.4,0.1l0.4,0.1l0.4,0.1c0.1,0,0.3,0.1,0.4,0.1
		c-0.1,0.1-0.3,0.1-0.4,0.1c-0.1,0-0.3,0-0.4,0c-0.1,0-0.3,0-0.4-0.1c-0.1,0-0.3-0.1-0.4-0.1l-0.1,0l0-0.1c0-0.2,0-0.3,0-0.5
		C24.6,10.1,24.6,10,24.7,9.8z"/>
	<path class="st4" d="M19.6,9.8c0.1,0.1,0.1,0.2,0.2,0.4c0,0.1,0.1,0.2,0.1,0.4l-0.2-0.1c0.3,0,0.5-0.1,0.8-0.1c0.1,0,0.3,0,0.4,0
		c0.1,0,0.3,0,0.4,0.1c-0.1,0.1-0.2,0.1-0.4,0.1c-0.1,0-0.3,0.1-0.4,0.1c-0.3,0-0.5,0.1-0.8,0.1l-0.2,0l0-0.1c0-0.1,0-0.3,0-0.4
		C19.5,10.1,19.5,9.9,19.6,9.8z"/>
	<path class="st4" d="M33.2,10c0.1,0.2,0.1,0.3,0.2,0.5c0,0.2,0.1,0.3,0.1,0.5l-0.2-0.1c0.3,0,0.6-0.1,0.9-0.1c0.1,0,0.3,0,0.4,0
		c0.1,0,0.3,0,0.4,0c-0.1,0.1-0.3,0.2-0.4,0.2C34.5,11,34.4,11,34.2,11c-0.3,0.1-0.6,0.1-0.9,0.1l-0.2,0l0-0.1c0-0.2,0-0.3,0-0.5
		C33.2,10.4,33.2,10.2,33.2,10z"/>
	<path class="st4" d="M22.8,14.5c-0.3,0.2-0.7,0.3-1,0.5c-0.2,0.1-0.3,0.2-0.5,0.3c-0.1,0-0.1,0.1-0.2,0.1c-0.1,0-0.1,0.1-0.1,0.1
		l0,0c0,0.2,0,0.4-0.1,0.6c0,0.2,0,0.4,0,0.6c0,0.1,0,0.2,0,0.3c0,0.1,0,0.2,0,0.3c0,0.2,0,0.4,0,0.6c-0.1-0.2-0.2-0.4-0.2-0.6
		c0-0.2-0.1-0.4-0.1-0.6c0-0.2,0-0.4,0-0.6c0-0.2,0-0.4,0.1-0.6l0,0l0,0c0-0.1,0.1-0.1,0.1-0.2c0,0,0.1-0.1,0.1-0.1
		c0.1-0.1,0.2-0.1,0.3-0.2c0.2-0.1,0.4-0.2,0.5-0.2c0.2-0.1,0.4-0.1,0.5-0.2C22.4,14.5,22.6,14.5,22.8,14.5z"/>
</g>
</svg>
