<?xml version="1.0" encoding="utf-8"?>
<!-- Generator: Adobe Illustrator 24.1.3, SVG Export Plug-In . SVG Version: 6.00 Build 0)  -->
<svg version="1.1" xmlns="http://www.w3.org/2000/svg" xmlns:xlink="http://www.w3.org/1999/xlink" x="0px" y="0px"
	 viewBox="0 0 114 37" style="enable-background:new 0 0 114 37;" xml:space="preserve">
<style type="text/css">
	.st0{fill:#143566;}
	.st1{fill:#32A5B6;}
	.st2{fill:#FFFFFF;}
	.st3{display:none;}
	.st4{opacity:0.4;}
	.st5{display:inline;fill:#92F7FF;}
</style>
<g id="BGD">
</g>
<g id="Hero">
</g>
<g id="Slogan">
</g>
<g id="Services">
</g>
<g id="Projects">
	<g>
		<g>
			<g>
				<path class="st0" d="M34.9,16c0-1.5,1.3-2.8,2.8-2.8c1.5,0,2.8,1.3,2.8,2.8c0,1.5-1.3,2.8-2.8,2.8C36.1,18.8,34.9,17.5,34.9,16z
					 M35.3,20.2H40v15.6h-4.7V20.2z"/>
				<path class="st0" d="M42.7,28c0-4.7,3.5-8.3,8.3-8.3c3,0,5.7,1.6,7.1,4l-4.1,2.4c-0.5-1.1-1.7-1.8-3-1.8c-2,0-3.5,1.5-3.5,3.6
					s1.5,3.6,3.5,3.6c1.4,0,2.5-0.7,3-1.8l4.1,2.3c-1.3,2.4-4,4-7.1,4C46.2,36.2,42.7,32.6,42.7,28z"/>
				<path class="st0" d="M83.5,26.2v9.6h-4.7v-9.2c0-1.6-0.8-2.6-2.3-2.6c-1.6,0-2.4,1.1-2.4,2.9v8.8h-4.7v-9.2
					c0-1.6-0.8-2.6-2.3-2.6c-1.6,0-2.4,1.1-2.4,2.9v8.8h-4.7V20.2h4.7v1.4c0.7-1.1,2.1-1.9,4.2-1.9c1.8,0,3.2,0.8,4.1,2.1
					c0.9-1.3,2.3-2.1,4.5-2.1C81.2,19.7,83.5,22.3,83.5,26.2z"/>
				<path class="st0" d="M102.8,20.2v15.6h-4.7v-1.5c-1,1.2-2.6,1.9-4.7,1.9c-4.1,0-7.5-3.6-7.5-8.3s3.4-8.3,7.5-8.3
					c2.1,0,3.6,0.7,4.7,1.9v-1.5H102.8z M98.1,28c0-2.3-1.6-3.8-3.7-3.8c-2.2,0-3.7,1.5-3.7,3.8s1.6,3.8,3.7,3.8
					C96.6,31.8,98.1,30.3,98.1,28z"/>
				<path class="st1" d="M105.9,33.3c0-1.6,1.3-3,3-3c1.6,0,3,1.3,3,3c0,1.6-1.3,3-3,3C107.3,36.2,105.9,34.9,105.9,33.3z"/>
			</g>
		</g>
		<g>
			<g>
				<path class="st2" d="M25.7,14.6c-0.7-0.8-1.6-1.3-2.7-1.4c-1-0.1-2.1,0.2-2.9,0.9c-0.8,0.7-1.3,1.6-1.4,2.7
					c-0.1,1,0.2,2.1,0.9,2.9c0.7,0.9,1.1,2,1.1,3.1V30c0,2.2,1.8,3.9,3.9,3.9s3.9-1.8,3.9-3.9v-7.2C28.7,19.8,27.6,16.9,25.7,14.6z"
					/>
				<path class="st0" d="M24.8,35.1c-2.8,0-5.1-2.3-5.1-5.1v-7.2c0-0.9-0.3-1.7-0.9-2.4c-0.9-1-1.3-2.4-1.2-3.7
					c0.1-1.4,0.8-2.6,1.8-3.5c1-0.9,2.4-1.3,3.7-1.2c1.4,0.1,2.6,0.8,3.5,1.8l0,0c2.1,2.5,3.3,5.7,3.3,8.9V30
					C29.9,32.8,27.6,35.1,24.8,35.1z M22.7,14.4c-0.6,0-1.3,0.2-1.8,0.6c-0.6,0.5-0.9,1.1-1,1.9c-0.1,0.7,0.2,1.4,0.6,2
					c0.9,1.1,1.4,2.5,1.4,3.9V30c0,1.5,1.2,2.7,2.7,2.7s2.7-1.2,2.7-2.7v-7.2c0-2.7-1-5.3-2.7-7.4l0,0c-0.5-0.6-1.1-0.9-1.9-1
					C22.9,14.4,22.8,14.4,22.7,14.4z"/>
			</g>
			<g>
				<path class="st2" d="M24.8,2c-2.2,0-3.9,1.8-3.9,3.9v7.2c0,2.7-2.2,4.9-4.9,4.9s-4.9-2.2-4.9-4.9V5.9C11.2,3.7,9.4,2,7.2,2
					S3.3,3.7,3.3,5.9v7.2c0,7,5.7,12.7,12.7,12.7s12.7-5.7,12.7-12.7V5.9C28.7,3.7,26.9,2,24.8,2z"/>
				<path class="st1" d="M16,27C8.3,27,2.1,20.8,2.1,13.1V5.9c0-2.8,2.3-5.1,5.1-5.1s5.1,2.3,5.1,5.1v7.2c0,2,1.6,3.7,3.7,3.7
					s3.7-1.6,3.7-3.7V5.9c0-2.8,2.3-5.1,5.1-5.1s5.1,2.3,5.1,5.1v7.2C29.9,20.8,23.7,27,16,27z M7.2,3.2c-1.5,0-2.7,1.2-2.7,2.7v7.2
					c0,6.3,5.2,11.5,11.5,11.5s11.5-5.2,11.5-11.5V5.9c0-1.5-1.2-2.7-2.7-2.7s-2.7,1.2-2.7,2.7v7.2c0,3.3-2.7,6.1-6.1,6.1
					S10,16.5,10,13.1V5.9C10,4.4,8.7,3.2,7.2,3.2z"/>
			</g>
			<g>
				<path class="st2" d="M20.9,11v2.1c0,2.5-1.8,4.5-4.2,4.8c-0.2,0-0.4,0-0.6,0c-0.2,0-0.4,0-0.6,0c-0.8,0.1-1.6,0.4-2.3,0.9
					c-1.2,0.9-1.9,2.3-1.9,3.9V30c0,2.2-1.8,3.9-3.9,3.9S3.3,32.2,3.3,30v-7.2c0-1.7,0.3-3.3,0.9-4.8c0.1-0.2,0.1-0.3,0.2-0.5
					c1.1-2.3,2.7-4.2,4.9-5.5c0.6-0.4,1.2-0.7,1.8-0.9c1.5-0.6,3.2-1,4.9-1C17.7,10.1,19.3,10.4,20.9,11z"/>
				<path class="st0" d="M7.2,35.1c-2.8,0-5.1-2.3-5.1-5.1v-7.2c0-1.8,0.3-3.6,1-5.3c0.1-0.2,0.1-0.4,0.2-0.5c1.1-2.5,3-4.6,5.3-6
					c0.6-0.4,1.3-0.7,2-1c1.7-0.7,3.5-1.1,5.3-1.1c1.8,0,3.6,0.4,5.3,1.1l0.7,0.3v2.9c0,3-2.3,5.6-5.3,6l-0.2,0l-0.2,0
					c-0.3,0-0.6,0-0.9,0c-0.6,0.1-1.2,0.3-1.7,0.7c-0.9,0.7-1.5,1.8-1.5,2.9V30C12.3,32.8,10,35.1,7.2,35.1z M16,11.3
					c-1.5,0-3,0.3-4.4,0.9C11,12.4,10.5,12.7,10,13c-1.9,1.2-3.4,2.9-4.4,5c-0.1,0.2-0.1,0.3-0.2,0.4c-0.6,1.4-0.9,2.9-0.9,4.4V30
					c0,1.5,1.2,2.7,2.7,2.7S10,31.5,10,30v-7.2c0-1.9,0.9-3.7,2.4-4.8c0.8-0.6,1.8-1,2.9-1.2c0.4-0.1,0.9-0.1,1.4,0
					c1.7-0.3,3.1-1.8,3.1-3.6v-1.3C18.5,11.5,17.3,11.3,16,11.3z"/>
			</g>
		</g>
	</g>
</g>
<g id="Clients">
</g>
<g id="Proposal">
</g>
<g id="Diver_Shop">
</g>
<g id="Guides_1_" class="st3">
	<g id="Grid" class="st4">
		<rect x="672.5" y="-2068" class="st5" width="76" height="6963"/>
		<rect x="575" y="-2068" class="st5" width="76" height="6963"/>
		<rect x="769.9" y="-2068" class="st5" width="76" height="6963"/>
		<rect x="1062.3" y="-2068" class="st5" width="76" height="6963"/>
		<rect x="867.4" y="-2068" class="st5" width="76" height="6963"/>
		<rect x="964.8" y="-2068" class="st5" width="76" height="6963"/>
		<rect x="1159.7" y="-2068" class="st5" width="76" height="6963"/>
		<rect x="1257.2" y="-2068" class="st5" width="76" height="6963"/>
		<rect x="1354.6" y="-2068" class="st5" width="76" height="6963"/>
		<rect x="1452.1" y="-2068" class="st5" width="76" height="6963"/>
		<rect x="1549.5" y="-2068" class="st5" width="76" height="6963"/>
		<rect x="1647" y="-2068" class="st5" width="76" height="6963"/>
	</g>
	<g id="Guides">
	</g>
</g>
</svg>
