<?xml version="1.0" encoding="utf-8"?>
<!-- Generator: Adobe Illustrator 24.1.3, SVG Export Plug-In . SVG Version: 6.00 Build 0)  -->
<svg version="1.1" id="Layer_1" xmlns="http://www.w3.org/2000/svg" xmlns:xlink="http://www.w3.org/1999/xlink" x="0px" y="0px"
	 viewBox="0 0 56.8 60" style="enable-background:new 0 0 56.8 60;" xml:space="preserve">
<style type="text/css">
	.st0{display:none;}
	.st1{display:inline;opacity:0.4;}
	.st2{fill:#92F7FF;}
	.st3{display:inline;}
	.st4{fill:#003136;}
</style>
<g id="BGD">
</g>
<g id="Hero">
</g>
<g id="Slogan">
</g>
<g id="Services">
</g>
<g id="Clients">
</g>
<g id="Proposal">
</g>
<g id="Diver_Shop">
</g>
<g id="Guides_1_" class="st0">
	<g id="Grid" class="st1">
		<rect x="643.9" y="-2056.5" class="st2" width="76" height="6963"/>
		<rect x="546.4" y="-2056.5" class="st2" width="76" height="6963"/>
		<rect x="741.3" y="-2056.5" class="st2" width="76" height="6963"/>
		<rect x="1033.7" y="-2056.5" class="st2" width="76" height="6963"/>
		<rect x="838.8" y="-2056.5" class="st2" width="76" height="6963"/>
		<rect x="936.2" y="-2056.5" class="st2" width="76" height="6963"/>
		<rect x="1131.1" y="-2056.5" class="st2" width="76" height="6963"/>
		<rect x="1228.6" y="-2056.5" class="st2" width="76" height="6963"/>
		<rect x="1326" y="-2056.5" class="st2" width="76" height="6963"/>
		<rect x="1423.5" y="-2056.5" class="st2" width="76" height="6963"/>
		<rect x="1520.9" y="-2056.5" class="st2" width="76" height="6963"/>
		<rect x="1618.4" y="-2056.5" class="st2" width="76" height="6963"/>
	</g>
	<g id="Guides" class="st3">
	</g>
</g>
<g>
	<g>
		<path class="st4" d="M23.7,17.5c-2.3-0.5-2.7-1-2.7-1.9v0c0-0.9,0.8-1.5,2-1.5c1,0,2,0.3,2.9,1.1l0.1,0.1l0.8-1.1l-0.1-0.1
			c-1.1-0.9-2.2-1.3-3.7-1.3c-2,0-3.5,1.2-3.5,2.9v0c0,1.9,1.4,2.6,3.5,3.1c2.2,0.5,2.5,1,2.5,1.8v0c0,0.9-0.9,1.6-2.1,1.6
			c-1.3,0-2.3-0.4-3.4-1.4L20,20.7l-0.9,1l0.1,0.1c1.3,1.1,2.6,1.7,4.2,1.7c2.1,0,3.6-1.2,3.6-3v0C27.1,18.9,26.1,18,23.7,17.5"/>
		<polygon class="st4" points="29.8,14.3 33.2,14.3 33.2,23.4 34.6,23.4 34.6,14.3 38.1,14.3 38.1,13 29.8,13 		"/>
		<path class="st4" d="M46.4,36.7h-36v-36h36V36.7z M11.9,35.2h32.9V2.2H11.9V35.2z"/>
	</g>
	<g>
		<path class="st4" d="M3.3,56.7H5V58c-0.4,0.3-1,0.5-1.5,0.5c-1.3,0-2.2-0.9-2.2-2.3c0-1.3,0.9-2.2,2.1-2.2c0.8,0,1.3,0.3,1.7,0.6
			l0.1,0.1L5.8,54l-0.1-0.1c-0.7-0.6-1.3-0.8-2.2-0.8c-1.7,0-3,1.4-3,3.1c0,1.8,1.3,3.1,3.1,3.1c1.2,0,2-0.6,2.4-0.9l0,0v-2.5H3.3
			L3.3,56.7L3.3,56.7z"/>
		<path class="st4" d="M18.3,55c0-1.1-0.9-1.9-2.2-1.9h-2.6v6h0.9V57h1.5l1.7,2.2h1.1l-1.8-2.4C17.8,56.6,18.3,55.9,18.3,55z
			 M14.4,54h1.7c0.9,0,1.3,0.4,1.3,1s-0.5,1.1-1.4,1.1h-1.6L14.4,54z"/>
		<path class="st4" d="M28.6,53.1c-1.7,0-3.1,1.4-3.1,3.1c0,1.8,1.3,3.1,3.1,3.1c1.7,0,3.1-1.4,3.1-3.1
			C31.7,54.4,30.4,53.1,28.6,53.1z M28.6,58.5c-1.2,0-2.2-1-2.2-2.3c0-1.3,0.9-2.2,2.1-2.2c1.2,0,2.2,1,2.2,2.3
			C30.8,57.5,29.9,58.5,28.6,58.5z"/>
		<path class="st4" d="M43.3,56.7c0,1.1-0.6,1.8-1.6,1.8c-1,0-1.6-0.7-1.6-1.8v-3.4h-0.9v3.5c0,1.6,1,2.6,2.5,2.6
			c1.6,0,2.5-1,2.5-2.7v-3.4h-0.9L43.3,56.7L43.3,56.7z"/>
		<path class="st4" d="M54.1,53.2h-2.3v6h0.9v-2H54c1.4,0,2.4-0.8,2.4-2C56.4,54,55.5,53.2,54.1,53.2z M52.7,54h1.3
			c0.9,0,1.4,0.4,1.4,1.1c0,0.7-0.6,1.2-1.5,1.2h-1.3L52.7,54L52.7,54z"/>
	</g>
</g>
</svg>
