<svg id="Layer_1" data-name="Layer 1" xmlns="http://www.w3.org/2000/svg" viewBox="0 0 60.32 95.9"><defs><style>.cls-1{fill:#006d77;}</style></defs><path class="cls-1" d="M8.48,2.05V67.5h47V2.05Zm43,61.43h-39V6.07h39Z" transform="translate(-1.84 -2.05)"/><path class="cls-1" d="M17.15,11.05V58.51h29.7V11.05ZM40.84,47c-.5.06-.81,1.1-.81,1.1-1.16-1.06-1.88-5.21-1.88-5.21-.52-2.8-1.27-3.59-1.27-3.59a24.17,24.17,0,0,0-2.81-2.6,1.29,1.29,0,0,0-.72-.28,5.19,5.19,0,0,1-2.09-1.25,6.84,6.84,0,0,1,.35,1.35,2.29,2.29,0,0,1,.86.58c1.19,1,1.38,4,1.38,4,0,.28.57.65.57.65.39.1.74.66.74.66.31.65-.48,1.27-.48,1.27l.47,5.13a2.32,2.32,0,0,0-.93,1.54,3.07,3.07,0,0,0-1.51,1.53c-.49-.58-.33-2.78-.33-2.78a20.75,20.75,0,0,1,.91-4.63,3.93,3.93,0,0,0,.24-2.07l-2.09-3.52a10.53,10.53,0,0,0-1.89-2.39,5.16,5.16,0,0,1-2.07-2.94.7.7,0,0,0-.23-.35,3,3,0,0,1-.58-1.46.44.44,0,0,0-.14-.27,10.53,10.53,0,0,1-1.74-2,5,5,0,0,1-.06,1.45A7.77,7.77,0,0,1,25.37,32a9.54,9.54,0,0,1,.54,2.19,1.64,1.64,0,0,1,.69.31,10.42,10.42,0,0,0,1.09.12.11.11,0,0,1,0,.16c0,.07-.09.05-.16.05l-.38,0c-.11,0-.23,0-.29.09a.34.34,0,0,0,.07.45.74.74,0,0,0,.15.08l.69.41c.06,0,.15.09.16.17s-.05.1-.11.1-.05-.05-.08-.07l-.12-.1-.26-.16a2.9,2.9,0,0,0-.29-.19c-.63-.34-.11.13-.11.13a3,3,0,0,0,.26.24,4.38,4.38,0,0,1,.45.41.1.1,0,0,1,0,.09c-.05.22-.42-.15-.47-.21s-.27-.26-.39-.4l-.14-.16s-.1-.12-.16,0a.14.14,0,0,0,0,.11l.07.09.3.38c.06.1.13.19.2.29s.05.08,0,.11a.1.1,0,0,1-.1,0L27,36.63l-.13-.18c-.13-.19-.25-.37-.38-.54s-.1-.18-.21-.12l0,0v0a4,4,0,0,0,.38.67.11.11,0,0,1,0,.08c0,.11-.12,0-.15,0l-.15-.17c-.06-.08-.12-.15-.17-.23a4.21,4.21,0,0,1-.86-1.83,7.7,7.7,0,0,1-1.81-2.91c-.12-.41-.3-1.67-.3-1.67a9.32,9.32,0,0,1-.46-2.45,1.28,1.28,0,0,0,0-.19c0-1.95,1-1.75,1-1.75l0-.89-.14,0v-.09l-.61,0v-.09l-.13,0,0-.32h-.3a.15.15,0,0,1-.15-.15l0-.41a.13.13,0,0,1,.15-.14H23v-.14h.15V23.1s-.28-.05-.12-.33a4.39,4.39,0,0,1,.87-.83l.29.16a1.13,1.13,0,0,1,.55-.28,1.47,1.47,0,0,1,1.58.81,1.1,1.1,0,0,1-.74,1.64c-.21,0-.3.3-.3.3-.17.33.21.19.21.19.16,0,.37-.24.37-.24l0-.15.33,0c0,.21,0,.25,0,.25-.15.09-.07.42-.07.42l.46,0a.09.09,0,0,1,.05,0,.43.43,0,0,0,.28.17H27a2.14,2.14,0,0,1,.68.26,12.22,12.22,0,0,0,1.62.64c.56.16,1.26,1.13,1.26,1.13.19.27,1.69,2.77,1.69,2.77a2.5,2.5,0,0,1,.63.68l.14.19a4.33,4.33,0,0,1,.57.91s0,.09,0,.09a.09.09,0,0,1-.06,0c-.11-.14-.23-.26-.33-.38a.27.27,0,0,0-.08-.07h0s0,0,0,0a.17.17,0,0,0,0,.11c.13.22.26.44.4.66a1.66,1.66,0,0,1,.13.27s0,.11,0,.12a.07.07,0,0,1-.08,0,2.79,2.79,0,0,1-.45-.63.43.43,0,0,0-.14-.21s0,0-.06,0,0,0,0,0a.89.89,0,0,0,.11.35,1.75,1.75,0,0,1,.18.56s0,.11,0,.12-.1,0-.12-.08a2.08,2.08,0,0,1-.15-.39c0-.13-.06-.26-.09-.38s-.05-.17-.12-.12,0,.4,0,.44,0,.2,0,.31,0,.21,0,.26-.11-.19-.11-.23,0-.28,0-.41,0-.38,0-.57a.38.38,0,0,0-.22-.24.19.19,0,0,0-.19,0,.88.88,0,0,0-.26.36.3.3,0,0,1-.22.19c-.12,0-.13-.06-.13-.06l.27-.66a.59.59,0,0,0,.06-.32c0-.25.1-.29.1-.29s-.06-.23-.06-.23c-.62-.7-.85-1-.92-1.07a.19.19,0,0,1,0-.08.23.23,0,0,0-.07-.17,13.58,13.58,0,0,1-1.45-1.36L29,27.53l.19.14c.22.14,1.3,1.79,1.65,2.26a.26.26,0,0,1,0,.3,1.94,1.94,0,0,1-.3.38.73.73,0,0,1-.42.18L30,31c.12-.06.51.14.51.14a1.86,1.86,0,0,1,.65,1.1l1.06.89a8.5,8.5,0,0,1,1.41,1.57,1.86,1.86,0,0,0,.82.64c1.74.15,2.53,1.92,2.83,2.87a1.26,1.26,0,0,0,.76.8,4.61,4.61,0,0,1,.76.36.43.43,0,0,1,.21.41c0,.33,0,.87,0,.87-.1.47,2.56,4.47,2.56,4.47A12.11,12.11,0,0,0,40.84,47Z" transform="translate(-1.84 -2.05)"/><path class="cls-1" d="M8.48,2.05V67.5h47V2.05Zm43,61.43h-39V6.07h39Z" transform="translate(-1.84 -2.05)"/><path class="cls-1" d="M17.15,11.05V58.51h29.7V11.05ZM40.84,47c-.5.06-.81,1.1-.81,1.1-1.16-1.06-1.88-5.21-1.88-5.21-.52-2.8-1.27-3.59-1.27-3.59a24.17,24.17,0,0,0-2.81-2.6,1.29,1.29,0,0,0-.72-.28,5.19,5.19,0,0,1-2.09-1.25,6.84,6.84,0,0,1,.35,1.35,2.29,2.29,0,0,1,.86.58c1.19,1,1.38,4,1.38,4,0,.28.57.65.57.65.39.1.74.66.74.66.31.65-.48,1.27-.48,1.27l.47,5.13a2.32,2.32,0,0,0-.93,1.54,3.07,3.07,0,0,0-1.51,1.53c-.49-.58-.33-2.78-.33-2.78a20.75,20.75,0,0,1,.91-4.63,3.93,3.93,0,0,0,.24-2.07l-2.09-3.52a10.53,10.53,0,0,0-1.89-2.39,5.16,5.16,0,0,1-2.07-2.94.7.7,0,0,0-.23-.35,3,3,0,0,1-.58-1.46.44.44,0,0,0-.14-.27,10.53,10.53,0,0,1-1.74-2,5,5,0,0,1-.06,1.45A7.77,7.77,0,0,1,25.37,32a9.54,9.54,0,0,1,.54,2.19,1.64,1.64,0,0,1,.69.31,10.42,10.42,0,0,0,1.09.12.11.11,0,0,1,0,.16c0,.07-.09.05-.16.05l-.38,0c-.11,0-.23,0-.29.09a.34.34,0,0,0,.07.45.74.74,0,0,0,.15.08l.69.41c.06,0,.15.09.16.17s-.05.1-.11.1-.05-.05-.08-.07l-.12-.1-.26-.16a2.9,2.9,0,0,0-.29-.19c-.63-.34-.11.13-.11.13a3,3,0,0,0,.26.24,4.38,4.38,0,0,1,.45.41.1.1,0,0,1,0,.09c-.05.22-.42-.15-.47-.21s-.27-.26-.39-.4l-.14-.16s-.1-.12-.16,0a.14.14,0,0,0,0,.11l.07.09.3.38c.06.1.13.19.2.29s.05.08,0,.11a.1.1,0,0,1-.1,0L27,36.63l-.13-.18c-.13-.19-.25-.37-.38-.54s-.1-.18-.21-.12l0,0v0a4,4,0,0,0,.38.67.11.11,0,0,1,0,.08c0,.11-.12,0-.15,0l-.15-.17c-.06-.08-.12-.15-.17-.23a4.21,4.21,0,0,1-.86-1.83,7.7,7.7,0,0,1-1.81-2.91c-.12-.41-.3-1.67-.3-1.67a9.32,9.32,0,0,1-.46-2.45,1.28,1.28,0,0,0,0-.19c0-1.95,1-1.75,1-1.75l0-.89-.14,0v-.09l-.61,0v-.09l-.13,0,0-.32h-.3a.15.15,0,0,1-.15-.15l0-.41a.13.13,0,0,1,.15-.14H23v-.14h.15V23.1s-.28-.05-.12-.33a4.39,4.39,0,0,1,.87-.83l.29.16a1.13,1.13,0,0,1,.55-.28,1.47,1.47,0,0,1,1.58.81,1.1,1.1,0,0,1-.74,1.64c-.21,0-.3.3-.3.3-.17.33.21.19.21.19.16,0,.37-.24.37-.24l0-.15.33,0c0,.21,0,.25,0,.25-.15.09-.07.42-.07.42l.46,0a.09.09,0,0,1,.05,0,.43.43,0,0,0,.28.17H27a2.14,2.14,0,0,1,.68.26,12.22,12.22,0,0,0,1.62.64c.56.16,1.26,1.13,1.26,1.13.19.27,1.69,2.77,1.69,2.77a2.5,2.5,0,0,1,.63.68l.14.19a4.33,4.33,0,0,1,.57.91s0,.09,0,.09a.09.09,0,0,1-.06,0c-.11-.14-.23-.26-.33-.38a.27.27,0,0,0-.08-.07h0s0,0,0,0a.17.17,0,0,0,0,.11c.13.22.26.44.4.66a1.66,1.66,0,0,1,.13.27s0,.11,0,.12a.07.07,0,0,1-.08,0,2.79,2.79,0,0,1-.45-.63.43.43,0,0,0-.14-.21s0,0-.06,0,0,0,0,0a.89.89,0,0,0,.11.35,1.75,1.75,0,0,1,.18.56s0,.11,0,.12-.1,0-.12-.08a2.08,2.08,0,0,1-.15-.39c0-.13-.06-.26-.09-.38s-.05-.17-.12-.12,0,.4,0,.44,0,.2,0,.31,0,.21,0,.26-.11-.19-.11-.23,0-.28,0-.41,0-.38,0-.57a.38.38,0,0,0-.22-.24.19.19,0,0,0-.19,0,.88.88,0,0,0-.26.36.3.3,0,0,1-.22.19c-.12,0-.13-.06-.13-.06l.27-.66a.59.59,0,0,0,.06-.32c0-.25.1-.29.1-.29s-.06-.23-.06-.23c-.62-.7-.85-1-.92-1.07a.19.19,0,0,1,0-.08.23.23,0,0,0-.07-.17,13.58,13.58,0,0,1-1.45-1.36L29,27.53l.19.14c.22.14,1.3,1.79,1.65,2.26a.26.26,0,0,1,0,.3,1.94,1.94,0,0,1-.3.38.73.73,0,0,1-.42.18L30,31c.12-.06.51.14.51.14a1.86,1.86,0,0,1,.65,1.1l1.06.89a8.5,8.5,0,0,1,1.41,1.57,1.86,1.86,0,0,0,.82.64c1.74.15,2.53,1.92,2.83,2.87a1.26,1.26,0,0,0,.76.8,4.61,4.61,0,0,1,.76.36.43.43,0,0,1,.21.41c0,.33,0,.87,0,.87-.1.47,2.56,4.47,2.56,4.47A12.11,12.11,0,0,0,40.84,47Z" transform="translate(-1.84 -2.05)"/><path class="cls-1" d="M3.48,85H1.84v-.25H3.48q.91,0,1.83,0l1.82,0c3.21,0,7.84,1.16,7.84,6.41S10.29,97.5,7.54,97.5c-.68,0-1.36,0-2,0l-2,0H1.84V97.2H3.48ZM6.07,97.2c.34,0,.63,0,.95,0,4.63,0,5-3.62,5-6,0-3.84-.74-6.34-4.88-6.34a10.11,10.11,0,0,0-1.11,0Z" transform="translate(-1.84 -2.05)"/><path class="cls-1" d="M16.52,84.73h5.87V85H20.75V97.2h1.64v.25H16.52V97.2h1.64V85H16.52Z" transform="translate(-1.84 -2.05)"/><path class="cls-1" d="M22.77,84.73h6V85H27l3.69,9.68L34.5,85H32.89v-.25H36.3V85H34.77l-5,13h-.52L24.29,85H22.77Z" transform="translate(-1.84 -2.05)"/><path class="cls-1" d="M36.64,84.73H47.32v3.06h-.23A3.56,3.56,0,0,0,43.71,85H40.87V90.5h1c1.75,0,2.36-1,2.7-2.66h.23v5.55h-.23c-.32-1.39-.86-2.64-2.5-2.64h-1.2V97.2H43.8c2.2,0,3.54-1.59,4-3.66h.23v3.91H36.64V97.2h1.64V85H36.64Z" transform="translate(-1.84 -2.05)"/><path class="cls-1" d="M51.14,85H49.5v-.25h2.69c.5,0,1,0,1.49,0l1.48,0c1.87,0,4.37.68,4.37,3,0,1.91-1.91,2.65-3.51,2.77v.09c2.32.41,3.71.66,3.91,3.23.23,3,.21,3.49,1,3.49a1.44,1.44,0,0,0,1-.59l.18.16a2.32,2.32,0,0,1-2.09.84c-2.63,0-2.71-1.9-2.77-3.15-.09-1.94-.18-3.82-2.39-3.82H53.73V97.2h1.64v.25H49.5V97.2h1.64Zm2.59,5.52h.73c2.14,0,2.32-1.27,2.32-2.57,0-2.09-.48-3-2.26-3-.27,0-.52,0-.79,0Z" transform="translate(-1.84 -2.05)"/></svg>