<svg id="Layer_1" data-name="Layer 1" xmlns="http://www.w3.org/2000/svg" viewBox="0 0 34.68 36.02"><defs><style>.cls-1{fill:#006d77;}</style></defs><path class="cls-1" d="M22,9.15V7h5.63v.75c0,.38,0,.76,0,1.14,0,.2.05.27.26.27H38.07a.38.38,0,0,0,.43-.27,2,2,0,0,1,2.17-1.16,2,2,0,0,1,1.65,1.7,2,2,0,0,1-3.86,1,.25.25,0,0,0-.28-.2h-6.9l-.17,0,.24.14A15.17,15.17,0,0,1,40.2,21c.1.39.16.78.22,1.17,0,.16.08.23.25.22h1.27v3.78H38.18V22.4h1.18a14.27,14.27,0,0,0-11.77-12v2.21H22v-2A14.09,14.09,0,0,0,11.12,22.38h1.23v3.8H8.59V22.4c.34,0,.7,0,1.06,0s.35-.09.39-.34a15.14,15.14,0,0,1,9.08-11.69l.21-.11-.22,0H11.87a.32.32,0,0,0-.36.24,2,2,0,0,1-2.33,1.18A2,2,0,0,1,7.67,9.47,2,2,0,0,1,9.5,7.7a1.94,1.94,0,0,1,2,1.25.28.28,0,0,0,.31.2H22Zm1.1-1.07c0,.1,0,.17,0,.24,0,1,0,2,0,2.95,0,.22.06.29.28.29,1,0,2,0,2.93,0l.22,0V8.08ZM39.41,9.69a.92.92,0,1,0,1.83,0,.92.92,0,0,0-.94-.93A.91.91,0,0,0,39.41,9.69Zm-28.83,0a.92.92,0,1,0-.91.92A.9.9,0,0,0,10.58,9.7ZM9.66,23.51c0,.5,0,1,0,1.44,0,.05.07.14.11.14h1.47V23.51Zm31.18,1.57V23.51H39.27v1.57Z" transform="translate(-7.66 -6.99)"/><path class="cls-1" d="M33.31,28.92a9.74,9.74,0,0,0-4.87,6.91h.88v1.84h1.16c0,.12,0,.21,0,.31,0,1.57,0,3.15,0,4.73,0,.2-.05.29-.28.29H19.32V37.69h1.13V35.85h.91a9.76,9.76,0,0,0-4.87-6.94l.76-1.58Q20.49,20.69,23.72,14a.48.48,0,0,1,.52-.32c.48,0,1,0,1.45,0A.33.33,0,0,1,26,14c1,2.12,2.05,4.23,3.08,6.34q2,4.18,4.07,8.35Zm-10.8,6.91h.23c1.43,0,2.85,0,4.28,0,.21,0,.28-.07.33-.27a14.39,14.39,0,0,1,1.22-3.42,10.25,10.25,0,0,1,3.12-3.46c.13-.11.22-.18.12-.38-1.26-2.55-2.5-5.11-3.74-7.66q-1.25-2.55-2.48-5.11l-.14-.19v.39c0,1,0,2.1,0,3.14,0,1.68,0,3.35,0,5,0,.29,0,.5.39.56a.83.83,0,0,1,.34.19,2.14,2.14,0,1,1-3.37,2,2.12,2.12,0,0,1,1.35-2.3.29.29,0,0,0,.23-.32c0-2.82,0-5.65,0-8.48a.88.88,0,0,0,0-.17h0L17.89,28.54A10.77,10.77,0,0,1,22.51,35.83Zm6.88,3-.22,0H20.64c-.22,0-.25.08-.25.26,0,.88,0,1.75,0,2.62a2.12,2.12,0,0,0,0,.24h9Zm-7.81-1.13h6.63v-.74h-6C21.5,36.93,21.5,36.93,21.58,37.67Zm3.35-12.33a1,1,0,0,0-1.07,1,1,1,0,0,0,1,1.09,1.07,1.07,0,0,0,1.06-1A1,1,0,0,0,24.93,25.34Z" transform="translate(-7.66 -6.99)"/></svg>