<?xml version="1.0" encoding="utf-8"?>
<!-- Generator: Adobe Illustrator 24.1.3, SVG Export Plug-In . SVG Version: 6.00 Build 0)  -->
<svg version="1.1" id="Layer_1" xmlns="http://www.w3.org/2000/svg" xmlns:xlink="http://www.w3.org/1999/xlink" x="0px" y="0px"
	 viewBox="0 0 184.4 17.5" style="enable-background:new 0 0 184.4 17.5;" xml:space="preserve">
<style type="text/css">
	.st0{display:none;}
	.st1{display:inline;opacity:0.4;}
	.st2{fill:#92F7FF;}
	.st3{display:inline;}
	.st4{fill:#003136;}
</style>
<g id="BGD">
</g>
<g id="Hero">
</g>
<g id="Slogan">
</g>
<g id="Services">
</g>
<g id="Clients">
</g>
<g id="Proposal">
</g>
<g id="Diver_Shop">
</g>
<g id="Guides_1_" class="st0">
	<g id="Grid" class="st1">
		<rect x="707.7" y="-2077.8" class="st2" width="76" height="6963"/>
		<rect x="610.2" y="-2077.8" class="st2" width="76" height="6963"/>
		<rect x="805.1" y="-2077.8" class="st2" width="76" height="6963"/>
		<rect x="1097.5" y="-2077.8" class="st2" width="76" height="6963"/>
		<rect x="902.6" y="-2077.8" class="st2" width="76" height="6963"/>
		<rect x="1000" y="-2077.8" class="st2" width="76" height="6963"/>
		<rect x="1194.9" y="-2077.8" class="st2" width="76" height="6963"/>
		<rect x="1292.4" y="-2077.8" class="st2" width="76" height="6963"/>
		<rect x="1389.8" y="-2077.8" class="st2" width="76" height="6963"/>
		<rect x="1487.3" y="-2077.8" class="st2" width="76" height="6963"/>
		<rect x="1584.7" y="-2077.8" class="st2" width="76" height="6963"/>
		<rect x="1682.2" y="-2077.8" class="st2" width="76" height="6963"/>
	</g>
	<g id="Guides" class="st3">
	</g>
</g>
<g>
	<g>
		<path class="st4" d="M3.8,5C2.4,4.7,2.1,4.4,2.1,3.8v0c0-0.6,0.5-1,1.3-1c0.7,0,1.3,0.2,1.8,0.7l0.1,0.1l0.5-0.7l-0.1,0
			C5.1,2.3,4.4,2,3.4,2C2.1,2,1.2,2.8,1.2,3.9v0c0,1.2,0.9,1.7,2.3,2C4.8,6.2,5.1,6.5,5.1,7v0c0,0.6-0.6,1-1.4,1
			c-0.8,0-1.5-0.3-2.2-0.9L1.5,7.1L0.9,7.8L1,7.9c0.8,0.7,1.7,1.1,2.7,1.1C5.1,8.9,6,8.1,6,7v0C6,5.9,5.4,5.4,3.8,5z"/>
		<polygon class="st4" points="13.1,5.9 16.6,5.9 16.6,5 13.1,5 13.1,2.9 17.1,2.9 17.1,2.1 12.2,2.1 12.2,8.8 17.1,8.8 17.1,8 
			13.1,8 		"/>
		<path class="st4" d="M28.7,4.2L28.7,4.2c0-0.5-0.2-1-0.5-1.4c-0.4-0.4-1.1-0.7-1.9-0.7h-2.9v6.7h0.9V6.3H26l1.9,2.5H29l-2-2.7
			C28.1,5.9,28.7,5.2,28.7,4.2z M24.3,5.5V3h1.9c1,0,1.6,0.5,1.6,1.2v0c0,0.8-0.6,1.3-1.6,1.3H24.3z"/>
		<path class="st4" d="M37.4,6h2v1.5c-0.5,0.4-1.2,0.6-1.8,0.6C36,8.1,35,7.1,35,5.5v0c0-1.5,1.1-2.6,2.4-2.6c1,0,1.5,0.4,1.9,0.7
			l0.1,0.1L40,2.9L40,2.9C39.2,2.3,38.5,2,37.5,2c-1.9,0-3.4,1.5-3.4,3.5v0c0,2,1.4,3.5,3.4,3.5c1.3,0,2.3-0.6,2.7-1l0,0V5.2h-2.9V6
			z"/>
		<polygon class="st4" points="47.2,5.9 50.8,5.9 50.8,5 47.2,5 47.2,2.9 51.2,2.9 51.2,2.1 46.3,2.1 46.3,8.8 51.3,8.8 51.3,8 
			47.2,8 		"/>
		<polygon class="st4" points="65.4,3 67.6,3 67.6,8.8 68.6,8.8 68.6,3 70.8,3 70.8,2.1 65.4,2.1 		"/>
		<path class="st4" d="M77.7,2.1l-3.1,6.8h0.9l0.8-1.7h3.5l0.8,1.7h1l-3.1-6.8L77.7,2.1z M76.8,6.3l1.4-3.1l1.4,3.1H76.8z"/>
		<path class="st4" d="M89.3,6h2v1.5c-0.5,0.4-1.2,0.6-1.8,0.6C88,8.1,87,7.1,87,5.5v0c0-1.5,1.1-2.6,2.4-2.6c1,0,1.5,0.4,1.9,0.7
			l0.1,0.1L92,2.9l-0.1-0.1C91.2,2.3,90.5,2,89.4,2c-1.9,0-3.4,1.5-3.4,3.5v0c0,2,1.4,3.5,3.4,3.5c1.3,0,2.3-0.6,2.7-1l0,0V5.2h-2.9
			V6z"/>
		<polygon class="st4" points="98.8,2.1 97.9,2.1 97.9,8.8 102.4,8.8 102.4,8 98.8,8 		"/>
		<rect x="107.9" y="2.1" class="st4" width="0.9" height="6.7"/>
		<path class="st4" d="M117.1,2.1l-3.1,6.8h0.9l0.8-1.7h3.5l0.8,1.7h1l-3.1-6.8L117.1,2.1z M116.1,6.3l1.4-3.1l1.4,3.1H116.1z"/>
		<path class="st4" d="M130.6,5.3c0.4-0.2,0.9-0.7,0.9-1.5v0c0-0.4-0.1-0.8-0.4-1.1c-0.4-0.4-1-0.6-1.8-0.6h-2.9v6.7h3
			c1.5,0,2.5-0.7,2.5-1.9v0C131.9,6.2,131.5,5.6,130.6,5.3z M127.3,2.9h1.9c0.9,0,1.4,0.4,1.4,1v0c0,0.7-0.5,1.1-1.4,1.1h-1.9V2.9z
			 M131,6.9c0,0.7-0.6,1.1-1.5,1.1h-2.1V5.9h2C130.4,5.9,131,6.2,131,6.9L131,6.9L131,6.9z"/>
		<path class="st4" d="M143.9,5.4c0-2-1.5-3.4-3.4-3.4c-1.9,0-3.4,1.5-3.4,3.5v0c0,2,1.5,3.5,3.4,3.5C142.4,8.9,143.9,7.4,143.9,5.4
			L143.9,5.4L143.9,5.4L143.9,5.4z M143,5.5c0,1.5-1.1,2.6-2.5,2.6c-1.4,0-2.5-1.1-2.5-2.6v0c0-1.5,1.1-2.6,2.5-2.6
			C141.9,2.8,143,4,143,5.5L143,5.5z"/>
		<path class="st4" d="M152,5c-1.5-0.3-1.7-0.6-1.7-1.2v0c0-0.6,0.5-1,1.3-1c0.7,0,1.3,0.2,1.8,0.7l0.1,0.1l0.5-0.7l-0.1,0
			c-0.7-0.6-1.4-0.8-2.4-0.8c-1.3,0-2.2,0.8-2.2,1.9v0c0,1.2,0.9,1.7,2.3,2c1.4,0.3,1.6,0.6,1.6,1.2v0c0,0.6-0.6,1-1.4,1
			c-0.8,0-1.5-0.3-2.2-0.9l-0.1-0.1l-0.6,0.7l0.1,0.1c0.8,0.7,1.7,1.1,2.7,1.1c1.4,0,2.3-0.8,2.3-1.9v0C154.2,5.9,153.6,5.4,152,5z"
			/>
		<path class="st4" d="M165,7.2c-0.6,0.6-1.2,0.9-2.1,0.9c-1.4,0-2.5-1.2-2.5-2.6v0c0-1.5,1.1-2.6,2.5-2.6c0.8,0,1.4,0.3,2,0.9
			l0.1,0.1l0.6-0.7l-0.1-0.1C165,2.5,164.3,2,163,2c-1.9,0-3.4,1.5-3.4,3.5v0c0,2,1.4,3.5,3.4,3.5c1.3,0,2.1-0.6,2.7-1.2l0.1-0.1
			L165,7.2L165,7.2z"/>
		<polygon class="st4" points="175.6,5 172,5 172,2.1 171.1,2.1 171.1,8.8 172,8.8 172,5.9 175.6,5.9 175.6,8.8 176.5,8.8 
			176.5,2.1 175.6,2.1 		"/>
		<rect x="182.6" y="2.1" class="st4" width="0.9" height="6.7"/>
	</g>
	<g>
		<path class="st4" d="M35.7,13.3l1,2.1h-0.2l-0.3-0.7h-0.9l-0.3,0.7h-0.2L35.7,13.3L35.7,13.3z M35.7,13.8l-0.4,0.8H36L35.7,13.8z"
			/>
		<path class="st4" d="M39.3,13.3h0.4c0.2,0,0.4,0,0.5,0c0.1,0,0.2,0.1,0.3,0.2c0.1,0.1,0.1,0.2,0.1,0.3c0,0.1,0,0.2-0.1,0.3
			c-0.1,0.1-0.1,0.2-0.2,0.2c-0.1,0-0.2,0.1-0.4,0.1l0.8,1h-0.3l-0.8-1h-0.1v1h-0.2L39.3,13.3L39.3,13.3z M39.5,13.6v0.7l0.4,0
			c0.1,0,0.2,0,0.3,0c0.1,0,0.1-0.1,0.2-0.1c0-0.1,0.1-0.1,0.1-0.2c0-0.1,0-0.1-0.1-0.2s-0.1-0.1-0.1-0.1c-0.1,0-0.2,0-0.3,0
			L39.5,13.6L39.5,13.6z"/>
		<path class="st4" d="M45.4,13.7l-0.2,0.1c-0.1-0.1-0.2-0.2-0.3-0.3c-0.1-0.1-0.3-0.1-0.4-0.1c-0.2,0-0.3,0-0.5,0.1
			c-0.1,0.1-0.3,0.2-0.3,0.3c-0.1,0.1-0.1,0.3-0.1,0.5c0,0.3,0.1,0.5,0.3,0.6s0.4,0.3,0.7,0.3c0.3,0,0.5-0.1,0.7-0.3l0.2,0.1
			c-0.1,0.1-0.2,0.2-0.4,0.3c-0.2,0.1-0.3,0.1-0.5,0.1c-0.4,0-0.7-0.1-0.9-0.4c-0.2-0.2-0.3-0.5-0.3-0.7c0-0.3,0.1-0.6,0.3-0.8
			c0.2-0.2,0.5-0.3,0.8-0.3c0.2,0,0.4,0,0.5,0.1C45.1,13.5,45.3,13.6,45.4,13.7z"/>
		<path class="st4" d="M48.1,13.3h0.2v0.9h1.1v-0.9h0.2v2.1h-0.2v-1h-1.1v1h-0.2V13.3z"/>
		<path class="st4" d="M52.4,13.3h0.2v2.1h-0.2V13.3z"/>
		<path class="st4" d="M55.2,13.6v-0.2h1.1v0.2h-0.5v1.9h-0.2v-1.9H55.2z"/>
		<path class="st4" d="M59,13.3h1.2v0.2h-1v0.7h1v0.2h-1v0.8h1v0.2H59V13.3z"/>
		<path class="st4" d="M64.8,13.7l-0.2,0.1c-0.1-0.1-0.2-0.2-0.3-0.3c-0.1-0.1-0.3-0.1-0.4-0.1c-0.2,0-0.3,0-0.5,0.1
			c-0.1,0.1-0.3,0.2-0.3,0.3C63,14.1,63,14.2,63,14.4c0,0.3,0.1,0.5,0.3,0.6c0.2,0.2,0.4,0.3,0.7,0.3c0.3,0,0.5-0.1,0.7-0.3l0.2,0.1
			c-0.1,0.1-0.2,0.2-0.4,0.3c-0.2,0.1-0.3,0.1-0.5,0.1c-0.4,0-0.7-0.1-0.9-0.4c-0.2-0.2-0.3-0.5-0.3-0.7c0-0.3,0.1-0.6,0.3-0.8
			c0.2-0.2,0.5-0.3,0.8-0.3c0.2,0,0.4,0,0.5,0.1C64.5,13.5,64.7,13.6,64.8,13.7z"/>
		<path class="st4" d="M67.3,13.6v-0.2h1.1v0.2H68v1.9h-0.2v-1.9H67.3z"/>
		<path class="st4" d="M71.1,13.3h0.2v1.3c0,0.1,0,0.2,0,0.3c0,0.1,0,0.2,0.1,0.2c0,0.1,0.1,0.1,0.2,0.1c0.1,0,0.2,0.1,0.2,0.1
			c0.1,0,0.1,0,0.2,0c0.1,0,0.1-0.1,0.2-0.1c0-0.1,0.1-0.1,0.1-0.2c0-0.1,0-0.2,0-0.3v-1.3h0.2v1.3c0,0.2,0,0.3-0.1,0.5
			c0,0.1-0.1,0.2-0.2,0.3c-0.1,0.1-0.2,0.1-0.4,0.1c-0.2,0-0.3,0-0.4-0.1c-0.1-0.1-0.2-0.2-0.2-0.3c0-0.1,0-0.2,0-0.4L71.1,13.3
			L71.1,13.3z"/>
		<path class="st4" d="M75.3,13.3h0.4c0.2,0,0.4,0,0.5,0c0.1,0,0.2,0.1,0.3,0.2c0.1,0.1,0.1,0.2,0.1,0.3c0,0.1,0,0.2-0.1,0.3
			c-0.1,0.1-0.1,0.2-0.2,0.2c-0.1,0-0.2,0.1-0.4,0.1l0.8,1h-0.3l-0.8-1h-0.1v1h-0.2L75.3,13.3L75.3,13.3z M75.5,13.6v0.7l0.4,0
			c0.1,0,0.2,0,0.3,0c0.1,0,0.1-0.1,0.2-0.1c0-0.1,0.1-0.1,0.1-0.2c0-0.1,0-0.1-0.1-0.2s-0.1-0.1-0.1-0.1c-0.1,0-0.2,0-0.3,0
			L75.5,13.6L75.5,13.6z"/>
		<path class="st4" d="M79.4,13.3h1.2v0.2h-1v0.7h1v0.2h-1v0.8h1v0.2h-1.2V13.3z"/>
		<path class="st4" d="M88,14.7l0.1,0.1C88,14.9,87.9,15,87.9,15c0.1,0.1,0.1,0.1,0.2,0.2c0.1,0.1,0.1,0.1,0.2,0.2H88l-0.3-0.3
			c-0.2,0.1-0.3,0.2-0.4,0.3c-0.1,0-0.2,0.1-0.3,0.1c-0.2,0-0.3,0-0.4-0.1c-0.1-0.1-0.1-0.2-0.1-0.3c0-0.1,0-0.2,0.1-0.3
			c0.1-0.1,0.2-0.2,0.4-0.4c-0.1-0.1-0.2-0.2-0.2-0.3c0-0.1,0-0.1,0-0.2c0-0.1,0-0.2,0.1-0.3c0.1-0.1,0.2-0.1,0.3-0.1
			c0.1,0,0.2,0,0.2,0.1c0.1,0,0.1,0.1,0.2,0.1s0.1,0.1,0.1,0.2c0,0.1,0,0.1-0.1,0.2c0,0.1-0.1,0.2-0.3,0.3l0.3,0.3l0.2,0.2
			C87.8,14.8,87.9,14.7,88,14.7z M87,14.4c-0.2,0.1-0.3,0.2-0.3,0.3c-0.1,0.1-0.1,0.2-0.1,0.2c0,0.1,0,0.1,0.1,0.2
			c0.1,0.1,0.1,0.1,0.2,0.1c0.1,0,0.1,0,0.2,0c0.1,0,0.2-0.1,0.4-0.2l-0.3-0.3C87.2,14.6,87.1,14.5,87,14.4z M87.1,14.2
			c0.1-0.1,0.2-0.2,0.2-0.2c0-0.1,0.1-0.1,0.1-0.1c0,0,0-0.1-0.1-0.1c0,0-0.1-0.1-0.2-0.1c-0.1,0-0.1,0-0.2,0.1c0,0-0.1,0.1-0.1,0.1
			c0,0,0,0.1,0,0.1C86.9,14,87,14.1,87.1,14.2z"/>
		<path class="st4" d="M94,13.3h0.2v2.1H94V13.3z"/>
		<path class="st4" d="M97,15.4v-2.1h0l1.4,1.6v-1.6h0.2v2.1h0l-1.4-1.6v1.6H97z"/>
		<path class="st4" d="M101.3,13.6v-0.2h1.1v0.2H102v1.9h-0.2v-1.9H101.3z"/>
		<path class="st4" d="M105.1,13.3h1.2v0.2h-1v0.7h1v0.2h-1v0.8h1v0.2h-1.2V13.3z"/>
		<path class="st4" d="M109,13.3h0.4c0.2,0,0.4,0,0.5,0c0.1,0,0.2,0.1,0.3,0.2c0.1,0.1,0.1,0.2,0.1,0.3c0,0.1,0,0.2-0.1,0.3
			c-0.1,0.1-0.1,0.2-0.2,0.2c-0.1,0-0.2,0.1-0.4,0.1l0.8,1H110l-0.8-1h-0.1v1H109L109,13.3L109,13.3z M109.2,13.6v0.7l0.4,0
			c0.1,0,0.2,0,0.3,0c0.1,0,0.1-0.1,0.2-0.1c0-0.1,0.1-0.1,0.1-0.2c0-0.1,0-0.1-0.1-0.2c0-0.1-0.1-0.1-0.1-0.1c-0.1,0-0.2,0-0.3,0
			L109.2,13.6L109.2,13.6z"/>
		<path class="st4" d="M113,13.3h0.2v2.1H113V13.3z"/>
		<path class="st4" d="M117,13.3c0.3,0,0.6,0.1,0.8,0.3c0.2,0.2,0.3,0.5,0.3,0.8c0,0.3-0.1,0.6-0.3,0.8c-0.2,0.2-0.5,0.3-0.8,0.3
			c-0.3,0-0.6-0.1-0.8-0.3c-0.2-0.2-0.3-0.5-0.3-0.8c0-0.2,0-0.4,0.1-0.6c0.1-0.2,0.2-0.3,0.4-0.4C116.6,13.3,116.8,13.3,117,13.3z
			 M117,13.5c-0.2,0-0.3,0-0.4,0.1c-0.1,0.1-0.2,0.2-0.3,0.3c-0.1,0.1-0.1,0.3-0.1,0.5c0,0.2,0.1,0.5,0.3,0.6
			c0.2,0.2,0.4,0.3,0.6,0.3c0.2,0,0.3,0,0.4-0.1c0.1-0.1,0.2-0.2,0.3-0.3c0.1-0.1,0.1-0.3,0.1-0.5c0-0.2,0-0.3-0.1-0.4
			c-0.1-0.1-0.2-0.2-0.3-0.3C117.3,13.5,117.2,13.5,117,13.5z"/>
		<path class="st4" d="M120.9,13.3h0.4c0.2,0,0.4,0,0.5,0c0.1,0,0.2,0.1,0.3,0.2c0.1,0.1,0.1,0.2,0.1,0.3c0,0.1,0,0.2-0.1,0.3
			c-0.1,0.1-0.1,0.2-0.2,0.2c-0.1,0-0.2,0.1-0.4,0.1l0.8,1h-0.3l-0.8-1h-0.1v1h-0.2L120.9,13.3L120.9,13.3z M121.1,13.6v0.7l0.4,0
			c0.1,0,0.2,0,0.3,0c0.1,0,0.1-0.1,0.2-0.1c0-0.1,0.1-0.1,0.1-0.2c0-0.1,0-0.1-0.1-0.2s-0.1-0.1-0.1-0.1c-0.1,0-0.2,0-0.3,0
			L121.1,13.6L121.1,13.6z"/>
		<path class="st4" d="M128.1,15.4v-2.1h0.4c0.3,0,0.5,0,0.7,0.1c0.2,0.1,0.4,0.2,0.5,0.4c0.1,0.2,0.2,0.4,0.2,0.6
			c0,0.2,0,0.4-0.1,0.6c-0.1,0.2-0.2,0.3-0.4,0.4s-0.3,0.1-0.6,0.1L128.1,15.4L128.1,15.4z M128.3,15.2h0.2c0.3,0,0.5,0,0.6-0.1
			c0.2-0.1,0.3-0.1,0.4-0.3c0.1-0.1,0.1-0.3,0.1-0.5c0-0.2,0-0.4-0.1-0.5c-0.1-0.1-0.2-0.2-0.4-0.3c-0.1,0-0.3-0.1-0.6-0.1h-0.1
			L128.3,15.2L128.3,15.2z"/>
		<path class="st4" d="M132.6,13.3h1.2v0.2h-1v0.7h1v0.2h-1v0.8h1v0.2h-1.2V13.3z"/>
		<path class="st4" d="M136.2,15l0.2-0.1c0.1,0.2,0.3,0.3,0.4,0.3c0.1,0,0.1,0,0.2,0c0.1,0,0.1-0.1,0.1-0.1c0-0.1,0-0.1,0-0.2
			c0-0.1,0-0.1-0.1-0.2c-0.1-0.1-0.2-0.2-0.4-0.3c-0.2-0.1-0.3-0.2-0.3-0.3c-0.1-0.1-0.1-0.2-0.1-0.3c0-0.1,0-0.2,0.1-0.2
			c0-0.1,0.1-0.1,0.2-0.2c0.1,0,0.2-0.1,0.3-0.1c0.1,0,0.2,0,0.3,0.1c0.1,0,0.2,0.1,0.3,0.3l-0.2,0.1c-0.1-0.1-0.1-0.2-0.2-0.2
			c-0.1,0-0.1,0-0.2,0c-0.1,0-0.2,0-0.2,0.1s-0.1,0.1-0.1,0.2c0,0,0,0.1,0,0.1c0,0,0.1,0.1,0.1,0.1c0,0,0.1,0.1,0.3,0.2
			c0.2,0.1,0.3,0.3,0.4,0.4c0.1,0.1,0.1,0.2,0.1,0.3c0,0.2-0.1,0.3-0.2,0.4c-0.1,0.1-0.3,0.2-0.4,0.2c-0.1,0-0.2,0-0.3-0.1
			C136.4,15.3,136.3,15.2,136.2,15z"/>
		<path class="st4" d="M140.2,13.3h0.2v2.1h-0.2V13.3z"/>
		<path class="st4" d="M145.2,13.7l-0.2,0.2c-0.1-0.1-0.2-0.2-0.4-0.3s-0.3-0.1-0.4-0.1c-0.2,0-0.3,0-0.5,0.1
			c-0.1,0.1-0.3,0.2-0.3,0.3c-0.1,0.1-0.1,0.3-0.1,0.4c0,0.2,0,0.3,0.1,0.4c0.1,0.1,0.2,0.3,0.3,0.3c0.1,0.1,0.3,0.1,0.5,0.1
			c0.2,0,0.4-0.1,0.5-0.2c0.1-0.1,0.2-0.3,0.3-0.5h-0.7v-0.2h0.9c0,0.3-0.1,0.6-0.3,0.8c-0.2,0.2-0.4,0.3-0.8,0.3
			c-0.4,0-0.7-0.1-0.9-0.4c-0.2-0.2-0.3-0.4-0.3-0.7c0-0.2,0-0.4,0.1-0.6c0.1-0.2,0.2-0.3,0.4-0.4c0.2-0.1,0.4-0.1,0.6-0.1
			c0.2,0,0.3,0,0.5,0.1C144.9,13.5,145.1,13.6,145.2,13.7z"/>
		<path class="st4" d="M148.1,15.4v-2.1h0l1.4,1.6v-1.6h0.2v2.1h0l-1.4-1.6v1.6H148.1z"/>
	</g>
</g>
</svg>
