<?xml version="1.0" encoding="utf-8"?>
<!-- Generator: Adobe Illustrator 24.1.3, SVG Export Plug-In . SVG Version: 6.00 Build 0)  -->
<svg version="1.1" id="Layer_1" xmlns="http://www.w3.org/2000/svg" xmlns:xlink="http://www.w3.org/1999/xlink" x="0px" y="0px"
	 viewBox="0 0 115.5 37" style="enable-background:new 0 0 115.5 37;" xml:space="preserve">
<style type="text/css">
	.st0{display:none;}
	.st1{display:inline;opacity:0.4;}
	.st2{fill:#92F7FF;}
	.st3{display:inline;}
	.st4{fill:#003136;}
</style>
<g id="BGD">
</g>
<g id="Hero">
</g>
<g id="Slogan">
</g>
<g id="Services">
</g>
<g id="Clients">
</g>
<g id="Proposal">
</g>
<g id="Diver_Shop">
</g>
<g id="Guides_1_" class="st0">
	<g id="Grid" class="st1">
		<rect x="673.2" y="-2068" class="st2" width="76" height="6963"/>
		<rect x="575.7" y="-2068" class="st2" width="76" height="6963"/>
		<rect x="770.6" y="-2068" class="st2" width="76" height="6963"/>
		<rect x="1063" y="-2068" class="st2" width="76" height="6963"/>
		<rect x="868.1" y="-2068" class="st2" width="76" height="6963"/>
		<rect x="965.5" y="-2068" class="st2" width="76" height="6963"/>
		<rect x="1160.4" y="-2068" class="st2" width="76" height="6963"/>
		<rect x="1257.9" y="-2068" class="st2" width="76" height="6963"/>
		<rect x="1355.3" y="-2068" class="st2" width="76" height="6963"/>
		<rect x="1452.8" y="-2068" class="st2" width="76" height="6963"/>
		<rect x="1550.2" y="-2068" class="st2" width="76" height="6963"/>
		<rect x="1647.7" y="-2068" class="st2" width="76" height="6963"/>
	</g>
	<g id="Guides" class="st3">
	</g>
</g>
<g>
	<path class="st4" d="M63.3,34.1h-7.5l1-4H22.2c-1.5,0-3-0.4-4.2-1.2c-1.2,0.8-2.5,1.2-4,1.2H7.1c-2.2,0-4.1-0.9-5.5-2.6
		c-1.4-1.7-1.9-3.8-1.5-5.9l0-0.1L2.3,13c1.1-3.2,3.6-5,6.8-5h22.4c1.5,0,2.9,0.4,4.1,1.2c1.1-0.8,2.5-1.2,3.9-1.2l13.2,0l0.2-0.8V7
		c0-0.7,0.2-1.3,0.7-1.8c0.3-0.5,0.7-1,1.2-1.3c0.8-0.7,1.9-1,3-1h3.2c1.3,0,2.5,0.4,3.5,1.3l0.3-1.3h9.6l-0.3,1.5c0,0,0.1,0,0.1,0
		l0.2,0l0.4-1.5h9.7l-1.2,5.1h10.7l-0.9,3.5h5l0,0.1l7.2,0c0.1,0,0.1,0,0.2,0l0.1,0l3.7,0l0.2,0c3.1,0.2,4.6,1.7,5.3,2.9l0,0
		c0.9,1.5,1.1,3.1,0.7,4.9l0,0.1l-2.6,10.9l-9.8-0.1c-1.8-0.1-3.3-0.6-4.5-1.5c-0.1-0.1-0.3-0.2-0.4-0.4c-0.3,0.2-0.6,0.5-0.9,0.7
		c-0.8,0.5-1.6,0.8-2.4,1c-0.6,0.1-1,0.2-1.4,0.2H76.5l0,0l-2.4,0c-1.2-0.1-2.2-0.3-3.1-0.7c-0.6,1-1.4,1.9-2.4,2.7
		C67,33.5,65.2,34.1,63.3,34.1z M57.5,32.8h5.8c1.6,0,3.1-0.6,4.5-1.7c1-0.8,1.8-1.8,2.3-2.8l0.3-0.7L71,28c0.9,0.5,1.9,0.8,3.2,0.8
		l0.1,0l3.9,0l0,0h15c0.3,0,0.6-0.1,1.1-0.2c0.6-0.1,1.3-0.4,2-0.9c0.4-0.2,0.8-0.5,1.1-0.9l0.5-0.5l0.5,0.5
		c0.2,0.3,0.5,0.5,0.7,0.7c1,0.7,2.2,1.1,3.8,1.2l0.1,0l8.5,0.1l2.4-10c0.3-1.4,0.1-2.7-0.6-3.9l0,0c-0.6-0.9-1.8-2.1-4.2-2.2
		l-0.1,0l-3.7,0c-0.1,0-0.1,0-0.2,0l-0.2,0h-8.9l0-0.1h-5l0.9-3.5H81.4l0.2-1.1l1-4h-7l-0.4,1.5l-0.5,0l-0.6,0
		c-0.3,0-0.6,0.1-0.9,0.1l-1,0.2l0.4-1.9h-6.8l-0.4,1.5h-1.4l-0.2-0.2c-0.8-0.8-1.8-1.3-2.9-1.3h-3.2c-0.8,0-1.5,0.3-2.2,0.7
		c-0.4,0.3-0.7,0.6-0.9,1l-0.1,0.1c-0.2,0.2-0.4,0.6-0.4,0.9l0,0.4l-0.4,1.9l-14.3,0c-1.3,0-2.5,0.4-3.5,1.2l-0.4,0.3l-0.4-0.3
		c-1-0.8-2.3-1.2-3.7-1.2H9.1c-2.6,0-4.6,1.5-5.6,4.1l0,0.1L1.5,22c-0.4,1.7,0,3.4,1.2,4.8c1.1,1.3,2.7,2.1,4.5,2.1H14
		c1.4,0,2.6-0.4,3.6-1.2l0.4-0.3l0.4,0.3c1.1,0.8,2.3,1.2,3.8,1.2h36.3L57.5,32.8z"/>
	<g>
		<path class="st4" d="M9.6,17.4l-0.7,3.2h5.4l-0.5,1.9c0,0.1-0.1,0.2-0.1,0.3c-0.1,0.1-0.2,0.1-0.2,0.1H8c-0.1,0-0.2,0-0.3-0.1
			c-0.1-0.1-0.1-0.2-0.1-0.3l1.7-6.8c0-0.1,0.1-0.2,0.2-0.3c0.1-0.1,0.2-0.1,0.2-0.1h6h3.5L20,12H9.1c-1.5,0-2.5,0.8-3,2.3l-2,8.2
			c-0.2,1,0,1.8,0.6,2.5c0.6,0.7,1.4,1.1,2.4,1.1H14c1.5,0,2.5-0.8,3-2.3c0-0.2,0.2-0.7,0.4-1.5c0.2-0.8,0.4-1.7,0.7-2.7
			c0.2-0.9,0.4-1.7,0.5-2.1h-3H9.6z"/>
		<path class="st4" d="M34.5,16.6l0.2-1c0.2-1,0-1.8-0.7-2.5c-0.7-0.7-1.5-1.1-2.5-1.1c-0.2,0-0.6,0-1.3,0c-0.7,0-1.6,0-2.5,0
			s-1.7,0-2.4,0s-1,0-1.1,0c0,0,0,0,0,0c-1.5,0-2.6,0.8-3.2,2.3c0,0.2-0.2,0.7-0.4,1.6c-0.2,0.8-0.4,1.8-0.7,2.8
			c-0.2,1-0.6,2.3-0.9,3.8c-0.2,1,0,1.8,0.7,2.5c0.7,0.7,1.5,1.1,2.6,1.1c0.2,0,0.6,0,1.3,0c0.7,0,1.6,0,2.5,0c0.9,0,1.7,0,2.3,0
			c0.7,0,1,0,1.1,0c1.6,0,2.7-0.8,3.2-2.3c0.1-0.2,0.2-0.8,0.4-1.7c0.2-0.9,0.5-1.9,0.7-2.9C34.1,18.2,34.3,17.3,34.5,16.6z
			 M30.7,17c-0.2,0.7-0.4,1.5-0.6,2.3c-0.2,0.8-0.5,1.9-0.8,3.2c-0.1,0.2-0.2,0.3-0.4,0.3c-0.1,0-0.5,0-1.1,0s-1.2,0-1.9,0
			c-0.7,0-1.3,0-1.8,0c-0.5,0-0.8,0-0.9,0c-0.1,0-0.2,0-0.3-0.1c-0.1-0.1-0.1-0.2-0.1-0.3c0-0.2,0.2-0.6,0.3-1.3
			c0.2-0.7,0.4-1.5,0.6-2.3c0.2-0.8,0.4-1.6,0.5-2.2c0.2-0.6,0.2-1,0.2-1c0.1-0.2,0.2-0.3,0.4-0.3c0.1,0,0.5,0,1.1,0
			c0.6,0,1.2,0,1.9,0c0.7,0,1.3,0,1.8,0c0.5,0,0.8,0,0.9,0c0,0,0,0,0,0c0.2,0,0.3,0,0.4,0.1c0.1,0.1,0.1,0.2,0.1,0.3
			C30.9,15.9,30.8,16.3,30.7,17z"/>
		<path class="st4" d="M44.7,17.4c-0.1,0-0.4,0-1,0c-0.5,0-1.1,0-1.7,0c-0.6,0-1.2,0-1.7,0c-0.5,0-0.7,0-0.8,0c-0.1,0-0.2,0-0.3-0.1
			c-0.1-0.1-0.1-0.2-0.1-0.3c0-0.1,0-0.2,0.1-0.3c0-0.1,0.1-0.3,0.1-0.5c0-0.2,0.1-0.4,0.2-0.6c0-0.1,0.1-0.1,0.1-0.2
			c0.1-0.1,0.2-0.1,0.3-0.1c0.2,0,0.7,0,1.6,0c0.9,0,1.9,0,3.1,0c1.1,0,2.1,0,2.9,0s1.3,0,1.4,0c0-0.1,0.1-0.3,0.2-0.7
			c0.1-0.3,0.2-0.7,0.3-1.1c0.1-0.4,0.2-0.9,0.4-1.5c-0.2,0-0.8,0-1.9,0c-1,0-2.2,0-3.5,0c-1.3,0-2.4,0-3.3,0s-1.5,0-1.6,0
			c0,0,0,0,0,0c-1.4,0-2.4,0.8-3,2.3c0,0.1-0.1,0.3-0.2,0.7c-0.1,0.4-0.2,0.7-0.3,1.1c-0.1,0.4-0.2,0.6-0.2,0.8l0,0.1c0,0,0,0,0,0
			c-0.2,1,0,1.8,0.5,2.6c0.6,0.7,1.3,1.1,2.3,1.1c0.1,0,0.4,0,1,0s1.1,0,1.7,0c0.6,0,1.2,0,1.7,0s0.7,0,0.8,0c0,0,0,0,0,0
			c0.1,0,0.2,0.1,0.3,0.2c0.1,0.1,0.1,0.2,0,0.3c0,0.1,0,0.2-0.1,0.3c0,0.1-0.1,0.3-0.1,0.5c0,0.2-0.1,0.4-0.2,0.6
			c-0.1,0.2-0.2,0.3-0.4,0.3c-0.2,0-0.7,0-1.6,0c-0.9,0-1.9,0-3.1,0s-2.1,0-2.9,0c-0.8,0-1.3,0-1.4,0c0,0.1-0.1,0.3-0.2,0.7
			c-0.1,0.3-0.2,0.7-0.3,1.1c-0.1,0.4-0.2,0.9-0.4,1.5c0.2,0,0.8,0,1.9,0c1,0,2.2,0,3.5,0c1.3,0,2.4,0,3.3,0c0.9,0,1.5,0,1.6,0
			c0,0,0,0,0,0c0.7,0,1.4-0.2,1.9-0.7c0.5-0.4,0.9-1,1.1-1.7c0-0.1,0.1-0.3,0.1-0.5c0.1-0.3,0.1-0.6,0.2-0.9
			c0.1-0.3,0.2-0.6,0.2-0.9c0.1-0.2,0.1-0.4,0.1-0.4c0,0,0,0,0,0c0.2-1,0-1.8-0.5-2.5C46.4,17.8,45.7,17.4,44.7,17.4z"/>
		<polygon class="st4" points="59.7,15.4 56,15.4 52.8,19 54.6,12 51.2,12 47.7,26.1 51.1,26.1 52.2,21.3 54,26.1 57.1,26.1 
			55,20.7 		"/>
		<path class="st4" d="M67,15.4L67,15.4L67,15.4l-1.9,7.8h-1.9c-0.2,0-0.4-0.1-0.5-0.2c-0.1-0.1-0.1-0.3-0.1-0.5l1.7-7.1H61
			l-1.7,7.1c-0.2,1,0,1.8,0.5,2.5c0.6,0.7,1.3,1.1,2.2,1.1h2.5l-0.1,0.3c-0.1,0.2-0.2,0.3-0.4,0.5c-0.2,0.1-0.4,0.2-0.5,0.2h-1.8
			l-0.7,3h2.4c0.9,0,1.9-0.4,2.8-1.1c0.9-0.7,1.5-1.6,1.8-2.5l2.6-11H67z"/>
		<path class="st4" d="M81.2,22.1L83.7,12h-3.4l-0.9,3.5h-2.7c-2.5,0.2-4.4,1.3-5.5,3.4c-0.8,1.8-1,3.5-0.4,4.9
			c0.3,0.7,0.7,1.2,1.2,1.6c0.5,0.4,1.3,0.6,2.3,0.7l5.9,0l0.7-3h-4h-1.6c-1.4,0-1.9-0.8-1.5-2.5c0.2-0.6,0.5-1.1,1-1.5
			c0.5-0.4,1.2-0.7,2-0.7h0h1.7h0l-0.9,3.7H81.2z"/>
		<polygon class="st4" points="84.3,15.4 81.6,26.1 85.2,26.1 87.8,15.4 		"/>
		<polygon class="st4" points="88.6,12 85.2,12 84.5,14.5 88,14.5 		"/>
		<path class="st4" d="M96.3,15.5l-3.4,7.6h-2.1l1.9-7.6h-3.4l-2.6,10.7h6.5c0,0,0.2,0,0.6-0.1c0.3-0.1,0.7-0.3,1.2-0.5
			c0.4-0.3,0.9-0.7,1.2-1.3l3.8-8.7H96.3z"/>
		<path class="st4" d="M111.1,16.4c-0.3-0.6-1-0.9-2.1-0.9h-3.5c-2.5,0.2-4.4,1.3-5.5,3.4c-0.8,1.8-1,3.5-0.4,4.9
			c0.3,0.7,0.7,1.2,1.2,1.6c0.5,0.4,1.3,0.6,2.3,0.7l6.3,0l0.7-3h-4.4h-1.6c-1.4,0-1.9-0.9-1.5-2.5c0.2-0.6,0.5-1.1,1-1.5
			c0.5-0.4,1.2-0.7,2-0.7h0h2.1h0l-0.2,0.9h-1.1h-1.2c-0.6,0-1,0.3-1.3,0.8c-0.3,0.5-0.4,0.9-0.4,1.4c0,0.5,0.2,0.7,0.5,0.8h6.2
			l0.9-3.8l0-0.1C111.5,17.6,111.4,17,111.1,16.4z"/>
		<path class="st4" d="M57.8,13c0.6,0,1.1,0,1.5,0s0.7,0,0.8,0c0.6,0,1-0.3,1.2-1c0.2-0.7,0.3-1.2,0.4-1.7C61.9,9.9,62,9.5,62,9.2
			c0.1-0.4,0.1-0.6,0.2-0.7c0.1-0.4,0-0.8-0.2-1.1c-0.3-0.3-0.6-0.5-1-0.5h0h0c0,0-0.2,0-0.5,0c-0.3,0-0.6,0-1,0c-0.4,0-0.7,0-1.1,0
			c-0.3,0-0.5,0-0.6,0c-0.2,0-0.4,0.1-0.5,0.2C57.1,7.2,57,7.4,57,7.6c0,0,0,0,0,0c0,0-0.1,0.3-0.2,0.8s-0.2,1.1-0.4,1.8
			c-0.2,0.7-0.3,1.3-0.4,1.8c-0.1,0.6-0.2,0.9-0.2,1c0,0,0.3,0,0.7,0C56.8,13,57.3,13,57.8,13z M57.8,10.1c0.1-0.4,0.2-0.8,0.3-1.1
			c0.1-0.3,0.1-0.5,0.1-0.6c0,0,0.1,0,0.4,0c0.2,0,0.5,0,0.8,0c0.3,0,0.6,0,0.8,0c0.2,0,0.4,0,0.4,0c0.1,0,0.1,0,0.1,0.1
			c0,0,0,0.1,0,0.1c-0.1,0.6-0.2,1.1-0.3,1.5c-0.1,0.4-0.2,0.7-0.2,1.1c-0.1,0.3-0.1,0.5-0.1,0.6c0,0-0.2,0-0.4,0
			c-0.2,0-0.5,0-0.8,0c-0.3,0-0.6,0-0.9,0s-0.4,0-0.5,0C57.6,11,57.7,10.5,57.8,10.1z"/>
		<path class="st4" d="M62.4,12.5c0.2,0.3,0.5,0.5,0.9,0.5h1.3l0,0h1.3L67,8.4h-1.4l-0.8,3.3h-1c-0.1,0-0.1,0-0.2-0.1
			c0-0.1-0.1-0.1-0.1-0.2l0.7-3h-1.4l-0.7,3C62.1,11.9,62.1,12.2,62.4,12.5z"/>
		<path class="st4" d="M68.2,11.3l0.4-1.6h0.2h0.7c0.6,0,0.8,0.4,0.6,1.1c-0.1,0.3-0.2,0.5-0.4,0.7c-0.2,0.2-0.5,0.3-0.8,0.3h0h-0.7
			h-1.4L66.5,13H69c1-0.1,1.8-0.6,2.2-1.5c0.3-0.8,0.4-1.5,0.2-2.1c-0.1-0.3-0.3-0.5-0.5-0.7c-0.2-0.2-0.5-0.3-0.9-0.3l-1,0l0.3-1.5
			h-1.4l-1,4.4H68.2z"/>
		<path class="st4" d="M72.4,12.7c0.2,0.2,0.5,0.3,0.9,0.3l2.4,0l1.1-4.6h-2.5c-1,0.1-1.8,0.6-2.2,1.5c-0.3,0.8-0.4,1.5-0.2,2.1
			C72.1,12.3,72.2,12.5,72.4,12.7z M73.2,10.6c0.1-0.3,0.2-0.5,0.4-0.7c0.2-0.2,0.5-0.3,0.9-0.3h0.7L75,10.2h0l-0.3,1.5h-0.9
			C73.2,11.7,73,11.3,73.2,10.6z"/>
		<polygon class="st4" points="79.2,6.9 77.8,6.9 77.5,8 78.9,8 		"/>
		<polygon class="st4" points="77.8,13 78.9,8.4 77.4,8.4 76.4,13 		"/>
	</g>
</g>
</svg>
