<svg id="Layer_1" data-name="Layer 1" xmlns="http://www.w3.org/2000/svg" viewBox="0 0 7.57 14.18"><defs><style>.cls-1{fill:#006d77;}</style></defs><path class="cls-1" d="M2.39,14.25V8.09c0-.06,0-.05-.05-.05H.24s0,0,0,0V5.62s0,0,0,0h2.1s.05,0,.05,0v-2A4,4,0,0,1,2.71,2,3,3,0,0,1,4.77.33a3.45,3.45,0,0,1,.56-.1h.22c.21,0,.41,0,.62,0l.57,0,.67.08.31,0s0,0,0,0V2.62s0,0,0,0H6.55a1.82,1.82,0,0,0-.65.12.89.89,0,0,0-.56.68,1.83,1.83,0,0,0,0,.4V5.57s0,0,0,0H7.6c.05,0,.05,0,0,.06l-.11.66L7.35,7.48,7.26,8a.05.05,0,0,1-.06.05H5.34s0,0,0,.06V14.2c0,.08,0,.08-.07.1l-.27,0-.63.06H3.38l-.6-.06Z" transform="translate(-0.19 -0.22)"/></svg>