<?xml version="1.0" encoding="utf-8"?>
<!-- Generator: Adobe Illustrator 24.1.3, SVG Export Plug-In . SVG Version: 6.00 Build 0)  -->
<svg version="1.1" id="Layer_1" xmlns="http://www.w3.org/2000/svg" xmlns:xlink="http://www.w3.org/1999/xlink" x="0px" y="0px"
	 viewBox="0 0 175.6 65.8" style="enable-background:new 0 0 175.6 65.8;" xml:space="preserve">
<style type="text/css">
	.st0{display:none;}
	.st1{display:inline;opacity:0.4;}
	.st2{fill:#92F7FF;}
	.st3{display:inline;}
	.st4{fill:#202223;}
</style>
<g id="BGD">
</g>
<g id="Hero">
</g>
<g id="Slogan">
</g>
<g id="Services">
</g>
<g id="Clients">
</g>
<g id="Proposal">
</g>
<g id="Diver_Shop">
</g>
<g id="Guides_1_" class="st0">
	<g id="Grid" class="st1">
		<rect x="703.3" y="-2053.6" class="st2" width="76" height="6963"/>
		<rect x="605.8" y="-2053.6" class="st2" width="76" height="6963"/>
		<rect x="800.7" y="-2053.6" class="st2" width="76" height="6963"/>
		<rect x="1093.1" y="-2053.6" class="st2" width="76" height="6963"/>
		<rect x="898.2" y="-2053.6" class="st2" width="76" height="6963"/>
		<rect x="995.6" y="-2053.6" class="st2" width="76" height="6963"/>
		<rect x="1190.5" y="-2053.6" class="st2" width="76" height="6963"/>
		<rect x="1288" y="-2053.6" class="st2" width="76" height="6963"/>
		<rect x="1385.4" y="-2053.6" class="st2" width="76" height="6963"/>
		<rect x="1482.9" y="-2053.6" class="st2" width="76" height="6963"/>
		<rect x="1580.3" y="-2053.6" class="st2" width="76" height="6963"/>
		<rect x="1677.8" y="-2053.6" class="st2" width="76" height="6963"/>
	</g>
	<g id="Guides" class="st3">
	</g>
</g>
<g>
	<path class="st4" d="M81.8,22.1c0,0.3,0,0.5,0,0.6c0,8.2,0,16.3,0,24.5c0,0.7-0.4,1.1-1.1,1.1c-2,0-4.1,0-6.1,0c-0.6,0-1-0.4-1-1.1
		c0-8.2,0-16.3,0-24.5c0-0.2,0-0.4,0-0.6c-4.2,0-8.3,0-12.4,0c-2.5,8.7-5,17.4-7.4,26.2c-2.8,0-5.6,0-8.4,0
		c-1.7-6.6-3.4-13.2-5-19.8c-0.1,0-0.1,0-0.1,0c-1.7,6.6-3.3,13.2-5,19.8c-2.8,0-5.6,0-8.4,0c-0.5-1.8-1.1-3.7-1.6-5.5
		c-0.5-1.7-1-3.5-1.4-5.2c-0.9-3.1-1.8-6.2-2.7-9.2c-0.6-2.1-1.2-4.3-1.8-6.4c-0.6-2.1-1.2-4.2-1.8-6.2c-0.1-0.4,0.4-1.1,0.9-1.1
		c2.6,0,5.2,0,7.7,0c0.1,0,0.3,0.2,0.4,0.3c0.5,2,1,4.1,1.5,6.1c0.8,3.3,1.6,6.5,2.4,9.7c0.4,1.5,0.7,3.1,1.1,4.6
		c0,0.1,0.1,0.1,0.2,0.2c1.9-7,3.7-14,5.5-21c2.1,0,4.3,0,6.5,0c1.8,7,3.6,14,5.5,21.1c0.7-2.9,1.4-5.7,2.1-8.5
		c0.6-2.5,1.2-5,1.8-7.5c0.4-1.5,0.8-3,1.1-4.6c0.1-0.4,0.3-0.5,0.6-0.5c10.3,0,20.6,0,30.9,0c1.6,0,3.2,0,4.9,0
		c0.6,0,0.9,0.3,0.9,0.9c0,1.8,0,3.7,0,5.5c0,0.6-0.4,1-1,1c-2.6,0-5.2,0-7.8,0C82.3,22.1,82.1,22.1,81.8,22.1z"/>
	<path class="st4" d="M6,58.3c10.2,0,20.4,0,30.6,0c0,0.8,0,1.5,0,2.4c-11,0-22,0-33,0c0-19.6,0-39.2,0-58.8c56.1,0,112.3,0,168.5,0
		c0,19.6,0,39.2,0,58.8c-11,0-22,0-33,0c0-0.7,0-1.5,0-2.4c10.2,0,20.4,0,30.6,0c0-18,0-36,0-54c-54.5,0-109.1,0-163.7,0
		C6,22.3,6,40.2,6,58.3z"/>
	<path class="st4" d="M147.7,26c-0.5-0.6-0.9-1.3-1.4-1.9c-1-1-2.2-1.8-3.6-2.2c-2.3-0.6-4.5-0.4-6.7,0.6c-2.4,1.2-3.9,3.1-4.6,5.6
		c-1,3.5-0.6,6.8,1.7,9.8c1.3,1.8,3.2,2.8,5.3,3.2c2.2,0.4,4.3,0.1,6.3-0.8c0.2-0.1,0.4-0.2,0.5-0.3c1.1-0.5,1.5-1.3,1.3-2.5
		c-0.1-0.4,0-0.7,0-1.2c-0.2,0-0.4,0-0.5,0c-2.4,0-4.7,0-7.1,0c-0.6,0-1-0.4-1-1c0-1.8,0-3.5,0-5.3c0-0.6,0.4-1,1-1
		c4.9,0,9.9,0,14.8,0c0.6,0,1,0.4,1,1c0,4,0,8,0,12c0,0.2-0.1,0.4-0.2,0.6c-1.2,1.3-2.6,2.6-4.2,3.5c-2,1.2-4.1,2-6.4,2.5
		c-1.7,0.3-3.4,0.3-5.1,0.3c-2.1-0.1-4.2-0.6-6.1-1.4c-1.4-0.6-2.8-1.4-4-2.4c-1.5-1.2-2.8-2.7-3.8-4.4c-1.2-2-2-4.2-2.2-6.6
		c-0.2-1.5-0.1-3.2-0.1-4.8c0.1-1.6,0.5-3.1,1.1-4.5c0.6-1.5,1.4-2.9,2.4-4.2c1.7-2.2,3.8-3.7,6.4-4.9c1.6-0.7,3.2-1.2,5-1.4
		c1.5-0.1,3-0.3,4.5-0.2c1.7,0.1,3.4,0.4,5,1.1c1.8,0.7,3.5,1.8,4.9,3.2c0.9,0.9,1.8,1.9,2.5,2.9c0.2,0.3,0.1,1.2-0.3,1.4
		c-1.3,0.7-2.6,1.4-4,2.1C149.1,25.3,148.4,25.7,147.7,26z"/>
	<path class="st4" d="M117.6,31.5c0,5.2,0,10.5,0,15.8c0,0.6-0.4,1.1-1.1,1.1c-2,0-4.1,0-6.1,0c-0.6,0-1-0.4-1-1
		c0-10.5,0-21.1,0-31.6c0-0.6,0.4-1,1-1c2.1,0,4.1,0,6.2,0c0.6,0,1,0.4,1,1C117.6,20.9,117.6,26.2,117.6,31.5z"/>
	<path class="st4" d="M106,56.7c-0.2,0.1-0.3,0.2-0.5,0.3c-0.3,0.2-0.5,0.2-0.7-0.1c-1.4-1.5-3.3-0.5-3.8,1.1
		c-0.4,1.4,0.4,3,2.1,3.2c0.6,0.1,1.2-0.2,1.6-0.6c0.2-0.3,0.1-0.7,0.2-1.2c-0.8,0-1.5,0-2.2,0c0-0.3,0-0.5,0-0.8c1.1,0,2.1,0,3.3,0
		c0,0.7,0,1.5,0,2.3c0,0.1-0.1,0.2-0.2,0.3c-0.9,0.8-1.9,1-2.9,0.9c-0.7-0.1-1.3-0.3-1.9-0.8c-0.9-0.9-1.2-1.9-1-3.1
		c0.2-1.1,0.7-2.1,1.8-2.6c1.3-0.6,2.6-0.5,3.8,0.4C105.7,56.2,105.8,56.5,106,56.7z"/>
	<path class="st4" d="M133.3,61.7c-0.9,0.6-1.8,0.6-2.7,0.1c-0.5-0.3-0.6-0.9-0.8-1.4c-0.2-0.8-0.1-1.6,0.3-2.3
		c0.6-1,2.1-1.2,3.2-0.5c0-0.1,0.1-0.2,0.1-0.3c0.3,0,0.6,0,1,0c0,0.2,0,0.3,0,0.5c0,1.3,0,2.7,0,4c0,1.5-0.6,2-2.1,2.1
		c-0.7,0.1-1.4-0.1-2-0.5c-0.4-0.3-0.1-0.5,0.1-0.6c0.1-0.1,0.4-0.2,0.5-0.1c0.3,0.1,0.6,0.3,0.9,0.4
		C132.4,63.3,133.4,62.7,133.3,61.7z M133.3,59.7c0-0.2,0-0.4,0-0.5c0-0.9-1-1.4-1.7-1.1c-0.7,0.3-1.1,1.7-0.5,2.6
		c0.5,0.7,1.1,0.8,1.8,0.4C133.4,60.6,133.3,60.2,133.3,59.7z"/>
	<path class="st4" d="M119.4,57.6c0-0.4,0-0.7,0-1.1c0-0.3,0-0.7,0-1.1c0.3,0,0.6,0,1,0c0,2.2,0,4.4,0,6.6c-0.4-0.2-0.9,0.3-1.1-0.3
		c-0.9,0.5-1.8,0.6-2.7,0c-0.5-0.4-0.7-1-0.8-1.5c-0.1-0.7,0-1.5,0.4-2.2c0.5-0.8,1.7-1.1,2.6-0.7C119.1,57.4,119.2,57.5,119.4,57.6
		z M119.4,59.7c0-0.2,0-0.4,0-0.5c0-0.9-1-1.4-1.7-1.1c-0.6,0.3-1.1,1.4-0.6,2.4c0.3,0.6,0.9,1,1.4,0.9c0.7-0.2,1-0.5,1-1.3
		C119.4,59.9,119.4,59.8,119.4,59.7z"/>
	<path class="st4" d="M57.1,60.1c-1.3,0-2.6,0-3.8,0c0.2,1.3,1.6,1.8,2.6,0.9c0.4-0.4,0.6,0.1,0.8,0.3c0.3,0.3-0.1,0.3-0.2,0.4
		c-1,0.7-2.6,0.8-3.5-0.1c-0.7-0.7-0.9-1.7-0.6-2.7c0.3-1.1,1.3-1.8,2.5-1.7c1.1,0.1,1.9,0.7,2.1,2C57,59.4,57,59.7,57.1,60.1z
		 M56,59.3c-0.3-0.9-0.9-1.4-1.4-1.3c-0.6,0.1-1.3,0.6-1.3,1.3C54.2,59.3,55.1,59.3,56,59.3z"/>
	<path class="st4" d="M70.1,59.1c0.1-0.4-0.1-0.7-0.5-1c-0.4-0.2-1.1-0.1-1.4,0.3c-0.4,0.3-0.7,0.3-0.9-0.2c0-0.1,0-0.3,0.1-0.3
		c0.9-0.8,2.2-0.9,3.2-0.3c0.4,0.2,0.6,0.6,0.6,1.1c0,1.1,0,2.3,0,3.6c-0.4-0.1-0.7-0.2-1.1-0.2c-0.1,0-0.2,0-0.3,0.1
		c-0.5,0.2-1,0.2-1.6,0.1c-0.9-0.2-1.3-1.1-1.2-1.9c0.1-0.7,0.7-1.3,1.5-1.3C69.1,58.9,69.6,59,70.1,59.1z M70.1,60.6
		c0-0.6-0.5-1-1.1-1c-0.5,0-1,0.5-1,1c0,0.5,0.5,1,1,1C69.6,61.5,70.1,61.1,70.1,60.6z"/>
	<path class="st4" d="M92.4,59.1c0.1-0.4-0.1-0.7-0.5-1c-0.4-0.2-1.1-0.1-1.4,0.3c-0.4,0.3-0.7,0.3-0.9-0.2c0-0.1,0-0.3,0.1-0.3
		c0.9-0.8,2.2-0.9,3.2-0.3c0.4,0.2,0.6,0.6,0.6,1.1c0,1.1,0,2.3,0,3.6c-0.4-0.1-0.7-0.2-1.1-0.2c-0.1,0-0.2,0-0.3,0.1
		c-0.5,0.2-1,0.2-1.6,0.1c-0.9-0.1-1.3-1.1-1.2-1.9c0.1-0.7,0.7-1.3,1.5-1.3C91.3,58.9,91.8,59,92.4,59.1z M92.4,60.6
		c0-0.6-0.5-1-1-1c-0.5,0-1,0.5-1,1c0,0.5,0.5,1,1,1C91.9,61.5,92.4,61.1,92.4,60.6z"/>
	<path class="st4" d="M114.7,62.1c-0.4-0.1-0.7-0.2-1.1-0.3c-0.1,0-0.2,0.1-0.3,0.1c-0.8,0.3-1.6,0.3-2.2-0.3
		c-0.5-0.5-0.5-1.2-0.3-1.9c0.2-0.6,0.8-0.9,1.4-0.9c0.5,0,1,0.1,1.5,0.2c0.2-0.5-0.2-1.1-0.9-1.1c-0.4,0.1-0.8,0.2-1.1,0.4
		c-0.3,0.2-0.4,0.2-0.6-0.1c-0.2-0.2-0.3-0.4,0.1-0.7C112,57,113,57,114,57.3c0.5,0.2,0.7,0.6,0.7,1.1
		C114.7,59.7,114.7,60.9,114.7,62.1z M113.6,60.6c0.1-0.6-0.4-1-1-1c-0.5-0.1-1,0.5-1.1,1c0,0.5,0.5,1,1,1
		C113.1,61.5,113.6,61.1,113.6,60.6z"/>
	<path class="st4" d="M80.3,57.1c1.5-0.1,2.5,1.1,2.5,2.5c0,1.4-0.9,2.5-2.5,2.5c-1.4,0-2.4-1.2-2.4-2.6
		C77.9,58.2,78.8,57.1,80.3,57.1z M81.8,59.6c0-0.9-0.6-1.7-1.4-1.7c-0.7,0-1.4,0.8-1.4,1.7c0,0.9,0.6,1.7,1.4,1.7
		C81.1,61.3,81.8,60.5,81.8,59.6z"/>
	<path class="st4" d="M48,62c-0.4,0-0.7,0-1.1,0c0-1,0-1.9,0-2.9c0-0.7-0.2-1-0.6-1.1c-0.4-0.1-1.2,0.2-1.4,0.6
		c-0.1,0.1-0.1,0.3-0.1,0.4c0,1,0,2,0,3c-0.3,0-0.7,0-1,0c0-1.6,0-3.2,0-4.8c0.3,0,0.6,0,1,0c0,0.1,0.1,0.2,0.1,0.3
		c0.6-0.4,1.2-0.5,1.8-0.5c0.7,0.1,1.3,0.5,1.3,1.2C48,59.6,48,60.8,48,62z"/>
	<path class="st4" d="M124.4,57.3c1-0.1,1-0.1,1,0.2c0.6-0.1,1.2-0.3,1.8-0.3c0.7-0.1,1.3,0.6,1.3,1.3c0,1.2,0,2.4,0,3.6
		c-0.3,0-0.7,0-1.1,0c0-1,0-2,0-3c0-0.9-0.7-1.3-1.5-0.9c-0.5,0.2-0.7,0.5-0.7,1.1c0.1,0.9,0,1.8,0,2.8c-0.3,0-0.6,0-1,0
		C124.4,60.5,124.4,58.9,124.4,57.3z"/>
	<path class="st4" d="M88.1,62c-0.4,0-0.7,0-1.1,0c0-1,0-2.1,0-3.1c0-0.4-0.2-0.7-0.6-0.9c-0.6-0.3-1.5,0.4-1.5,1.1c0,1,0,1.9,0,2.9
		c-0.3,0-0.7,0-1,0c0-1.5,0-3.2,0-4.8c0.3,0,0.6,0,1,0c0,0.1,0.1,0.2,0.1,0.3c0.5-0.4,1.2-0.5,1.8-0.5c0.7,0.1,1.3,0.5,1.3,1.3
		C88.2,59.6,88.1,60.8,88.1,62z"/>
	<path class="st4" d="M62.7,62c-0.4,0-0.7,0-1,0c0-1.6,0-3.2,0-4.8c0.4,0.2,0.8-0.3,1,0.2c0.6-0.1,1.2-0.3,1.8-0.3
		c0.7-0.1,1.3,0.6,1.3,1.3c0,1.2,0,2.4,0,3.6c-0.4,0-0.7,0-1.1,0c0-1,0-2,0-3c0-0.9-0.7-1.3-1.5-0.9c-0.5,0.2-0.7,0.5-0.7,1.1
		C62.7,60.2,62.7,61.1,62.7,62z"/>
	<path class="st4" d="M50.6,57.2c0.4,0,0.6,0,1,0c0,0.3,0,0.5,0,0.9c-0.3,0-0.6,0-0.9,0c0,1,0,1.9,0,2.8c0,0.2,0.1,0.5,0.5,0.3
		c0.1-0.1,0.4-0.1,0.4,0.1c0.1,0.2,0.4,0.6,0,0.7c-0.5,0.1-1,0.1-1.5,0s-0.5-0.6-0.5-1c0-0.9,0-1.9,0-2.8c-0.3,0-0.5-0.1-0.7-0.1
		c0-0.3,0-0.5,0-0.8c0.2,0,0.5,0,0.7-0.1c0-0.4,0-0.8,0-1.2c0.4,0,0.7,0,1.1,0C50.6,56.4,50.6,56.8,50.6,57.2z"/>
	<path class="st4" d="M72.7,58.1c-0.3,0-0.5,0-0.7-0.1c0-0.3,0-0.5,0-0.8c0.2,0,0.5-0.1,0.7-0.1c0-0.4,0-0.8,0-1.2
		c0.4,0,0.7,0,1.1,0c0,0.4,0,0.7,0,1.2c0.3,0,0.6,0,1,0c0,0.3,0,0.5,0,0.9c-0.3,0-0.6,0-1,0c0,1,0,1.9,0,2.8c0,0.2,0.1,0.6,0.5,0.4
		c0.1-0.1,0.4,0,0.4,0.1c0.1,0.2,0.4,0.6-0.1,0.7c-0.5,0.2-1.1,0.3-1.5-0.1c-0.4-0.3-0.4-0.6-0.4-1.1C72.7,60,72.7,59.1,72.7,58.1z"
		/>
	<path class="st4" d="M41.3,55.4c0.3,0,0.6,0,1,0c0,2.2,0,4.4,0,6.6c-0.3,0-0.6,0-1,0C41.3,59.8,41.3,57.7,41.3,55.4z"/>
	<path class="st4" d="M95.9,62c-0.3,0-0.6,0-1,0c0-2.2,0-4.4,0-6.6c0.3,0,0.6,0,1,0C95.9,57.6,95.9,59.8,95.9,62z"/>
	<path class="st4" d="M59.2,62c-0.4,0-0.7,0-1,0c0-1.6,0-3.2,0-4.8c0.3,0,0.6,0,1,0c0,0.1,0.1,0.2,0.1,0.3c0.5-0.2,1-0.3,1.5-0.5
		c0,0.4,0,0.6,0,0.9c-0.3,0.1-0.5,0.1-0.7,0.2c-0.6,0.2-0.9,0.6-0.9,1.3C59.2,60.3,59.2,61.1,59.2,62z"/>
	<path class="st4" d="M108.3,57.5c0.5-0.2,1-0.3,1.5-0.5c0,0.4,0,0.6,0,0.9c-0.2,0.1-0.4,0-0.5,0.1c-0.9,0.4-1,0.5-1,1.4
		c0.1,0.9,0,1.7,0,2.6c-0.4,0-0.7,0-1,0c0-1.6,0-3.2,0-4.8c0.3,0,0.6,0,1,0C108.3,57.3,108.3,57.4,108.3,57.5z"/>
	<path class="st4" d="M76.7,62c-0.3,0-0.6,0-1,0c0-1.6,0-3.2,0-4.8c0.3,0,0.6,0,1,0C76.7,58.8,76.7,60.4,76.7,62z"/>
	<path class="st4" d="M122.8,62c-0.3,0-0.6,0-1,0c0-1.6,0-3.2,0-4.8c0.3,0,0.6,0,1,0C122.8,58.8,122.8,60.4,122.8,62z"/>
	<path class="st4" d="M76.1,56.7c-0.3,0-0.5-0.2-0.5-0.6c0-0.4,0.2-0.6,0.6-0.6c0.4,0,0.6,0.2,0.6,0.6
		C76.8,56.6,76.5,56.7,76.1,56.7z"/>
	<path class="st4" d="M122.4,56.7c-0.4,0-0.6-0.2-0.6-0.6c0-0.4,0.2-0.6,0.6-0.6c0.4,0,0.6,0.2,0.6,0.6
		C123,56.6,122.7,56.7,122.4,56.7z"/>
</g>
</svg>
