<?xml version="1.0" encoding="utf-8"?>
<!-- Generator: Adobe Illustrator 24.1.3, SVG Export Plug-In . SVG Version: 6.00 Build 0)  -->
<svg version="1.1" id="Layer_1" xmlns="http://www.w3.org/2000/svg" xmlns:xlink="http://www.w3.org/1999/xlink" x="0px" y="0px"
	 viewBox="0 0 114 65.8" style="enable-background:new 0 0 114 65.8;" xml:space="preserve">
<style type="text/css">
	.st0{display:none;}
	.st1{display:inline;opacity:0.4;}
	.st2{fill:#92F7FF;}
	.st3{display:inline;}
	.st4{fill:#15495E;}
	.st5{fill:#E2B668;}
</style>
<g id="BGD">
</g>
<g id="Hero">
</g>
<g id="Slogan">
</g>
<g id="Services">
</g>
<g id="Clients">
</g>
<g id="Proposal">
</g>
<g id="Diver_Shop">
</g>
<g id="Guides_1_" class="st0">
	<g id="Grid" class="st1">
		<rect x="672.5" y="-2053.6" class="st2" width="76" height="6963"/>
		<rect x="575" y="-2053.6" class="st2" width="76" height="6963"/>
		<rect x="769.9" y="-2053.6" class="st2" width="76" height="6963"/>
		<rect x="1062.3" y="-2053.6" class="st2" width="76" height="6963"/>
		<rect x="867.4" y="-2053.6" class="st2" width="76" height="6963"/>
		<rect x="964.8" y="-2053.6" class="st2" width="76" height="6963"/>
		<rect x="1159.7" y="-2053.6" class="st2" width="76" height="6963"/>
		<rect x="1257.2" y="-2053.6" class="st2" width="76" height="6963"/>
		<rect x="1354.6" y="-2053.6" class="st2" width="76" height="6963"/>
		<rect x="1452.1" y="-2053.6" class="st2" width="76" height="6963"/>
		<rect x="1549.5" y="-2053.6" class="st2" width="76" height="6963"/>
		<rect x="1647" y="-2053.6" class="st2" width="76" height="6963"/>
	</g>
	<g id="Guides" class="st3">
	</g>
</g>
<g>
	<g>
		<path class="st4" d="M20.6,52.1c-0.1,0.6-0.3,1.2-0.6,1.8c-0.3,0.6-0.7,1.1-1.2,1.5c-0.5,0.4-1,0.7-1.6,1
			c-0.6,0.2-1.2,0.4-1.8,0.4c-0.8,0-1.5-0.1-2.1-0.3c-0.6-0.2-1.2-0.5-1.7-0.9c-0.5-0.4-0.9-0.9-1.2-1.4c-0.3-0.6-0.5-1.2-0.6-2
			c0-0.4-0.1-0.9,0-1.5c0-0.6,0.2-1.2,0.4-1.9c0.2-0.7,0.5-1.4,0.9-2.2c0.4-0.8,0.9-1.7,1.6-2.6l-8.4,0c-0.4,0.8-0.7,1.5-1,2.2
			c-0.3,0.7-0.5,1.3-0.6,1.9c-0.2,0.6-0.3,1.2-0.3,1.8c-0.1,0.6-0.1,1.2-0.1,1.8c0,2,0.3,3.8,0.9,5.4c0.6,1.6,1.5,3,2.6,4.1
			c1.1,1.1,2.5,2,4.1,2.6c1.6,0.6,3.4,0.9,5.4,0.9c1.9,0,3.6-0.3,5.1-1c1.5-0.7,2.9-1.6,4-2.7c1.1-1.1,2-2.5,2.6-4
			c0.6-1.5,1-3.1,1.1-4.8l0.2-16.4h-7.6L20.6,52.1z"/>
		<path class="st4" d="M11.1,37.4c0.3,0.3,0.7,0.6,1.1,0.8c0.4,0.2,0.9,0.3,1.4,0.3c0.5,0,1-0.1,1.4-0.3c0.4-0.2,0.8-0.5,1.2-0.8
			c0.3-0.3,0.6-0.7,0.8-1.2c0.2-0.4,0.3-0.9,0.3-1.4c0-0.5-0.1-1-0.3-1.4c-0.2-0.4-0.5-0.8-0.8-1.2c-0.3-0.3-0.7-0.6-1.2-0.8
			c-0.4-0.2-0.9-0.3-1.4-0.3c-0.5,0-1,0.1-1.4,0.3c-0.4,0.2-0.8,0.5-1.1,0.8c-0.3,0.3-0.6,0.7-0.8,1.2c-0.2,0.4-0.3,0.9-0.3,1.4
			c0,0.5,0.1,1,0.3,1.4C10.5,36.7,10.7,37.1,11.1,37.4z"/>
		<polygon class="st4" points="38.4,22.9 30.5,23 30.5,52.2 38.5,52.2 		"/>
		<g>
			<path class="st5" d="M47.3,29.1c0.3,0.3,0.7,0.6,1.1,0.8c0.4,0.2,0.9,0.3,1.4,0.3c0.5,0,1-0.1,1.4-0.3c0.4-0.2,0.8-0.5,1.2-0.8
				c0.3-0.3,0.6-0.7,0.8-1.2c0.2-0.4,0.3-0.9,0.3-1.4c0-0.5-0.1-1-0.3-1.4c-0.2-0.4-0.5-0.8-0.8-1.2c-0.3-0.3-0.7-0.6-1.2-0.8
				c-0.4-0.2-0.9-0.3-1.4-0.3c-0.5,0-1,0.1-1.4,0.3c-0.4,0.2-0.8,0.5-1.1,0.8c-0.3,0.3-0.6,0.7-0.8,1.2c-0.2,0.4-0.3,0.9-0.3,1.4
				c0,0.5,0.1,1,0.3,1.4C46.7,28.4,46.9,28.8,47.3,29.1z"/>
		</g>
		<path class="st4" d="M60.6,58.2c-0.3-0.3-0.7-0.6-1.2-0.8c-0.4-0.2-0.9-0.3-1.4-0.3c-0.5,0-1,0.1-1.4,0.3
			c-0.4,0.2-0.8,0.5-1.1,0.8c-0.3,0.3-0.6,0.7-0.8,1.2c-0.2,0.4-0.3,0.9-0.3,1.4c0,0.5,0.1,1,0.3,1.4c0.2,0.4,0.4,0.8,0.8,1.2
			c0.3,0.3,0.7,0.6,1.1,0.8c0.4,0.2,0.9,0.3,1.4,0.3c0.5,0,1-0.1,1.4-0.3c0.4-0.2,0.8-0.5,1.2-0.8c0.3-0.3,0.6-0.7,0.8-1.2
			c0.2-0.4,0.3-0.9,0.3-1.4c0-0.5-0.1-1-0.3-1.4C61.2,58.9,61,58.5,60.6,58.2z"/>
		<path class="st4" d="M68.8,58.2c-0.3-0.3-0.7-0.6-1.2-0.8c-0.4-0.2-0.9-0.3-1.4-0.3c-0.5,0-1,0.1-1.4,0.3
			c-0.4,0.2-0.8,0.5-1.1,0.8c-0.3,0.3-0.6,0.7-0.8,1.2c-0.2,0.4-0.3,0.9-0.3,1.4c0,0.5,0.1,1,0.3,1.4c0.2,0.4,0.4,0.8,0.8,1.2
			c0.3,0.3,0.7,0.6,1.1,0.8c0.4,0.2,0.9,0.3,1.4,0.3c0.5,0,1-0.1,1.4-0.3c0.4-0.2,0.8-0.5,1.2-0.8c0.3-0.3,0.6-0.7,0.8-1.2
			c0.2-0.4,0.3-0.9,0.3-1.4c0-0.5-0.1-1-0.3-1.4C69.4,58.9,69.1,58.5,68.8,58.2z"/>
		<path class="st4" d="M93.6,44.2l-1.6,0l0,0h-1.9V41c0-1.3-0.2-2.5-0.7-3.6c-0.5-1.1-1.1-2.1-2-3c-0.8-0.8-1.8-1.5-2.9-2
			c-1.1-0.5-2.3-0.8-3.6-0.8c-1.3,0-2.5,0.2-3.7,0.7c-1.1,0.5-2.1,1.2-3,2c-0.9,0.9-1.5,1.9-2,3c-0.5,1.1-0.8,2.4-0.8,3.7v3.1h-1.4
			l0,0h-3.3l0-8.6h-8l0,8.6h-2.2h-1.2H54l0-8.6h-7.8v16.9c0,0.7-0.1,1.4-0.4,1.9c-0.2,0.5-0.5,0.9-0.9,1.2c-0.3,0.3-0.7,0.6-1.1,0.8
			c-0.4,0.2-0.8,0.3-1.2,0.4c-0.4,0.1-0.7,0.1-1,0.1c-0.3,0-0.5,0-0.7,0h-2.5l0,7.6H41c1.9,0,3.6-0.3,5.2-0.8c1.6-0.5,3-1.3,4.1-2.3
			c1.2-1,2.1-2.3,2.7-3.8c0.6-1.5,1-3.3,1-5.4v-0.1h1.3h1.2h7.9c0.4,0,0.7,0,1-0.1c0.3-0.1,0.5-0.2,0.7-0.4c0.2-0.2,0.3-0.4,0.4-0.6
			c0.1-0.2,0.2-0.4,0.2-0.7c0.1,0.2,0.3,0.4,0.5,0.6c0.2,0.2,0.4,0.4,0.7,0.6c0.2,0.2,0.5,0.3,0.9,0.4c0.1,0,0.2,0.1,0.3,0.1v0.1
			h0.8h0.3h3.3c0.3,0,0.6,0,1-0.1c0.4-0.1,0.7-0.2,1.1-0.5c0.4-0.2,0.8-0.6,1.1-1c0.4-0.4,0.7-1,1-1.8v3.4h13.6h0.9h7
			c0.6,0,1.1-0.1,1.4-0.4c0.3-0.3,0.6-0.6,0.7-0.9c0.1-0.4,0.2-0.7,0.2-1.1c0-0.4,0-0.8,0-1.1l0-25.8h-7.9L93.6,44.2z M78.5,41
			c0-0.3,0.1-0.6,0.2-0.8c0.1-0.2,0.3-0.5,0.5-0.7c0.2-0.2,0.4-0.3,0.7-0.4c0.3-0.1,0.6-0.2,0.9-0.2c0.6,0,1.2,0.2,1.5,0.6
			c0.4,0.4,0.6,0.9,0.7,1.5v3.1h-4.6L78.5,41z"/>
		<polygon class="st4" points="111.6,22.9 103.7,23 103.7,52.2 111.6,52.2 		"/>
	</g>
	<g>
		<path class="st4" d="M31.8,6.1c0-2,0-3.2,0-3.5c0-0.3-0.1-0.5-0.2-0.6c-0.1-0.1-0.3-0.2-0.5-0.3c-0.1,0-0.3-0.1-0.6-0.1
			c-0.1,0-0.1,0-0.1-0.1c0-0.1,0.1-0.1,0.3-0.1c0.2,0,0.5,0,0.8,0c0.3,0,0.5,0,0.7,0c0.2,0,0.3,0,0.3,0c1.7,0,3,0,3.7-0.1
			c0.1,0,0.2,0,0.4,0c0.2,0,0.3,0,0.3,0c0,0,0.1,0,0.1-0.1c0,0,0.1-0.1,0.1-0.1c0,0,0.1,0,0.1,0.1c0,0,0,0.1,0,0.2
			c0,0.1,0,0.2-0.1,0.3c0,0.1,0,0.2-0.1,0.4c0,0,0,0.2,0,0.5C37,3,37,3.1,37,3.2c0,0.1,0,0.2-0.1,0.2c-0.1,0-0.1-0.1-0.1-0.2
			c0-0.2,0-0.4-0.1-0.6c-0.1-0.1-0.2-0.3-0.3-0.4c-0.2-0.1-0.4-0.2-0.8-0.2c-0.4,0-1.1,0-2.2,0c-0.1,0-0.1,0.1-0.1,0.2v4.5
			c0,0.1,0,0.2,0.1,0.2c1.5,0,2.3,0,2.6,0c0.4,0,0.7-0.1,0.8-0.2c0.1-0.1,0.2-0.2,0.2-0.2c0.1,0,0.1,0,0.1,0.1c0,0,0,0.1,0,0.1
			c0,0.1,0,0.2-0.1,0.3c0,0.1,0,0.3-0.1,0.5c0,0.6-0.1,1-0.1,1c0,0.2,0,0.3-0.1,0.3c-0.1,0-0.1-0.1-0.1-0.2c0-0.2,0-0.4-0.1-0.5
			c-0.1-0.3-0.4-0.5-0.8-0.6c-0.4,0-1.2-0.1-2.3-0.1c-0.1,0-0.1,0-0.1,0.1v1.4v2.8c0,0.6,0.1,0.9,0.4,1.1c0.2,0.2,0.7,0.2,1.5,0.2
			c0.8,0,1.3-0.1,1.6-0.2c0.4-0.2,0.6-0.6,0.7-1.2c0-0.2,0.1-0.3,0.1-0.3c0.1,0,0.1,0.1,0.1,0.3c0,0.1,0,0.3-0.1,0.7
			c-0.1,0.4-0.1,0.7-0.1,0.8c0,0.1-0.1,0.2-0.1,0.3c-0.1,0.1-0.1,0.1-0.2,0.1c-0.1,0-0.3,0-0.5,0c-0.7,0-1.4,0-2,0
			c-0.6,0-1.1,0-1.4,0c-0.3,0-0.6,0-0.6,0h-0.6c-0.4,0-0.7,0-0.9,0c-0.2,0-0.3,0-0.3-0.1c0-0.1,0-0.1,0.1-0.1c0.1,0,0.3,0,0.5-0.1
			c0.2,0,0.4-0.3,0.5-0.9c0-0.5,0.1-1.6,0.1-3.5V6.1z"/>
		<path class="st4" d="M41.7,9c0,1.3,0,2.2,0.1,2.7c0,0.5,0.1,0.9,0.3,1c0.3,0.3,0.9,0.4,1.9,0.4c0.4,0,0.6,0,0.8,0
			c0.2,0,0.4-0.1,0.6-0.1c0.2-0.1,0.4-0.2,0.5-0.3c0.2-0.3,0.4-0.6,0.4-1c0-0.1,0.1-0.2,0.1-0.2c0.1,0,0.1,0.1,0.1,0.2
			c0,0.5-0.1,1-0.2,1.6c-0.1,0.2-0.1,0.3-0.2,0.4c-0.1,0.1-0.4,0.1-0.8,0.1c-0.9,0-1.8,0-2.7-0.1c-0.9,0-1.5-0.1-1.6-0.1h-0.2
			c-0.2,0-0.3,0-0.4,0c-0.4,0-0.7,0-0.9,0c-0.2,0-0.3,0-0.3-0.1c0-0.1,0-0.1,0.1-0.1c0.2,0,0.3,0,0.5-0.1c0.3-0.1,0.4-0.4,0.5-0.9
			c0.1-0.5,0.1-1.6,0.1-3.5V6.1c0-2,0-3.2,0-3.5c0-0.3-0.1-0.5-0.2-0.6c-0.1-0.1-0.3-0.2-0.5-0.3c-0.1,0-0.3-0.1-0.5-0.1
			c-0.1,0-0.1,0-0.1-0.1c0-0.1,0.1-0.1,0.3-0.1c0.2,0,0.5,0,0.8,0c0.3,0,0.5,0,0.7,0c0.2,0,0.3,0,0.3,0s0.1,0,0.4,0
			c0.2,0,0.5,0,0.8,0c0.3,0,0.5,0,0.6,0c0.2,0,0.3,0,0.3,0.1c0,0.1,0,0.1-0.1,0.1c-0.2,0-0.3,0-0.5,0.1c-0.4,0.1-0.6,0.4-0.6,0.9
			c0,0.3,0,1.5,0,3.5V9z"/>
		<path class="st4" d="M69.2,12.3l-0.8-7.9h-0.1l-4,8.5c-0.2,0.4-0.3,0.6-0.4,0.7c-0.1,0.1-0.1,0.1-0.2,0.1c-0.1,0-0.3-0.2-0.5-0.7
			l-1.9-3.8C61.3,9,61,8.3,60.3,6.9c-0.6-1.4-1-2.1-1.1-2.3h-0.1l-0.6,7.5c0,0.2,0,0.4,0,0.8c0,0.3,0.1,0.4,0.4,0.5
			c0.2,0,0.4,0.1,0.6,0.1c0.1,0,0.1,0,0.1,0.1c0,0.1-0.1,0.1-0.3,0.1c-0.2,0-0.6,0-0.9,0l-0.6,0c0,0-0.2,0-0.6,0c-0.4,0-0.6,0-0.8,0
			c-0.2,0-0.3,0-0.3-0.1c0-0.1,0.1-0.1,0.2-0.1c0.2,0,0.3,0,0.5-0.1c0.2,0,0.3-0.1,0.4-0.3c0.1-0.2,0.2-0.3,0.2-0.4
			c0-0.1,0-0.3,0.1-0.6l1.2-10.6c0-0.2,0.1-0.3,0.2-0.3c0.1,0,0.2,0.1,0.3,0.3l5,10.2l4.8-10.2C69,1.3,69,1.2,69.1,1.2
			c0.1,0,0.2,0.2,0.2,0.5L70.4,12c0.1,0.7,0.4,1.3,0.7,1.8c0.4,0.5,0.8,1,1.2,1.3c0.5,0.3,1,0.6,1.5,0.8c0.5,0.2,1.1,0.4,1.5,0.4
			c0.5,0.1,0.9,0.1,1.3,0.1c0.3,0,0.7,0,1.1-0.1c0.4,0,0.7-0.1,1-0.1c0.3-0.1,0.6-0.1,0.8-0.2c0.2,0,0.4-0.1,0.6-0.1
			c0.1,0,0.2-0.1,0.2-0.1c0,0,0.1,0,0.1,0.1c0,0.1,0,0.1-0.1,0.2c-0.1,0-0.3,0.1-0.6,0.3c-0.3,0.2-0.6,0.3-0.8,0.3
			c-0.2,0.1-0.5,0.2-0.8,0.3c-0.3,0.1-0.7,0.2-1.1,0.2c-0.4,0-0.8,0.1-1.3,0c-0.5,0-0.9,0-1.2-0.1c-0.3,0-0.7-0.2-1.3-0.4
			c-0.6-0.2-1.1-0.5-1.6-0.9C70.1,15,69.3,13.8,69.2,12.3z"/>
		<path class="st4" d="M76.5,9c0,1.9,0,3.1,0.1,3.5c0.1,0.6,0.3,0.8,0.6,0.9c0.3,0,0.6,0.1,0.7,0.1c0.1,0,0.1,0,0.1,0.1
			c0,0.1-0.1,0.1-0.3,0.1c-0.3,0-0.6,0-0.9,0c-0.3,0-0.6,0-0.8,0l-0.3,0c0,0-0.1,0-0.3,0c-0.2,0-0.4,0-0.7,0c-0.3,0-0.5,0-0.6,0
			c-0.2,0-0.3,0-0.3-0.1c0-0.1,0-0.1,0.1-0.1c0.1,0,0.3,0,0.5-0.1c0.2,0,0.4-0.3,0.5-0.9c0.1-0.5,0.1-1.6,0.1-3.5V6.2
			c0-2,0-3.2,0-3.5c0-0.5-0.2-0.8-0.6-0.9c-0.1,0-0.3-0.1-0.5-0.1c-0.1,0-0.1,0-0.1-0.1c0-0.1,0.1-0.1,0.3-0.1h1.6h1.6
			c0.2,0,0.3,0,0.3,0.1c0,0.1,0,0.1-0.1,0.1c-0.1,0-0.3,0-0.4,0c-0.2,0-0.4,0.1-0.5,0.3c-0.1,0.1-0.1,0.4-0.2,0.7c0,0.3,0,1.5,0,3.5
			V9z"/>
		<path class="st4" d="M85.6,13.1c0.8,0,1.4-0.1,1.7-0.2c0.4-0.1,0.6-0.3,0.8-0.6c0.1-0.2,0.2-0.3,0.2-0.5c0.1-0.2,0.1-0.4,0.1-0.5
			c0-0.1,0.1-0.2,0.1-0.2c0.1,0,0.1,0.1,0.1,0.4c0,0.3-0.1,0.9-0.3,1.9c-0.1,0.2-0.1,0.3-0.2,0.4c0,0-0.2,0.1-0.3,0.1
			c-0.9,0-2.3,0-4.1,0c-1.8,0-3.2,0-4.2,0c-0.2,0-0.3,0-0.3-0.1s0.1-0.2,0.2-0.5c3.4-5.1,5.8-8.8,7.2-11h-3.5
			c-1.1,0-1.9,0.1-2.3,0.3c-0.3,0.2-0.5,0.4-0.7,0.6S80,3.6,80,3.8C79.9,4,79.9,4,79.8,4c-0.1,0-0.1-0.1-0.1-0.2
			c0-0.3,0.1-1,0.3-2.2c0-0.2,0.1-0.3,0.2-0.3c0,0,0.1,0,0.2,0.1c0.1,0,0.3,0.1,0.5,0.1h2.8h4.5c0.2,0,0.3,0.1,0.3,0.2
			c0,0.1,0,0.1-0.1,0.2c-0.6,0.9-1.8,2.8-3.6,5.4c-1.8,2.7-3,4.6-3.7,5.8H85.6z"/>
		<path class="st4" d="M91.5,6.1c0-2,0-3.2,0-3.5c0-0.3-0.1-0.5-0.2-0.6c-0.1-0.1-0.3-0.2-0.5-0.3c-0.1,0-0.3-0.1-0.6-0.1
			c-0.1,0-0.1,0-0.1-0.1c0-0.1,0.1-0.1,0.3-0.1c0.2,0,0.5,0,0.8,0c0.3,0,0.5,0,0.7,0c0.2,0,0.3,0,0.3,0c1.7,0,3,0,3.7-0.1
			c0.1,0,0.2,0,0.4,0c0.2,0,0.3,0,0.3,0c0,0,0.1,0,0.1-0.1c0,0,0.1-0.1,0.1-0.1c0,0,0.1,0,0.1,0.1c0,0,0,0.1,0,0.2
			c0,0.1,0,0.2-0.1,0.3c0,0.1,0,0.2-0.1,0.4c0,0,0,0.2,0,0.5c0,0.3,0,0.5-0.1,0.6c0,0.1,0,0.2-0.1,0.2c-0.1,0-0.1-0.1-0.1-0.2
			c0-0.2,0-0.4-0.1-0.6c-0.1-0.1-0.2-0.3-0.3-0.4c-0.2-0.1-0.4-0.2-0.8-0.2c-0.4,0-1.1,0-2.2,0c-0.1,0-0.1,0.1-0.1,0.2v4.5
			c0,0.1,0,0.2,0.1,0.2c1.5,0,2.3,0,2.6,0c0.4,0,0.7-0.1,0.8-0.2c0.1-0.1,0.2-0.2,0.2-0.2c0.1,0,0.1,0,0.1,0.1c0,0,0,0.1,0,0.1
			c0,0.1,0,0.2-0.1,0.3c0,0.1,0,0.3-0.1,0.5c0,0.6-0.1,1-0.1,1c0,0.2,0,0.3-0.1,0.3c-0.1,0-0.1-0.1-0.1-0.2c0-0.2,0-0.4-0.1-0.5
			c-0.1-0.3-0.4-0.5-0.8-0.6c-0.4,0-1.2-0.1-2.3-0.1c-0.1,0-0.1,0-0.1,0.1v1.4v2.8c0,0.6,0.1,0.9,0.4,1.1c0.2,0.2,0.7,0.2,1.5,0.2
			c0.8,0,1.3-0.1,1.6-0.2c0.4-0.2,0.6-0.6,0.7-1.2c0-0.2,0.1-0.3,0.1-0.3c0.1,0,0.1,0.1,0.1,0.3c0,0.1,0,0.3-0.1,0.7
			c-0.1,0.4-0.1,0.7-0.1,0.8c0,0.1-0.1,0.2-0.1,0.3c-0.1,0.1-0.1,0.1-0.2,0.1c-0.1,0-0.3,0-0.5,0c-0.7,0-1.4,0-2,0
			c-0.6,0-1.1,0-1.4,0c-0.3,0-0.6,0-0.6,0h-0.6c-0.4,0-0.7,0-0.9,0c-0.2,0-0.3,0-0.3-0.1c0-0.1,0-0.1,0.1-0.1c0.1,0,0.3,0,0.5-0.1
			c0.2,0,0.4-0.3,0.5-0.9c0-0.5,0.1-1.6,0.1-3.5V6.1z"/>
		<path class="st4" d="M100.6,11.5c0,0.7,0.1,1.1,0.2,1.4c0.1,0.3,0.3,0.4,0.5,0.5c0.2,0.1,0.5,0.1,0.8,0.1c0.1,0,0.1,0,0.1,0.1
			s-0.1,0.1-0.3,0.1h-1.7h-1.6c-0.2,0-0.3,0-0.3-0.1s0-0.1,0.1-0.1c0.3,0,0.5,0,0.7-0.1c0.2,0,0.3-0.2,0.4-0.5
			c0.1-0.3,0.1-0.8,0.1-1.6l0-9.3c0-0.5,0.1-0.8,0.2-0.8c0.1,0,0.3,0.2,0.6,0.5c0.2,0.2,1.9,2.1,5.2,5.6l3.9,4.3l-0.2-8.3
			c0-0.5-0.1-0.9-0.1-1.1c-0.1-0.2-0.2-0.4-0.5-0.4c-0.3,0-0.5-0.1-0.8-0.1c-0.1,0-0.1,0-0.1-0.1c0,0,0.1-0.1,0.3-0.1h1.7h1.4
			c0.2,0,0.3,0,0.3,0.1c0,0.1-0.1,0.1-0.2,0.1c-0.1,0-0.3,0-0.4,0.1c-0.3,0-0.4,0.2-0.5,0.4c-0.1,0.2-0.1,0.6-0.1,1.1l0,9.5
			c0,0.3,0,0.5,0,0.6c0,0.2,0,0.3,0,0.3c0,0.1,0,0.1,0,0.1c0,0,0,0-0.1,0c-0.1,0-0.5-0.3-1.2-1c-0.1-0.1-0.3-0.3-0.8-0.8
			c-0.4-0.4-1-1-1.7-1.7c-0.7-0.7-1.3-1.4-1.8-1.9l-4.2-4.7L100.6,11.5z"/>
	</g>
</g>
</svg>
