<?xml version="1.0" encoding="utf-8"?>
<!-- Generator: Adobe Illustrator 24.1.3, SVG Export Plug-In . SVG Version: 6.00 Build 0)  -->
<svg version="1.1" id="Layer_1" xmlns="http://www.w3.org/2000/svg" xmlns:xlink="http://www.w3.org/1999/xlink" x="0px" y="0px"
	 viewBox="0 0 56.8 60" style="enable-background:new 0 0 56.8 60;" xml:space="preserve">
<style type="text/css">
	.st0{display:none;}
	.st1{display:inline;opacity:0.4;}
	.st2{fill:#92F7FF;}
	.st3{display:inline;}
	.st4{fill:#003136;}
</style>
<g id="BGD">
</g>
<g id="Hero">
</g>
<g id="Slogan">
</g>
<g id="Services">
</g>
<g id="Clients">
</g>
<g id="Proposal">
</g>
<g id="Diver_Shop">
</g>
<g id="Guides_1_" class="st0">
	<g id="Grid" class="st1">
		<rect x="643.9" y="-2056.5" class="st2" width="76" height="6963"/>
		<rect x="546.4" y="-2056.5" class="st2" width="76" height="6963"/>
		<rect x="741.3" y="-2056.5" class="st2" width="76" height="6963"/>
		<rect x="1033.7" y="-2056.5" class="st2" width="76" height="6963"/>
		<rect x="838.8" y="-2056.5" class="st2" width="76" height="6963"/>
		<rect x="936.2" y="-2056.5" class="st2" width="76" height="6963"/>
		<rect x="1131.1" y="-2056.5" class="st2" width="76" height="6963"/>
		<rect x="1228.6" y="-2056.5" class="st2" width="76" height="6963"/>
		<rect x="1326" y="-2056.5" class="st2" width="76" height="6963"/>
		<rect x="1423.5" y="-2056.5" class="st2" width="76" height="6963"/>
		<rect x="1520.9" y="-2056.5" class="st2" width="76" height="6963"/>
		<rect x="1618.4" y="-2056.5" class="st2" width="76" height="6963"/>
	</g>
	<g id="Guides" class="st3">
	</g>
</g>
<g>
	<g>
		<path class="st4" d="M22.7,22.8c-1.3,0-2.3-0.4-3.4-1.4l-0.1-0.1l-0.9,1l0.1,0.1c1.3,1.2,2.7,1.7,4.3,1.7c2.2,0,3.6-1.2,3.6-3l0,0
			c0-1.6-1-2.5-3.5-3c-2.3-0.5-2.7-1-2.7-1.9l0,0c0-0.9,0.8-1.5,2.1-1.5c1.1,0,2,0.3,2.9,1.1l0.1,0.1l0.9-1L26,14.5
			c-1.1-0.9-2.2-1.3-3.7-1.3c-2,0-3.5,1.2-3.5,2.9l0,0c0,1.9,1.4,2.6,3.5,3.1c2.2,0.5,2.6,1,2.6,1.9l0,0
			C24.9,22.1,24,22.8,22.7,22.8z"/>
		<polygon class="st4" points="32.5,23.9 33.9,24 33.9,14.8 37.4,14.8 37.4,13.4 29.1,13.5 29,14.8 32.5,14.8 		"/>
		<path class="st4" d="M46,0.4H9.6v36.4H46V0.4z M44.5,35.3H11.2V2h33.3V35.3L44.5,35.3z"/>
		<polygon class="st4" points="10.3,56.2 7,56.3 6.9,53.7 6.2,53.7 6.3,59.6 7,59.6 7,57 10.3,56.9 10.3,59.6 11.1,59.5 11,53.6 
			10.2,53.7 		"/>
		<path class="st4" d="M21.8,53.3c-1.7,0-3,1.4-3,3.1c0,1.7,1.3,3,3,3s3-1.4,3-3.1C24.8,54.6,23.4,53.3,21.8,53.3z M21.8,58.8
			c-1.3,0-2.3-1-2.3-2.4c0-1.3,0.9-2.4,2.2-2.4c1.3,0,2.3,1,2.3,2.4C24.1,57.8,23.1,58.8,21.8,58.8z"/>
		<polygon class="st4" points="35.4,56.4 33.2,53.3 33.2,53.3 32.5,53.3 32.5,59.2 33.3,59.2 33.2,54.6 35.3,57.6 35.4,57.6 
			37.4,54.5 37.5,59.2 38.3,59.1 38.2,53.2 37.4,53.3 		"/>
		<polygon class="st4" points="47,58.4 46.9,56.4 50.1,56.4 50.1,55.7 46.9,55.7 46.9,53.8 50.5,53.7 50.5,53.1 46.2,53.1 46.2,59 
			50.6,59 50.6,58.3 		"/>
	</g>
</g>
</svg>
