<?xml version="1.0" encoding="utf-8"?>
<!-- Generator: Adobe Illustrator 24.1.3, SVG Export Plug-In . SVG Version: 6.00 Build 0)  -->
<svg version="1.1" id="Layer_1" xmlns="http://www.w3.org/2000/svg" xmlns:xlink="http://www.w3.org/1999/xlink" x="0px" y="0px"
	 viewBox="0 0 370 400" style="enable-background:new 0 0 370 400;" xml:space="preserve">
<style type="text/css">
	.st0{fill:#202223;}
</style>
<g>
	<path class="st0" d="M156.56,124.43c-13.56-2.91-16.04-6.05-16.04-11.17v-0.18c0-5.38,5.05-9.14,12.29-9.14
		c6.32,0,11.79,2.06,17.22,6.49l0.6,0.5l4.95-6.56l-0.57-0.46c-6.73-5.41-13.31-7.7-22.02-7.7c-12.12,0-20.91,7.35-20.91,17.49v0.17
		c0,11.48,8.47,15.67,21.19,18.44c12.96,2.74,15.34,5.81,15.34,10.91v0.17c0,5.69-5.31,9.67-12.91,9.67
		c-7.91,0-13.86-2.45-20.52-8.48l-0.58-0.52l-5.27,6.24l0.55,0.49c7.64,6.83,15.77,10.01,25.56,10.01
		c12.77,0,21.69-7.44,21.69-18.11v-0.18C177.13,132.99,170.98,127.57,156.56,124.43"/>
	<polygon class="st0" points="193.49,105.46 214.07,105.46 214.07,159.92 222.6,159.92 222.6,105.46 243.2,105.46 243.2,97.62 
		193.49,97.62 	"/>
	<path class="st0" d="M293.37,240.34H76.63V23.6h216.74V240.34z M85.84,231.13h198.32V32.8H85.84V231.13z"/>
	<g>
		<path class="st0" d="M33.75,360.75h10.59v7.5c-2.53,1.94-5.97,3.08-9.27,3.08c-7.77,0-12.99-5.52-12.99-13.74
			c0-7.6,5.47-13.54,12.45-13.54c5.04,0,7.82,1.82,10.08,3.79l0.59,0.51l3.54-4.16l-0.59-0.5c-4.05-3.41-7.95-4.81-13.46-4.81
			c-10.21,0-18.21,8.26-18.21,18.81c0,11.01,7.59,18.71,18.46,18.71c7.23,0,12.18-3.46,14.48-5.51l0.26-0.23v-14.98h-15.9V360.75z"
			/>
		<path class="st0" d="M124.31,350.64c0-6.78-5.24-11.16-13.34-11.16H95.24v36.32h5.47v-13.52h8.78l10.09,13.52h6.75l-10.89-14.49
			C121.01,359.89,124.31,355.97,124.31,350.64z M100.71,344.65h9.96c5.16,0,8.12,2.24,8.12,6.14s-3.21,6.43-8.17,6.43h-9.91V344.65z
			"/>
		<path class="st0" d="M186.47,338.89c-10.41,0-18.56,8.26-18.56,18.81c0,10.66,7.94,18.71,18.46,18.71
			c10.41,0,18.56-8.26,18.56-18.81C204.93,346.93,196.99,338.89,186.47,338.89z M186.47,371.24c-7.38,0-12.95-5.87-12.95-13.64
			c0-7.72,5.52-13.54,12.85-13.54c7.38,0,12.95,5.87,12.95,13.64C199.31,365.42,193.79,371.24,186.47,371.24z"/>
		<path class="st0" d="M274.46,360.48c0,6.91-3.45,10.71-9.71,10.71c-6.27,0-9.87-3.99-9.87-10.96v-20.75h-5.47v21
			c0,9.79,5.84,15.87,15.23,15.87c9.57,0,15.28-6.05,15.28-16.17v-20.7h-5.47V360.48z"/>
		<path class="st0" d="M339.75,339.48h-13.79v36.32h5.47v-12.28h7.68c8.64,0,14.44-4.9,14.44-12.2
			C353.54,344.14,348.12,339.48,339.75,339.48z M331.43,344.65h8.03c5.45,0,8.57,2.49,8.57,6.83c0,4.22-3.44,6.94-8.77,6.94h-7.83
			V344.65z"/>
	</g>
</g>
</svg>
