<?xml version="1.0" encoding="utf-8"?>
<!-- Generator: Adobe Illustrator 24.1.3, SVG Export Plug-In . SVG Version: 6.00 Build 0)  -->
<svg version="1.1" id="Layer_1" xmlns="http://www.w3.org/2000/svg" xmlns:xlink="http://www.w3.org/1999/xlink" x="0px" y="0px"
	 viewBox="0 0 94.3 37" style="enable-background:new 0 0 94.3 37;" xml:space="preserve">
<style type="text/css">
	.st0{display:none;}
	.st1{display:inline;opacity:0.4;}
	.st2{fill:#92F7FF;}
	.st3{display:inline;}
	.st4{fill:#003136;}
</style>
<g id="BGD">
</g>
<g id="Hero">
</g>
<g id="Slogan">
</g>
<g id="Services">
</g>
<g id="Clients">
</g>
<g id="Proposal">
</g>
<g id="Diver_Shop">
</g>
<g id="Guides_1_" class="st0">
	<g id="Grid" class="st1">
		<rect x="662.6" y="-2068" class="st2" width="76" height="6963"/>
		<rect x="565.1" y="-2068" class="st2" width="76" height="6963"/>
		<rect x="760" y="-2068" class="st2" width="76" height="6963"/>
		<rect x="1052.4" y="-2068" class="st2" width="76" height="6963"/>
		<rect x="857.5" y="-2068" class="st2" width="76" height="6963"/>
		<rect x="954.9" y="-2068" class="st2" width="76" height="6963"/>
		<rect x="1149.8" y="-2068" class="st2" width="76" height="6963"/>
		<rect x="1247.3" y="-2068" class="st2" width="76" height="6963"/>
		<rect x="1344.7" y="-2068" class="st2" width="76" height="6963"/>
		<rect x="1442.2" y="-2068" class="st2" width="76" height="6963"/>
		<rect x="1539.6" y="-2068" class="st2" width="76" height="6963"/>
		<rect x="1637.1" y="-2068" class="st2" width="76" height="6963"/>
	</g>
	<g id="Guides" class="st3">
	</g>
</g>
<g>
	<path class="st4" d="M43.9,12.6c0,0.1,0,0.3,0,0.4c0,4.5,0,8.9,0,13.4c0,0.4-0.2,0.6-0.6,0.6c-1.1,0-2.2,0-3.3,0
		c-0.3,0-0.6-0.2-0.6-0.6c0-4.5,0-8.9,0-13.4c0-0.1,0-0.2,0-0.3c-2.3,0-4.5,0-6.8,0c-1.3,4.8-2.7,9.5-4.1,14.3c-1.5,0-3.1,0-4.6,0
		c-0.9-3.6-1.8-7.2-2.7-10.8c0,0,0,0-0.1,0c-0.9,3.6-1.8,7.2-2.7,10.8c-1.5,0-3.1,0-4.6,0c-0.3-1-0.6-2-0.9-3
		c-0.3-0.9-0.5-1.9-0.8-2.8c-0.5-1.7-1-3.4-1.5-5c-0.3-1.2-0.7-2.3-1-3.5c-0.3-1.1-0.7-2.3-1-3.4C8.6,8.9,8.9,8.5,9.1,8.5
		c1.4,0,2.8,0,4.2,0c0.1,0,0.2,0.1,0.2,0.1c0.3,1.1,0.6,2.2,0.8,3.4c0.4,1.8,0.9,3.5,1.3,5.3c0.2,0.8,0.4,1.7,0.6,2.5
		c0,0,0,0.1,0.1,0.1c1-3.8,2-7.6,3-11.5c1.2,0,2.3,0,3.5,0c1,3.8,2,7.6,3,11.5c0.4-1.6,0.8-3.1,1.1-4.7c0.3-1.4,0.6-2.7,1-4.1
		c0.2-0.8,0.4-1.7,0.6-2.5c0.1-0.2,0.1-0.3,0.4-0.3c5.6,0,11.2,0,16.9,0c0.9,0,1.8,0,2.7,0c0.3,0,0.5,0.2,0.5,0.5c0,1,0,2,0,3
		c0,0.3-0.2,0.6-0.6,0.6c-1.4,0-2.8,0-4.3,0C44.1,12.6,44,12.6,43.9,12.6z"/>
	<path class="st4" d="M2.4,32.4c5.6,0,11.1,0,16.7,0c0,0.4,0,0.8,0,1.3c-6,0-12,0-18,0c0-10.7,0-21.4,0-32.1c30.7,0,61.3,0,92,0
		c0,10.7,0,21.4,0,32.1c-6,0-12,0-18,0c0-0.4,0-0.8,0-1.3c5.6,0,11.1,0,16.7,0c0-9.8,0-19.7,0-29.5c-29.8,0-59.6,0-89.4,0
		C2.4,12.7,2.4,22.5,2.4,32.4z"/>
	<path class="st4" d="M79.9,14.7c-0.3-0.4-0.5-0.7-0.8-1c-0.6-0.6-1.2-1-2-1.2c-1.3-0.4-2.5-0.2-3.6,0.4c-1.3,0.6-2.1,1.7-2.5,3.1
		c-0.6,1.9-0.4,3.7,0.9,5.3c0.7,1,1.7,1.5,2.9,1.8c1.2,0.2,2.3,0.1,3.4-0.4c0.1-0.1,0.2-0.1,0.3-0.1c0.6-0.3,0.8-0.7,0.7-1.4
		c0-0.2,0-0.4,0-0.7c-0.1,0-0.2,0-0.3,0c-1.3,0-2.6,0-3.9,0c-0.3,0-0.6-0.2-0.6-0.6c0-1,0-1.9,0-2.9c0-0.3,0.2-0.6,0.6-0.6
		c2.7,0,5.4,0,8.1,0c0.3,0,0.6,0.2,0.6,0.6c0,2.2,0,4.4,0,6.6c0,0.1-0.1,0.2-0.1,0.3c-0.7,0.7-1.4,1.4-2.3,1.9
		c-1.1,0.7-2.2,1.1-3.5,1.3c-0.9,0.2-1.9,0.2-2.8,0.1c-1.2-0.1-2.3-0.4-3.4-0.8c-0.8-0.3-1.5-0.8-2.2-1.3c-0.8-0.7-1.5-1.5-2.1-2.4
		c-0.7-1.1-1.1-2.3-1.2-3.6c-0.1-0.8,0-1.7,0-2.6c0-0.9,0.3-1.7,0.6-2.5c0.3-0.8,0.8-1.6,1.3-2.3c0.9-1.2,2.1-2,3.5-2.7
		c0.9-0.4,1.8-0.7,2.7-0.8c0.8-0.1,1.6-0.1,2.5-0.1c0.9,0,1.8,0.2,2.7,0.6c1,0.4,1.9,1,2.7,1.7c0.5,0.5,1,1,1.3,1.6
		c0.1,0.2,0,0.6-0.2,0.8c-0.7,0.4-1.4,0.8-2.2,1.2C80.6,14.3,80.3,14.5,79.9,14.7z"/>
	<path class="st4" d="M63.4,17.7c0,2.9,0,5.7,0,8.6c0,0.4-0.2,0.6-0.6,0.6c-1.1,0-2.2,0-3.4,0c-0.3,0-0.6-0.2-0.6-0.6
		c0-5.7,0-11.5,0-17.3c0-0.3,0.2-0.6,0.6-0.6c1.1,0,2.2,0,3.4,0c0.3,0,0.6,0.2,0.6,0.6C63.4,11.9,63.4,14.8,63.4,17.7z"/>
	<path class="st4" d="M57.1,31.5c-0.1,0.1-0.2,0.1-0.3,0.1c-0.1,0.1-0.3,0.1-0.4,0c-0.8-0.8-1.8-0.3-2.1,0.6
		c-0.2,0.8,0.2,1.6,1.2,1.8c0.3,0.1,0.7-0.1,0.9-0.4c0.1-0.1,0.1-0.4,0.1-0.6c-0.4,0-0.8,0-1.2,0c0-0.1,0-0.3,0-0.4
		c0.6,0,1.2,0,1.8,0c0,0.4,0,0.8,0,1.3c0,0.1-0.1,0.1-0.1,0.2c-0.5,0.4-1,0.6-1.6,0.5c-0.4-0.1-0.7-0.2-1-0.4
		c-0.5-0.5-0.6-1.1-0.6-1.7c0.1-0.6,0.4-1.1,1-1.4c0.7-0.3,1.4-0.3,2.1,0.2C56.9,31.2,57,31.4,57.1,31.5z"/>
	<path class="st4" d="M72,34.2c-0.5,0.3-1,0.4-1.5,0c-0.3-0.2-0.4-0.5-0.4-0.8c-0.1-0.4-0.1-0.9,0.2-1.3c0.3-0.6,1.1-0.7,1.7-0.3
		c0-0.1,0-0.1,0-0.2c0.2,0,0.4,0,0.6,0c0,0.1,0,0.2,0,0.3c0,0.7,0,1.5,0,2.2c0,0.8-0.4,1.1-1.2,1.2c-0.4,0-0.8,0-1.1-0.3
		c-0.2-0.1-0.1-0.3,0-0.3c0.1-0.1,0.2-0.1,0.3-0.1c0.2,0.1,0.3,0.2,0.5,0.2C71.5,35.1,72,34.8,72,34.2z M72,33.1c0-0.1,0-0.2,0-0.3
		c0-0.5-0.5-0.8-0.9-0.6c-0.4,0.2-0.6,0.9-0.3,1.4c0.3,0.4,0.6,0.4,1,0.2C72,33.7,72,33.4,72,33.1z"/>
	<path class="st4" d="M64.4,32c0-0.2,0-0.4,0-0.6c0-0.2,0-0.4,0-0.6c0.2,0,0.4,0,0.6,0c0,1.2,0,2.4,0,3.6c-0.2-0.1-0.5,0.1-0.6-0.2
		c-0.5,0.3-1,0.4-1.5,0c-0.3-0.2-0.4-0.5-0.4-0.8c-0.1-0.4,0-0.8,0.2-1.2c0.3-0.4,0.9-0.6,1.4-0.4C64.2,31.9,64.3,31.9,64.4,32z
		 M64.4,33.1c0-0.1,0-0.2,0-0.3c0-0.5-0.5-0.8-0.9-0.6c-0.4,0.2-0.6,0.8-0.4,1.3c0.1,0.3,0.5,0.5,0.8,0.5c0.4-0.1,0.6-0.3,0.6-0.7
		C64.4,33.2,64.4,33.2,64.4,33.1z"/>
	<path class="st4" d="M30.3,33.3c-0.7,0-1.4,0-2.1,0c0.1,0.7,0.9,1,1.4,0.5c0.2-0.2,0.3,0,0.4,0.1c0.1,0.1-0.1,0.2-0.1,0.2
		c-0.5,0.4-1.4,0.4-1.9-0.1c-0.4-0.4-0.5-0.9-0.3-1.5c0.2-0.6,0.7-1,1.4-0.9c0.6,0.1,1.1,0.4,1.1,1.1C30.3,33,30.3,33.1,30.3,33.3z
		 M29.8,32.9c-0.1-0.5-0.5-0.8-0.8-0.7c-0.3,0-0.7,0.4-0.7,0.7C28.8,32.9,29.2,32.9,29.8,32.9z"/>
	<path class="st4" d="M37.5,32.8c0.1-0.2,0-0.4-0.3-0.5c-0.2-0.1-0.6-0.1-0.8,0.1c-0.2,0.2-0.4,0.1-0.5-0.1c0-0.1,0-0.1,0.1-0.2
		c0.5-0.4,1.2-0.5,1.7-0.2c0.2,0.1,0.3,0.4,0.3,0.6c0,0.6,0,1.3,0,2c-0.2,0-0.4-0.1-0.6-0.1c-0.1,0-0.1,0-0.2,0
		c-0.3,0.1-0.6,0.1-0.9,0.1c-0.5-0.1-0.7-0.6-0.6-1c0-0.4,0.4-0.7,0.8-0.7C36.9,32.7,37.2,32.8,37.5,32.8z M37.5,33.6
		c0-0.3-0.3-0.6-0.6-0.6c-0.3,0-0.6,0.3-0.6,0.5s0.3,0.5,0.5,0.6C37.2,34.1,37.5,33.9,37.5,33.6z"/>
	<path class="st4" d="M49.6,32.8c0.1-0.2,0-0.4-0.3-0.5c-0.2-0.1-0.6-0.1-0.8,0.1c-0.2,0.2-0.4,0.1-0.5-0.1c0-0.1,0-0.1,0.1-0.2
		c0.5-0.4,1.2-0.5,1.7-0.2c0.2,0.1,0.3,0.4,0.3,0.6c0,0.6,0,1.3,0,2c-0.2,0-0.4-0.1-0.6-0.1c-0.1,0-0.1,0-0.2,0
		c-0.3,0.1-0.6,0.1-0.9,0.1c-0.5-0.1-0.7-0.6-0.6-1c0-0.4,0.4-0.7,0.8-0.7C49.1,32.7,49.3,32.8,49.6,32.8z M49.6,33.6
		c0-0.3-0.3-0.6-0.6-0.6c-0.3,0-0.6,0.3-0.6,0.5s0.3,0.6,0.5,0.6C49.4,34.1,49.6,33.9,49.6,33.6z"/>
	<path class="st4" d="M61.8,34.5c-0.2-0.1-0.4-0.1-0.6-0.1c-0.1,0-0.1,0-0.2,0.1c-0.4,0.1-0.9,0.2-1.2-0.2c-0.3-0.3-0.3-0.6-0.2-1
		c0.1-0.4,0.4-0.5,0.8-0.5c0.3,0,0.6,0.1,0.8,0.1c0.1-0.3-0.1-0.6-0.5-0.6c-0.2,0-0.4,0.1-0.6,0.2c-0.1,0.1-0.2,0.1-0.3,0
		c-0.1-0.1-0.2-0.2,0-0.4c0.5-0.4,1-0.4,1.6-0.2c0.3,0.1,0.4,0.4,0.4,0.6C61.8,33.1,61.8,33.8,61.8,34.5z M61.2,33.6
		c0.1-0.4-0.2-0.5-0.6-0.6c-0.3,0-0.6,0.3-0.6,0.5c0,0.3,0.3,0.5,0.5,0.5C61,34.1,61.2,33.9,61.2,33.6z"/>
	<path class="st4" d="M43,31.7c0.8,0,1.3,0.6,1.3,1.4s-0.5,1.4-1.4,1.4c-0.8,0-1.3-0.6-1.3-1.4C41.7,32.3,42.2,31.7,43,31.7z
		 M43.8,33.1c0-0.5-0.4-0.9-0.8-0.9c-0.4,0-0.8,0.4-0.8,0.9c0,0.5,0.4,0.9,0.8,0.9C43.5,34,43.8,33.6,43.8,33.1z"/>
	<path class="st4" d="M25.4,34.4c-0.2,0-0.4,0-0.6,0c0-0.5,0-1.1,0-1.6c0-0.4-0.1-0.6-0.4-0.6c-0.2-0.1-0.7,0.1-0.8,0.3
		c0,0.1,0,0.1,0,0.2c0,0.6,0,1.1,0,1.7c-0.2,0-0.4,0-0.6,0c0-0.9,0-1.7,0-2.6c0.2,0,0.4,0,0.5,0c0,0.1,0,0.1,0,0.2
		c0.3-0.2,0.6-0.3,1-0.3c0.4,0,0.7,0.3,0.7,0.7C25.4,33.1,25.4,33.7,25.4,34.4z"/>
	<path class="st4" d="M67.1,31.8c0.5,0,0.5,0,0.6,0.1c0.4-0.1,0.7-0.1,1-0.2c0.4,0,0.7,0.3,0.7,0.7c0,0.6,0,1.3,0,2
		c-0.2,0-0.4,0-0.6,0c0-0.6,0-1.1,0-1.6c0-0.5-0.4-0.7-0.8-0.5c-0.3,0.1-0.4,0.3-0.4,0.6c0,0.5,0,1,0,1.5c-0.2,0-0.4,0-0.6,0
		C67.1,33.6,67.1,32.7,67.1,31.8z"/>
	<path class="st4" d="M47.3,34.4c-0.2,0-0.4,0-0.6,0c0-0.6,0-1.1,0-1.7c0-0.2-0.1-0.4-0.3-0.5c-0.4-0.1-0.8,0.2-0.8,0.6
		c0,0.5,0,1.1,0,1.6c-0.2,0-0.4,0-0.6,0c0-0.8,0-1.7,0-2.6c0.2,0,0.4,0,0.5,0c0,0,0,0.1,0.1,0.2c0.3-0.2,0.6-0.3,1-0.3
		c0.4,0,0.7,0.3,0.7,0.7C47.3,33.1,47.3,33.7,47.3,34.4z"/>
	<path class="st4" d="M33.4,34.4c-0.2,0-0.4,0-0.6,0c0-0.9,0-1.7,0-2.6c0.2,0.1,0.4-0.1,0.6,0.1c0.3-0.1,0.7-0.1,1-0.2
		c0.4,0,0.7,0.3,0.7,0.7c0,0.6,0,1.3,0,2c-0.2,0-0.4,0-0.6,0c0-0.6,0-1.1,0-1.6c0-0.5-0.4-0.7-0.8-0.5c-0.3,0.1-0.4,0.3-0.4,0.6
		C33.4,33.4,33.4,33.9,33.4,34.4z"/>
	<path class="st4" d="M26.8,31.8c0.2,0,0.4,0,0.5,0c0,0.1,0,0.3,0,0.5c-0.1,0-0.3,0-0.5,0c0,0.5,0,1.1,0,1.5c0,0.1,0.1,0.3,0.3,0.2
		c0.1,0,0.2,0,0.2,0c0.1,0.1,0.2,0.4,0,0.4c-0.3,0.1-0.6,0.1-0.8,0c-0.3-0.1-0.3-0.4-0.3-0.6c0-0.5,0-1,0-1.5c-0.1,0-0.3,0-0.4,0
		c0-0.1,0-0.3,0-0.4c0.1,0,0.3,0,0.4,0c0-0.2,0-0.4,0-0.6c0.2,0,0.4,0,0.6,0C26.8,31.4,26.8,31.6,26.8,31.8z"/>
	<path class="st4" d="M38.9,32.3c-0.1,0-0.3,0-0.4,0c0-0.1,0-0.3,0-0.4c0.1,0,0.3,0,0.4,0c0-0.2,0-0.4,0-0.6c0.2,0,0.4,0,0.6,0
		c0,0.2,0,0.4,0,0.7c0.2,0,0.4,0,0.5,0c0,0.2,0,0.3,0,0.5c-0.1,0-0.3,0-0.5,0c0,0.5,0,1,0,1.5c0,0.1,0.1,0.3,0.3,0.2
		c0.1,0,0.2,0,0.2,0c0.1,0.1,0.2,0.3,0,0.4c-0.3,0.1-0.6,0.1-0.8,0c-0.2-0.1-0.2-0.4-0.2-0.6C38.9,33.3,38.9,32.8,38.9,32.3z"/>
	<path class="st4" d="M21.7,30.8c0.2,0,0.4,0,0.5,0c0,1.2,0,2.4,0,3.6c-0.2,0-0.4,0-0.5,0C21.7,33.2,21.7,32,21.7,30.8z"/>
	<path class="st4" d="M51.5,34.4c-0.2,0-0.4,0-0.5,0c0-1.2,0-2.4,0-3.6c0.2,0,0.4,0,0.5,0C51.5,32,51.5,33.2,51.5,34.4z"/>
	<path class="st4" d="M31.5,34.4c-0.2,0-0.4,0-0.6,0c0-0.9,0-1.7,0-2.6c0.2,0,0.4,0,0.6,0c0,0.1,0,0.1,0,0.1
		c0.3-0.1,0.5-0.2,0.8-0.3c0,0.2,0,0.4,0,0.5c-0.1,0-0.3,0.1-0.4,0.1c-0.3,0.1-0.5,0.4-0.5,0.7C31.5,33.5,31.5,33.9,31.5,34.4z"/>
	<path class="st4" d="M58.3,32c0.3-0.1,0.5-0.2,0.8-0.3c0,0.2,0,0.4,0,0.5c-0.1,0-0.2,0-0.3,0.1c-0.5,0.2-0.6,0.3-0.5,0.8
		c0,0.5,0,0.9,0,1.4c-0.2,0-0.4,0-0.6,0c0-0.9,0-1.7,0-2.6c0.2,0,0.3,0,0.5,0C58.3,31.8,58.3,31.9,58.3,32z"/>
	<path class="st4" d="M41.1,34.4c-0.2,0-0.4,0-0.5,0c0-0.9,0-1.7,0-2.6c0.2,0,0.4,0,0.5,0C41.1,32.7,41.1,33.5,41.1,34.4z"/>
	<path class="st4" d="M66.3,34.4c-0.2,0-0.4,0-0.5,0c0-0.9,0-1.7,0-2.6c0.2,0,0.4,0,0.5,0C66.3,32.7,66.3,33.5,66.3,34.4z"/>
	<path class="st4" d="M40.7,31.5c-0.2,0-0.3-0.1-0.3-0.3c0-0.2,0.1-0.3,0.3-0.3c0.2,0,0.4,0.1,0.4,0.3C41.1,31.4,41,31.5,40.7,31.5z
		"/>
	<path class="st4" d="M66,31.5c-0.2,0-0.4-0.1-0.4-0.3c0-0.2,0.1-0.3,0.3-0.3c0.2,0,0.4,0.1,0.4,0.3C66.3,31.4,66.2,31.5,66,31.5z"
		/>
</g>
</svg>
