<?xml version="1.0" encoding="utf-8"?>
<!-- Generator: Adobe Illustrator 24.1.3, SVG Export Plug-In . SVG Version: 6.00 Build 0)  -->
<svg version="1.1" id="Layer_1" xmlns="http://www.w3.org/2000/svg" xmlns:xlink="http://www.w3.org/1999/xlink" x="0px" y="0px"
	 viewBox="0 0 16.8 14.6" style="enable-background:new 0 0 16.8 14.6;" xml:space="preserve">
<style type="text/css">
	.st0{fill:#006D77;}
</style>
<path class="st0" d="M16.6,2.2L16.6,2.2c0,0.1-0.1,0.2-0.2,0.3S16.1,2.8,16,2.9l-0.4,0.3c-0.1,0.1-0.2,0.3-0.2,0.5
	c0.1,3.6-1.6,7.1-4.6,9.2c-1.3,0.9-2.9,1.5-4.5,1.7c-1.5,0.2-3,0.1-4.5-0.3c-0.6-0.2-1.1-0.4-1.7-0.6c1.7,0,3.3-0.6,4.6-1.6l0.7-0.5
	l-0.8-0.1c-1,0-1.9-0.5-2.6-1.2C1.8,9.8,1.7,9.6,1.5,9.3c0.4,0,0.9,0,1.3-0.1l1.1-0.3L2.8,8.6C1.3,8.2,0.2,7.1,0,5.6
	c0.4,0.2,0.9,0.3,1.4,0.3h1L1.6,5.3C0.7,4.7,0.2,3.8,0,2.8C0,2.2,0,1.5,0.3,1c2,2.2,4.8,3.6,7.8,3.8h0.3V4.4c0-0.1,0-0.3,0-0.4
	c0-0.2,0-0.5,0-0.7c0.1-1.5,1.1-2.7,2.5-3.1c1.2-0.4,2.6,0,3.4,0.9c0.1,0.1,0.3,0.2,0.5,0.1c0.5-0.1,1.1-0.3,1.6-0.5
	c-0.1,0.1-0.1,0.2-0.2,0.3c-0.2,0.2-0.4,0.4-0.6,0.6l-0.3,0.3l-0.8,0.7l1.3-0.3C16.1,2.3,16.4,2.3,16.6,2.2z"/>
</svg>
