<svg id="Layer_1" data-name="Layer 1" xmlns="http://www.w3.org/2000/svg" viewBox="0 0 14.53 14.51"><defs><style>.cls-1{fill:#006d77;}</style></defs><path class="cls-1" d="M3.88.06h7.24a3.26,3.26,0,0,1,1.15.3,3.91,3.91,0,0,1,2.42,3.7v6.48A3.93,3.93,0,0,1,14,12.83a4,4,0,0,1-3.38,1.74H4.25a4.47,4.47,0,0,1-.82-.07,4,4,0,0,1-3.15-3c-.06-.21-.08-.44-.12-.66V3.74A1,1,0,0,1,.23,3.3a4,4,0,0,1,3-3.16C3.44.12,3.66.1,3.88.06Zm9.53,7.29V4.18a3.06,3.06,0,0,0-.14-1,2.73,2.73,0,0,0-2.66-1.85H4.25a2.72,2.72,0,0,0-.94.14A2.67,2.67,0,0,0,1.45,4.13v6.35a3.08,3.08,0,0,0,.15.94,2.68,2.68,0,0,0,2.64,1.86h6.39a2.72,2.72,0,0,0,2.27-1.14,2.78,2.78,0,0,0,.51-1.65Z" transform="translate(-0.16 -0.06)"/><path class="cls-1" d="M7.43,11.08a3.75,3.75,0,1,1,3.75-3.75A3.75,3.75,0,0,1,7.43,11.08ZM9.88,7.34A2.45,2.45,0,1,0,7.42,9.79,2.45,2.45,0,0,0,9.88,7.34Z" transform="translate(-0.16 -0.06)"/><path class="cls-1" d="M11.33,2.49a.94.94,0,1,1-.94.94h0A.94.94,0,0,1,11.33,2.49Z" transform="translate(-0.16 -0.06)"/></svg>