<svg id="Layer_1" data-name="Layer 1" xmlns="http://www.w3.org/2000/svg" viewBox="0 0 25.75 22.87"><defs><style>.cls-1{fill:#006d77;}</style></defs><path class="cls-1" d="M25,36.6l-.72-.6.69-.73-.72.7-.1-.09-9.95-10a7,7,0,0,1-2-3.88,7.15,7.15,0,0,1,5.38-8.11,6.65,6.65,0,0,1,2-.19,7,7,0,0,1,4.64,2l.75.74.76-.76a7.13,7.13,0,0,1,3.73-1.92,6.76,6.76,0,0,1,1.62-.1,7.1,7.1,0,0,1,6.64,5.8,6.94,6.94,0,0,1-2,6.34Q32.26,29.47,28.68,33Zm-5.8-20.87a5.41,5.41,0,0,0-1.17.14,5.16,5.16,0,0,0-3.87,5.84,5,5,0,0,0,1.45,2.8L25,33.86l2.27-2.26c2.37-2.37,4.75-4.74,7.11-7.13a4.87,4.87,0,0,0,1.4-4.58A5.09,5.09,0,0,0,31,15.74a4.45,4.45,0,0,0-1.15.07,5,5,0,0,0-2.69,1.38c-.3.29-.59.58-.88.88L25,19.26l-.88-.74-.42-.43-.89-.88a5,5,0,0,0-3.36-1.47Zm5.88,2.08h0Z" transform="translate(-12.13 -13.73)"/></svg>